%FSAX42Y42*%
%MOMM*%
G71*
G01*
G75*
%ADD10R,1.30X1.05*%
%ADD11R,0.80X0.90*%
%ADD12O,0.55X1.75*%
%ADD13O,1.75X0.55*%
%ADD14R,0.90X0.80*%
%ADD15R,2.20X2.50*%
%ADD16R,2.00X0.50*%
%ADD17R,0.90X1.00*%
%ADD18C,0.51*%
%ADD19C,0.25*%
%ADD20C,0.60*%
%ADD21C,0.40*%
%ADD22C,1.00*%
%ADD23C,0.70*%
%ADD24C,0.50*%
%ADD25C,0.80*%
%ADD26C,5.89*%
%ADD27R,1.50X1.50*%
%ADD28C,1.50*%
%ADD29R,1.50X1.50*%
%ADD30C,1.50*%
%ADD31R,1.50X1.50*%
%ADD32C,1.75*%
%ADD33R,1.50X1.50*%
%ADD34C,1.02*%
%ADD35C,0.20*%
%ADD36C,0.60*%
%ADD37C,0.25*%
%ADD38C,0.20*%
%ADD39C,0.18*%
%ADD40R,2.03X2.03*%
%ADD41R,1.50X1.25*%
%ADD42R,0.95X1.05*%
%ADD43O,0.70X1.90*%
%ADD44O,1.90X0.70*%
%ADD45R,1.05X0.95*%
%ADD46R,2.35X2.65*%
%ADD47R,2.15X0.65*%
%ADD48R,1.05X1.15*%
%ADD49C,0.75*%
%ADD50C,0.55*%
%ADD51C,1.15*%
%ADD52C,0.85*%
%ADD53C,0.65*%
%ADD54C,0.95*%
%ADD55C,6.05*%
%ADD56R,1.65X1.65*%
%ADD57C,1.65*%
%ADD58R,1.65X1.65*%
%ADD59C,1.65*%
%ADD60R,1.65X1.65*%
%ADD61C,1.90*%
%ADD62R,1.65X1.65*%
%ADD63C,1.17*%
%ADD64C,0.30*%
%ADD65C,0.13*%
%ADD66C,0.17*%
D65*
X005848Y011765D02*
X005908D01*
X005878Y011735D02*
Y011795D01*
X005797Y011806D02*
X005837D01*
X005817Y011786D02*
Y011826D01*
X005957Y011753D02*
X005997D01*
X005977Y011733D02*
Y011773D01*
X005626Y011758D02*
X005666D01*
X005646Y011738D02*
Y011778D01*
X005675Y011801D02*
X005775D01*
X005725Y011751D02*
Y011851D01*
X005690Y011501D02*
X005730D01*
X005710Y011481D02*
Y011521D01*
X005941Y011567D02*
X005981D01*
X005961Y011547D02*
Y011587D01*
X005936Y011504D02*
X005976D01*
X005956Y011484D02*
Y011524D01*
X005865Y011542D02*
X005925D01*
X005895Y011512D02*
Y011572D01*
X005583Y011610D02*
X005623D01*
X005603Y011590D02*
Y011630D01*
X006033Y011524D02*
X006103D01*
X006068Y011489D02*
Y011559D01*
X006041Y011641D02*
X006141D01*
X006091Y011591D02*
Y011691D01*
X005736Y011659D02*
X005776D01*
X005756Y011639D02*
Y011679D01*
X005822Y011598D02*
X005862D01*
X005842Y011578D02*
Y011618D01*
X005982Y011613D02*
X006032D01*
X006007Y011588D02*
Y011638D01*
X005888Y011641D02*
X005968D01*
X005928Y011601D02*
Y011681D01*
X005804Y011656D02*
X005844D01*
X005824Y011636D02*
Y011676D01*
X005802Y011504D02*
X005852D01*
X005827Y011479D02*
Y011529D01*
X005703Y011570D02*
X005803D01*
X005753Y011520D02*
Y011620D01*
X005639Y011646D02*
X005709D01*
X005674Y011611D02*
Y011681D01*
X005596Y011529D02*
X005676D01*
X005636Y011489D02*
Y011569D01*
X005314Y013233D02*
X005608D01*
X005461Y013086D02*
Y013381D01*
X006474Y008362D02*
X006564D01*
X006519Y008317D02*
Y008407D01*
X006728Y008362D02*
X006818D01*
X006773Y008317D02*
Y008407D01*
X006474Y008108D02*
X006564D01*
X006519Y008063D02*
Y008153D01*
X006728Y008108D02*
X006818D01*
X006773Y008063D02*
Y008153D01*
X006474Y007854D02*
X006564D01*
X006519Y007809D02*
Y007899D01*
X006728Y007854D02*
X006818D01*
X006773Y007809D02*
Y007899D01*
X013366Y009881D02*
X013456D01*
X013411Y009836D02*
Y009926D01*
X013366Y010135D02*
X013456D01*
X013411Y010090D02*
Y010180D01*
X013366Y010389D02*
X013456D01*
X013411Y010344D02*
Y010434D01*
X013366Y010643D02*
X013456D01*
X013411Y010598D02*
Y010688D01*
X013366Y010897D02*
X013456D01*
X013411Y010852D02*
Y010942D01*
X013366Y011151D02*
X013456D01*
X013411Y011106D02*
Y011196D01*
X013366Y011405D02*
X013456D01*
X013411Y011360D02*
Y011450D01*
X013366Y011659D02*
X013456D01*
X013411Y011614D02*
Y011704D01*
X012604Y009881D02*
X012694D01*
X012649Y009836D02*
Y009926D01*
X012604Y010135D02*
X012694D01*
X012649Y010090D02*
Y010180D01*
X012604Y010389D02*
X012694D01*
X012649Y010344D02*
Y010434D01*
X012604Y010643D02*
X012694D01*
X012649Y010598D02*
Y010688D01*
X012604Y010897D02*
X012694D01*
X012649Y010852D02*
Y010942D01*
X012604Y011151D02*
X012694D01*
X012649Y011106D02*
Y011196D01*
X012604Y011405D02*
X012694D01*
X012649Y011360D02*
Y011450D01*
X012604Y011659D02*
X012694D01*
X012649Y011614D02*
Y011704D01*
X012350Y011659D02*
X012440D01*
X012395Y011614D02*
Y011704D01*
X012096Y011659D02*
X012186D01*
X012141Y011614D02*
Y011704D01*
X011842Y011659D02*
X011932D01*
X011887Y011614D02*
Y011704D01*
X011588Y011659D02*
X011678D01*
X011633Y011614D02*
Y011704D01*
X011334Y011659D02*
X011424D01*
X011379Y011614D02*
Y011704D01*
X011080Y011659D02*
X011170D01*
X011125Y011614D02*
Y011704D01*
X010826Y011659D02*
X010916D01*
X010871Y011614D02*
Y011704D01*
X010572Y011659D02*
X010662D01*
X010617Y011614D02*
Y011704D01*
X012350Y010897D02*
X012440D01*
X012395Y010852D02*
Y010942D01*
X012096Y010897D02*
X012186D01*
X012141Y010852D02*
Y010942D01*
X011842Y010897D02*
X011932D01*
X011887Y010852D02*
Y010942D01*
X011588Y010897D02*
X011678D01*
X011633Y010852D02*
Y010942D01*
X011334Y010897D02*
X011424D01*
X011379Y010852D02*
Y010942D01*
X011080Y010897D02*
X011170D01*
X011125Y010852D02*
Y010942D01*
X010826Y010897D02*
X010916D01*
X010871Y010852D02*
Y010942D01*
X010572Y010897D02*
X010662D01*
X010617Y010852D02*
Y010942D01*
X009296Y013098D02*
X009396D01*
X009346Y013048D02*
Y013148D01*
X006046Y012598D02*
X006146D01*
X006096Y012548D02*
Y012648D01*
X006296Y013098D02*
X006396D01*
X006346Y013048D02*
Y013148D01*
X006546Y012598D02*
X006646D01*
X006596Y012548D02*
Y012648D01*
X006796Y013098D02*
X006896D01*
X006846Y013048D02*
Y013148D01*
X007046Y012598D02*
X007146D01*
X007096Y012548D02*
Y012648D01*
X007296Y013098D02*
X007396D01*
X007346Y013048D02*
Y013148D01*
X007546Y012598D02*
X007646D01*
X007596Y012548D02*
Y012648D01*
X007796Y013098D02*
X007896D01*
X007846Y013048D02*
Y013148D01*
X008046Y012598D02*
X008146D01*
X008096Y012548D02*
Y012648D01*
X008296Y013098D02*
X008396D01*
X008346Y013048D02*
Y013148D01*
X008546Y012598D02*
X008646D01*
X008596Y012548D02*
Y012648D01*
X008796Y013098D02*
X008896D01*
X008846Y013048D02*
Y013148D01*
X009046Y012598D02*
X009146D01*
X009096Y012548D02*
Y012648D01*
X009963Y013183D02*
X010053D01*
X010008Y013138D02*
Y013228D01*
X010217Y013183D02*
X010307D01*
X010262Y013138D02*
Y013228D01*
X010471Y013183D02*
X010561D01*
X010516Y013138D02*
Y013228D01*
X010725Y013183D02*
X010815D01*
X010770Y013138D02*
Y013228D01*
X010979Y013183D02*
X011069D01*
X011024Y013138D02*
Y013228D01*
X011233Y013183D02*
X011323D01*
X011278Y013138D02*
Y013228D01*
X011487Y013183D02*
X011577D01*
X011532Y013138D02*
Y013228D01*
X011741Y013183D02*
X011831D01*
X011786Y013138D02*
Y013228D01*
X011995Y013183D02*
X012085D01*
X012040Y013138D02*
Y013228D01*
X012249Y013183D02*
X012339D01*
X012294Y013138D02*
Y013228D01*
X012503Y013183D02*
X012593D01*
X012548Y013138D02*
Y013228D01*
X012757Y013183D02*
X012847D01*
X012802Y013138D02*
Y013228D01*
X009963Y013437D02*
X010053D01*
X010008Y013392D02*
Y013482D01*
X010217Y013437D02*
X010307D01*
X010262Y013392D02*
Y013482D01*
X010471Y013437D02*
X010561D01*
X010516Y013392D02*
Y013482D01*
X010725Y013437D02*
X010815D01*
X010770Y013392D02*
Y013482D01*
X010979Y013437D02*
X011069D01*
X011024Y013392D02*
Y013482D01*
X011233Y013437D02*
X011323D01*
X011278Y013392D02*
Y013482D01*
X011487Y013437D02*
X011577D01*
X011532Y013392D02*
Y013482D01*
X011741Y013437D02*
X011831D01*
X011786Y013392D02*
Y013482D01*
X011995Y013437D02*
X012085D01*
X012040Y013392D02*
Y013482D01*
X012249Y013437D02*
X012339D01*
X012294Y013392D02*
Y013482D01*
X012503Y013437D02*
X012593D01*
X012548Y013392D02*
Y013482D01*
X012757Y013437D02*
X012847D01*
X012802Y013392D02*
Y013482D01*
X010293Y011659D02*
X010383D01*
X010338Y011614D02*
Y011704D01*
X010039Y011659D02*
X010129D01*
X010084Y011614D02*
Y011704D01*
X009785Y011659D02*
X009875D01*
X009830Y011614D02*
Y011704D01*
X009531Y011659D02*
X009621D01*
X009576Y011614D02*
Y011704D01*
X009277Y011659D02*
X009367D01*
X009322Y011614D02*
Y011704D01*
X009023Y011659D02*
X009113D01*
X009068Y011614D02*
Y011704D01*
X008769Y011659D02*
X008859D01*
X008814Y011614D02*
Y011704D01*
X008515Y011659D02*
X008605D01*
X008560Y011614D02*
Y011704D01*
X010293Y010897D02*
X010383D01*
X010338Y010852D02*
Y010942D01*
X010039Y010897D02*
X010129D01*
X010084Y010852D02*
Y010942D01*
X009785Y010897D02*
X009875D01*
X009830Y010852D02*
Y010942D01*
X009531Y010897D02*
X009621D01*
X009576Y010852D02*
Y010942D01*
X009277Y010897D02*
X009367D01*
X009322Y010852D02*
Y010942D01*
X009023Y010897D02*
X009113D01*
X009068Y010852D02*
Y010942D01*
X008769Y010897D02*
X008859D01*
X008814Y010852D02*
Y010942D01*
X008515Y010897D02*
X008605D01*
X008560Y010852D02*
Y010942D01*
X005314Y008001D02*
X005608D01*
X005461Y007854D02*
Y008148D01*
X014559Y013233D02*
X014854D01*
X014707Y013086D02*
Y013381D01*
X014559Y008001D02*
X014854D01*
X014707Y007854D02*
Y008148D01*
X014022Y009522D02*
X014122D01*
X014072Y009472D02*
Y009572D01*
X014522Y009772D02*
X014622D01*
X014572Y009722D02*
Y009822D01*
X014022Y010022D02*
X014122D01*
X014072Y009972D02*
Y010072D01*
X014522Y010272D02*
X014622D01*
X014572Y010222D02*
Y010322D01*
X014022Y010522D02*
X014122D01*
X014072Y010472D02*
Y010572D01*
X014522Y010772D02*
X014622D01*
X014572Y010722D02*
Y010822D01*
X014022Y011022D02*
X014122D01*
X014072Y010972D02*
Y011072D01*
X014522Y011272D02*
X014622D01*
X014572Y011222D02*
Y011322D01*
X014022Y011522D02*
X014122D01*
X014072Y011472D02*
Y011572D01*
X014522Y011772D02*
X014622D01*
X014572Y011722D02*
Y011822D01*
X014022Y012022D02*
X014122D01*
X014072Y011972D02*
Y012072D01*
X014522Y012272D02*
X014622D01*
X014572Y012222D02*
Y012322D01*
X014022Y012522D02*
X014122D01*
X014072Y012472D02*
Y012572D01*
X014522Y009272D02*
X014622D01*
X014572Y009222D02*
Y009322D01*
X012446Y008865D02*
X012497D01*
X012471Y008839D02*
Y008890D01*
X005895Y008333D02*
X005945D01*
X005920Y008308D02*
Y008358D01*
X005895Y009599D02*
X005945D01*
X005920Y009574D02*
Y009625D01*
X009322Y008973D02*
X009373D01*
X009347Y008947D02*
Y008998D01*
X008839Y009423D02*
X008890D01*
X008865Y009398D02*
Y009449D01*
X009347Y009703D02*
X009398D01*
X009373Y009677D02*
Y009728D01*
X009449Y009601D02*
X009500D01*
X009474Y009576D02*
Y009627D01*
X009652Y009601D02*
X009703D01*
X009677Y009576D02*
Y009627D01*
X009550Y009512D02*
X009601D01*
X009576Y009487D02*
Y009538D01*
X009754Y009508D02*
X009804D01*
X009779Y009482D02*
Y009533D01*
X009754Y009060D02*
X009804D01*
X009779Y009035D02*
Y009086D01*
X009652Y008931D02*
X009703D01*
X009677Y008905D02*
Y008956D01*
X009220Y007928D02*
X009271D01*
X009246Y007902D02*
Y007953D01*
X007332Y010550D02*
X007383D01*
X007358Y010524D02*
Y010575D01*
X008238Y010287D02*
X008289D01*
X008264Y010262D02*
Y010312D01*
X008304Y008892D02*
X008354D01*
X008329Y008867D02*
Y008917D01*
X008717Y009851D02*
X008767D01*
X008742Y009826D02*
Y009876D01*
X007891Y008184D02*
X007942D01*
X007916Y008159D02*
Y008210D01*
X006452Y009042D02*
X006502D01*
X006477Y009017D02*
Y009068D01*
X007180Y009529D02*
X007231D01*
X007206Y009503D02*
Y009554D01*
X007269Y008264D02*
X007319D01*
X007294Y008238D02*
Y008289D01*
X008941Y009779D02*
X008992D01*
X008966Y009754D02*
Y009804D01*
X007239Y008128D02*
X007290D01*
X007264Y008103D02*
Y008153D01*
X009068Y009982D02*
X009119D01*
X009093Y009957D02*
Y010008D01*
X007341Y008026D02*
X007391D01*
X007366Y008001D02*
Y008052D01*
X007823Y007925D02*
X007874D01*
X007849Y007899D02*
Y007950D01*
X009246Y009068D02*
X009296D01*
X009271Y009042D02*
Y009093D01*
X009068Y009423D02*
X009119D01*
X009093Y009398D02*
Y009449D01*
X012573Y009068D02*
X012624D01*
X012598Y009042D02*
Y009093D01*
X008839Y010262D02*
X008890D01*
X008865Y010236D02*
Y010287D01*
X008941Y010389D02*
X008992D01*
X008966Y010363D02*
Y010414D01*
X010312Y010262D02*
X010363D01*
X010338Y010236D02*
Y010287D01*
X007010Y010693D02*
X007061D01*
X007036Y010668D02*
Y010719D01*
X006621Y010168D02*
X006672D01*
X006646Y010143D02*
Y010194D01*
X007249Y009815D02*
X007300D01*
X007275Y009789D02*
Y009840D01*
X007722Y009119D02*
X007772D01*
X007747Y009093D02*
Y009144D01*
X007823Y009804D02*
X007874D01*
X007849Y009779D02*
Y009830D01*
X007329Y009105D02*
X007380D01*
X007355Y009079D02*
Y009130D01*
X007329Y009384D02*
X007380D01*
X007355Y009359D02*
Y009409D01*
X009550Y009068D02*
X009601D01*
X009576Y009042D02*
Y009093D01*
X006215Y008806D02*
X006266D01*
X006241Y008781D02*
Y008832D01*
X007493Y009109D02*
X007544D01*
X007518Y009084D02*
Y009135D01*
M02*
