%FSAX42Y42*%
%MOMM*%
G71*
G01*
G75*
%ADD10R,1.30X1.05*%
%ADD11R,0.80X0.90*%
%ADD12O,0.55X1.75*%
%ADD13O,1.75X0.55*%
%ADD14R,0.90X0.80*%
%ADD15R,2.20X2.50*%
%ADD16R,2.00X0.50*%
%ADD17R,0.90X1.00*%
%ADD18C,0.51*%
%ADD19C,0.25*%
%ADD20C,0.60*%
%ADD21C,0.40*%
%ADD22C,1.00*%
%ADD23C,0.70*%
%ADD24C,0.50*%
%ADD25C,0.80*%
%ADD26C,5.89*%
%ADD27R,1.50X1.50*%
%ADD28C,1.50*%
%ADD29R,1.50X1.50*%
%ADD30C,1.50*%
%ADD31R,1.50X1.50*%
%ADD32C,1.75*%
%ADD33R,1.50X1.50*%
%ADD34C,1.02*%
%ADD35C,0.20*%
D10*
X007730Y008369D02*
D03*
Y008184D02*
D03*
X007500D02*
D03*
Y008369D02*
D03*
D11*
X006649Y009550D02*
D03*
X006509D02*
D03*
X006649Y009703D02*
D03*
X006509D02*
D03*
X008621Y009851D02*
D03*
X008481D02*
D03*
X008143Y010287D02*
D03*
X008003D02*
D03*
X008490Y009271D02*
D03*
X008630D02*
D03*
X007682Y008530D02*
D03*
X007542D02*
D03*
Y008009D02*
D03*
X007682D02*
D03*
X007131Y008378D02*
D03*
X006991D02*
D03*
D12*
X007195Y010014D02*
D03*
X007275D02*
D03*
X007355D02*
D03*
X007435D02*
D03*
X007515D02*
D03*
X007595D02*
D03*
X007675D02*
D03*
X007755D02*
D03*
X007835D02*
D03*
X007915D02*
D03*
X007995D02*
D03*
Y008884D02*
D03*
X007915D02*
D03*
X007835D02*
D03*
X007755D02*
D03*
X007675D02*
D03*
X007595D02*
D03*
X007515D02*
D03*
X007435D02*
D03*
X007355D02*
D03*
X007275D02*
D03*
X007195D02*
D03*
D13*
X008160Y009849D02*
D03*
Y009769D02*
D03*
Y009689D02*
D03*
Y009609D02*
D03*
Y009529D02*
D03*
Y009449D02*
D03*
Y009369D02*
D03*
Y009289D02*
D03*
Y009209D02*
D03*
Y009129D02*
D03*
Y009049D02*
D03*
X007030D02*
D03*
Y009129D02*
D03*
Y009209D02*
D03*
Y009289D02*
D03*
Y009369D02*
D03*
Y009449D02*
D03*
Y009529D02*
D03*
Y009609D02*
D03*
Y009689D02*
D03*
Y009769D02*
D03*
Y009849D02*
D03*
D14*
X008628Y009032D02*
D03*
Y008892D02*
D03*
X008475Y008892D02*
D03*
Y009032D02*
D03*
X006629Y009316D02*
D03*
Y009176D02*
D03*
X006477Y009176D02*
D03*
Y009316D02*
D03*
X006646Y009887D02*
D03*
Y010027D02*
D03*
X007193Y010429D02*
D03*
Y010289D02*
D03*
X007358Y010429D02*
D03*
Y010289D02*
D03*
X007294Y008384D02*
D03*
Y008524D02*
D03*
X010135Y012605D02*
D03*
Y012745D02*
D03*
X012675Y012745D02*
D03*
Y012605D02*
D03*
X012548Y012364D02*
D03*
Y012224D02*
D03*
X012294Y012364D02*
D03*
Y012224D02*
D03*
X012167Y012605D02*
D03*
Y012745D02*
D03*
X012040Y012364D02*
D03*
Y012224D02*
D03*
X011913Y012605D02*
D03*
Y012745D02*
D03*
X011786Y012364D02*
D03*
Y012224D02*
D03*
X011659Y012605D02*
D03*
Y012745D02*
D03*
X011532Y012364D02*
D03*
Y012224D02*
D03*
X011405Y012605D02*
D03*
Y012745D02*
D03*
X011278Y012364D02*
D03*
Y012224D02*
D03*
X011151Y012605D02*
D03*
Y012745D02*
D03*
X011024Y012364D02*
D03*
Y012224D02*
D03*
X010897Y012605D02*
D03*
Y012745D02*
D03*
X010770Y012364D02*
D03*
Y012224D02*
D03*
X010643Y012605D02*
D03*
Y012745D02*
D03*
X010516Y012364D02*
D03*
Y012224D02*
D03*
X010389Y012605D02*
D03*
Y012745D02*
D03*
X010262Y012364D02*
D03*
Y012224D02*
D03*
X012421Y012605D02*
D03*
Y012745D02*
D03*
D15*
X005390Y009386D02*
D03*
Y008546D02*
D03*
X005920D02*
D03*
Y009386D02*
D03*
D16*
X005945Y008806D02*
D03*
Y008886D02*
D03*
Y008966D02*
D03*
Y009046D02*
D03*
Y009126D02*
D03*
D17*
X008685Y007921D02*
D03*
X009095D02*
D03*
Y008081D02*
D03*
X008685D02*
D03*
D20*
X005878Y011765D02*
D03*
X005895Y011542D02*
D03*
D21*
X005817Y011806D02*
D03*
X005977Y011753D02*
D03*
X005646Y011758D02*
D03*
X005710Y011501D02*
D03*
X005961Y011567D02*
D03*
X005956Y011504D02*
D03*
X005603Y011610D02*
D03*
X005756Y011659D02*
D03*
X005842Y011598D02*
D03*
X005824Y011656D02*
D03*
D22*
X005725Y011801D02*
D03*
X006091Y011641D02*
D03*
X005753Y011570D02*
D03*
D23*
X006068Y011524D02*
D03*
X005674Y011646D02*
D03*
D24*
X006007Y011613D02*
D03*
X005827Y011504D02*
D03*
D25*
X005928Y011641D02*
D03*
X005636Y011529D02*
D03*
D26*
X005461Y013233D02*
D03*
Y008001D02*
D03*
X014707Y013233D02*
D03*
Y008001D02*
D03*
D27*
X006519Y008362D02*
D03*
D28*
X006773D02*
D03*
X006519Y008108D02*
D03*
X006773D02*
D03*
X006519Y007854D02*
D03*
X006773D02*
D03*
X010262Y013183D02*
D03*
X010516D02*
D03*
X010770D02*
D03*
X011024D02*
D03*
X011278D02*
D03*
X011532D02*
D03*
X011786D02*
D03*
X012040D02*
D03*
X012294D02*
D03*
X012548D02*
D03*
X012802D02*
D03*
X010008Y013437D02*
D03*
X010262D02*
D03*
X010516D02*
D03*
X010770D02*
D03*
X011024D02*
D03*
X011278D02*
D03*
X011532D02*
D03*
X011786D02*
D03*
X012040D02*
D03*
X012294D02*
D03*
X012548D02*
D03*
X012802D02*
D03*
D29*
X013411Y009881D02*
D03*
D30*
Y010135D02*
D03*
Y010389D02*
D03*
Y010643D02*
D03*
Y010897D02*
D03*
Y011151D02*
D03*
Y011405D02*
D03*
Y011659D02*
D03*
X012649Y009881D02*
D03*
Y010135D02*
D03*
Y010389D02*
D03*
Y010643D02*
D03*
Y010897D02*
D03*
Y011151D02*
D03*
Y011405D02*
D03*
Y011659D02*
D03*
X012141Y011659D02*
D03*
X011887D02*
D03*
X011633D02*
D03*
X011379D02*
D03*
X011125D02*
D03*
X010871D02*
D03*
X010617D02*
D03*
X012395Y010897D02*
D03*
X012141D02*
D03*
X011887D02*
D03*
X011633D02*
D03*
X011379D02*
D03*
X011125D02*
D03*
X010871D02*
D03*
X010617D02*
D03*
X010084Y011659D02*
D03*
X009830D02*
D03*
X009576D02*
D03*
X009322D02*
D03*
X009068D02*
D03*
X008814D02*
D03*
X008560D02*
D03*
X010338Y010897D02*
D03*
X010084D02*
D03*
X009830D02*
D03*
X009576D02*
D03*
X009322D02*
D03*
X009068D02*
D03*
X008814D02*
D03*
X008560D02*
D03*
D31*
X012395Y011659D02*
D03*
X010338D02*
D03*
D32*
X009346Y013098D02*
D03*
X006096Y012598D02*
D03*
X006346Y013098D02*
D03*
X006596Y012598D02*
D03*
X006846Y013098D02*
D03*
X007096Y012598D02*
D03*
X007346Y013098D02*
D03*
X007596Y012598D02*
D03*
X007846Y013098D02*
D03*
X008096Y012598D02*
D03*
X008346Y013098D02*
D03*
X008596Y012598D02*
D03*
X008846Y013098D02*
D03*
X009096Y012598D02*
D03*
X014072Y009522D02*
D03*
X014572Y009772D02*
D03*
X014072Y010022D02*
D03*
X014572Y010272D02*
D03*
X014072Y010522D02*
D03*
X014572Y010772D02*
D03*
X014072Y011022D02*
D03*
X014572Y011272D02*
D03*
X014072Y011522D02*
D03*
X014572Y011772D02*
D03*
X014072Y012022D02*
D03*
X014572Y012272D02*
D03*
X014072Y012522D02*
D03*
X014572Y009272D02*
D03*
D33*
X010008Y013183D02*
D03*
M02*
