%FSAX42Y42*%
%MOMM*%
G71*
G01*
G75*
G04 Layer_Color=8421504*
%ADD10R,1.30X1.05*%
%ADD11R,0.80X0.90*%
%ADD12O,0.55X1.75*%
%ADD13O,1.75X0.55*%
%ADD14R,0.90X0.80*%
%ADD15R,2.20X2.50*%
%ADD16R,2.00X0.50*%
%ADD17R,0.90X1.00*%
%ADD18C,0.51*%
%ADD19C,0.25*%
%ADD20C,0.60*%
%ADD21C,0.40*%
%ADD22C,1.00*%
%ADD23C,0.70*%
%ADD24C,0.50*%
%ADD25C,0.80*%
%ADD26C,5.89*%
%ADD27R,1.50X1.50*%
%ADD28C,1.50*%
%ADD29R,1.50X1.50*%
%ADD30C,1.50*%
%ADD31R,1.50X1.50*%
%ADD32C,1.75*%
%ADD33R,1.50X1.50*%
%ADD34C,1.02*%
%ADD35C,0.20*%
%ADD36C,0.60*%
%ADD37C,0.25*%
%ADD38C,0.20*%
%ADD39C,0.18*%
%ADD40R,2.03X2.03*%
D10*
X007730Y008369D02*
D03*
Y008184D02*
D03*
X007500D02*
D03*
Y008369D02*
D03*
D11*
X006649Y009550D02*
D03*
X006509D02*
D03*
X006649Y009703D02*
D03*
X006509D02*
D03*
X008621Y009851D02*
D03*
X008481D02*
D03*
X008143Y010287D02*
D03*
X008003D02*
D03*
X008490Y009271D02*
D03*
X008630D02*
D03*
X007682Y008530D02*
D03*
X007542D02*
D03*
Y008009D02*
D03*
X007682D02*
D03*
X007131Y008378D02*
D03*
X006991D02*
D03*
D12*
X007195Y010014D02*
D03*
X007275D02*
D03*
X007355D02*
D03*
X007435D02*
D03*
X007515D02*
D03*
X007595D02*
D03*
X007675D02*
D03*
X007755D02*
D03*
X007835D02*
D03*
X007915D02*
D03*
X007995D02*
D03*
Y008884D02*
D03*
X007915D02*
D03*
X007835D02*
D03*
X007755D02*
D03*
X007675D02*
D03*
X007595D02*
D03*
X007515D02*
D03*
X007435D02*
D03*
X007355D02*
D03*
X007275D02*
D03*
X007195D02*
D03*
D13*
X008160Y009849D02*
D03*
Y009769D02*
D03*
Y009689D02*
D03*
Y009609D02*
D03*
Y009529D02*
D03*
Y009449D02*
D03*
Y009369D02*
D03*
Y009289D02*
D03*
Y009209D02*
D03*
Y009129D02*
D03*
Y009049D02*
D03*
X007030D02*
D03*
Y009129D02*
D03*
Y009209D02*
D03*
Y009289D02*
D03*
Y009369D02*
D03*
Y009449D02*
D03*
Y009529D02*
D03*
Y009609D02*
D03*
Y009689D02*
D03*
Y009769D02*
D03*
Y009849D02*
D03*
D14*
X008628Y009032D02*
D03*
Y008892D02*
D03*
X008475Y008892D02*
D03*
Y009032D02*
D03*
X006629Y009316D02*
D03*
Y009176D02*
D03*
X006477Y009176D02*
D03*
Y009316D02*
D03*
X006646Y009887D02*
D03*
Y010027D02*
D03*
X007193Y010429D02*
D03*
Y010289D02*
D03*
X007358Y010429D02*
D03*
Y010289D02*
D03*
X007294Y008384D02*
D03*
Y008524D02*
D03*
X010135Y012605D02*
D03*
Y012745D02*
D03*
X012675Y012745D02*
D03*
Y012605D02*
D03*
X012548Y012364D02*
D03*
Y012224D02*
D03*
X012294Y012364D02*
D03*
Y012224D02*
D03*
X012167Y012605D02*
D03*
Y012745D02*
D03*
X012040Y012364D02*
D03*
Y012224D02*
D03*
X011913Y012605D02*
D03*
Y012745D02*
D03*
X011786Y012364D02*
D03*
Y012224D02*
D03*
X011659Y012605D02*
D03*
Y012745D02*
D03*
X011532Y012364D02*
D03*
Y012224D02*
D03*
X011405Y012605D02*
D03*
Y012745D02*
D03*
X011278Y012364D02*
D03*
Y012224D02*
D03*
X011151Y012605D02*
D03*
Y012745D02*
D03*
X011024Y012364D02*
D03*
Y012224D02*
D03*
X010897Y012605D02*
D03*
Y012745D02*
D03*
X010770Y012364D02*
D03*
Y012224D02*
D03*
X010643Y012605D02*
D03*
Y012745D02*
D03*
X010516Y012364D02*
D03*
Y012224D02*
D03*
X010389Y012605D02*
D03*
Y012745D02*
D03*
X010262Y012364D02*
D03*
Y012224D02*
D03*
X012421Y012605D02*
D03*
Y012745D02*
D03*
D15*
X005390Y009386D02*
D03*
Y008546D02*
D03*
X005920D02*
D03*
Y009386D02*
D03*
D16*
X005945Y008806D02*
D03*
Y008886D02*
D03*
Y008966D02*
D03*
Y009046D02*
D03*
Y009126D02*
D03*
D17*
X008685Y007921D02*
D03*
X009095D02*
D03*
Y008081D02*
D03*
X008685D02*
D03*
M02*
