M48
;Layer_Color=9474304
;FILE_FORMAT=4:2
METRIC
;TYPE=PLATED
T1F00S00C0.40
T2F00S00C0.50
T3F00S00C0.51
T4F00S00C0.60
T5F00S00C0.70
T6F00S00C0.80
T7F00S00C0.90
T8F00S00C1.00
;TYPE=NON_PLATED
T9F00S00C2.95
%
T01
X005710Y011501
X005756Y011659
X005824Y011656
X005842Y011598
X005961Y011567
X005956Y011504
X005977Y011753
X005817Y011806
X005646Y011758
X005603Y011610
T02
X005827Y011504
X006007Y011613
T03
X009246Y007928
X007849Y007925
X007916Y008184
X007294Y008264
X007264Y008128
X007366Y008026
X007355Y009105
X007518Y009109
X007747Y009119
X007355Y009384
X007206Y009529
X007275Y009815
X007849Y009804
X007358Y010550
X007036Y010693
X006646Y010168
X005920Y009599
X006477Y009042
X006241Y008806
X005920Y008333
X008329Y008892
X008865Y009423
X009093
X008966Y009779
X008742Y009851
X009093Y009982
X008865Y010262
X008966Y010389
X008264Y010287
X009373Y009703
X009474Y009601
X009576Y009512
X009677Y009601
X009779Y009508
Y009060
X009576Y009068
X009677Y008931
X009347Y008973
X009271Y009068
X010338Y010262
X012598Y009068
X012471Y008865
T04
X005895Y011542
X005878Y011765
T05
X005674Y011646
X006068Y011524
T06
X005636Y011529
X005928Y011641
T07
X006519Y007854
X006773
Y008108
Y008362
X006519
Y008108
X008560Y010897
X008814
X009068
X009322
X009576
X009830
X010084
X010338
X010617
X010871
X011125
X011379
X011633
X011887
Y011659
X011633
X011379
X011125
X010871
X010617
X010338
X010084
X009830
X009576
X009322
X009068
X008814
X008560
X012141
X012395
X012649Y011659
Y011405
Y011151
Y010897
Y010643
Y010389
Y010135
Y009881
X013411
Y010135
Y010389
Y010643
Y010897
Y011151
Y011405
Y011659
X012395Y010897
X012141
X012040Y013183
X012294
X012548
X012802
Y013437
X012548
X012294
X012040
X011786
Y013183
X011532
X011278
X011024
X010770
X010516
X010262
X010008
Y013437
X010262
X010516
X010770
X011024
X011278
X011532
T08
X005753Y011570
X005725Y011801
X006091Y011641
X014072Y011522
Y011022
Y010522
Y010022
Y009522
X014572Y009772
Y010272
Y010772
Y011272
Y011772
Y009272
Y012272
X014072Y012022
Y012522
X009096Y012598
X008596
X008096
X008346Y013098
X008846
X009346
X007846
X007346
X006846
X006346
X006096Y012598
X006596
X007096
X007596
T09
X005461Y008001
X014707
Y013233
X005461
M30
