%FSAX42Y42*%
%MOMM*%
G71*
G01*
G75*
G04 Layer_Color=2752767*
%ADD10R,1.30X1.05*%
%ADD11R,0.80X0.90*%
%ADD12O,0.55X1.75*%
%ADD13O,1.75X0.55*%
%ADD14R,0.90X0.80*%
%ADD15R,2.20X2.50*%
%ADD16R,2.00X0.50*%
%ADD17R,0.90X1.00*%
%ADD18C,0.51*%
%ADD19C,0.25*%
%ADD20C,0.60*%
%ADD21C,0.40*%
%ADD22C,1.00*%
%ADD23C,0.70*%
%ADD24C,0.50*%
%ADD25C,0.80*%
%ADD26C,5.89*%
%ADD27R,1.50X1.50*%
%ADD28C,1.50*%
%ADD29R,1.50X1.50*%
%ADD30C,1.50*%
%ADD31R,1.50X1.50*%
%ADD32C,1.75*%
%ADD33R,1.50X1.50*%
%ADD34C,1.02*%
%ADD35C,0.20*%
%ADD36C,0.60*%
%ADD37C,0.25*%
%ADD38C,0.20*%
%ADD39C,0.18*%
%ADD40R,2.03X2.03*%
%ADD41R,1.50X1.25*%
%ADD42R,0.95X1.05*%
%ADD43O,0.70X1.90*%
%ADD44O,1.90X0.70*%
%ADD45R,1.05X0.95*%
%ADD46R,2.35X2.65*%
%ADD47R,2.15X0.65*%
%ADD48R,1.05X1.15*%
%ADD49C,0.75*%
%ADD50C,0.55*%
%ADD51C,1.15*%
%ADD52C,0.85*%
%ADD53C,0.65*%
%ADD54C,0.95*%
%ADD55C,6.05*%
%ADD56R,1.65X1.65*%
%ADD57C,1.65*%
%ADD58R,1.65X1.65*%
%ADD59C,1.65*%
%ADD60R,1.65X1.65*%
%ADD61C,1.90*%
%ADD62R,1.65X1.65*%
%ADD63C,1.17*%
%ADD64C,0.30*%
%ADD65C,0.13*%
%ADD66C,0.17*%
D65*
X005827Y011714D02*
Y011816D01*
X005928D01*
Y011714D01*
X005827D01*
X005725Y011750D02*
X005674Y011852D01*
X005776D01*
X005725Y011750D01*
X005845Y011491D02*
Y011593D01*
X005946D01*
Y011491D01*
X005845D01*
X006068Y011473D02*
X006093Y011499D01*
X006119D01*
X006093Y011524D01*
X006119Y011549D01*
X006093D01*
X006068Y011575D01*
X006043Y011549D01*
X006017D01*
X006043Y011524D01*
X006017Y011499D01*
X006043D01*
X006068Y011473D01*
X006091Y011590D02*
X006040Y011692D01*
X006142D01*
X006091Y011590D01*
X005956Y011562D02*
X005982Y011613D01*
X005956Y011664D01*
X006007Y011638D01*
X006058Y011664D01*
X006033Y011613D01*
X006058Y011562D01*
X006007Y011587D01*
X005956Y011562D01*
X005903Y011615D02*
Y011590D01*
X005954D01*
Y011615D01*
X005979D01*
Y011666D01*
X005954D01*
Y011692D01*
X005903D01*
Y011666D01*
X005878D01*
Y011615D01*
X005903D01*
X005776Y011453D02*
X005801Y011504D01*
X005776Y011554D01*
X005827Y011529D01*
X005878Y011554D01*
X005852Y011504D01*
X005878Y011453D01*
X005827Y011478D01*
X005776Y011453D01*
X005753Y011519D02*
X005702Y011621D01*
X005804D01*
X005753Y011519D01*
X005674Y011595D02*
X005700Y011621D01*
X005725D01*
X005700Y011646D01*
X005725Y011671D01*
X005700D01*
X005674Y011697D01*
X005649Y011671D01*
X005624D01*
X005649Y011646D01*
X005624Y011621D01*
X005649D01*
X005674Y011595D01*
X005611Y011504D02*
Y011478D01*
X005662D01*
Y011504D01*
X005687D01*
Y011554D01*
X005662D01*
Y011580D01*
X005611D01*
Y011554D01*
X005585D01*
Y011504D01*
X005611D01*
X005410Y013183D02*
X005436D01*
X005461Y013208D01*
X005486Y013183D01*
X005512D01*
Y013208D01*
X005486Y013233D01*
X005512Y013259D01*
Y013284D01*
X005486D01*
X005461Y013259D01*
X005436Y013284D01*
X005410D01*
Y013259D01*
X005436Y013233D01*
X005410Y013208D01*
Y013183D01*
X006469Y008362D02*
X006519Y008413D01*
X006570Y008362D01*
X006519Y008312D01*
X006469Y008362D01*
X006723D02*
X006773Y008413D01*
X006824Y008362D01*
X006773Y008312D01*
X006723Y008362D01*
X006469Y008108D02*
X006519Y008159D01*
X006570Y008108D01*
X006519Y008058D01*
X006469Y008108D01*
X006723D02*
X006773Y008159D01*
X006824Y008108D01*
X006773Y008058D01*
X006723Y008108D01*
X006469Y007854D02*
X006519Y007905D01*
X006570Y007854D01*
X006519Y007804D01*
X006469Y007854D01*
X006723D02*
X006773Y007905D01*
X006824Y007854D01*
X006773Y007804D01*
X006723Y007854D01*
X013360Y009881D02*
X013411Y009931D01*
X013462Y009881D01*
X013411Y009830D01*
X013360Y009881D01*
Y010135D02*
X013411Y010185D01*
X013462Y010135D01*
X013411Y010084D01*
X013360Y010135D01*
Y010389D02*
X013411Y010439D01*
X013462Y010389D01*
X013411Y010338D01*
X013360Y010389D01*
Y010643D02*
X013411Y010693D01*
X013462Y010643D01*
X013411Y010592D01*
X013360Y010643D01*
Y010897D02*
X013411Y010947D01*
X013462Y010897D01*
X013411Y010846D01*
X013360Y010897D01*
Y011151D02*
X013411Y011201D01*
X013462Y011151D01*
X013411Y011100D01*
X013360Y011151D01*
Y011405D02*
X013411Y011455D01*
X013462Y011405D01*
X013411Y011354D01*
X013360Y011405D01*
Y011659D02*
X013411Y011709D01*
X013462Y011659D01*
X013411Y011608D01*
X013360Y011659D01*
X012598Y009881D02*
X012649Y009931D01*
X012700Y009881D01*
X012649Y009830D01*
X012598Y009881D01*
Y010135D02*
X012649Y010185D01*
X012700Y010135D01*
X012649Y010084D01*
X012598Y010135D01*
Y010389D02*
X012649Y010439D01*
X012700Y010389D01*
X012649Y010338D01*
X012598Y010389D01*
Y010643D02*
X012649Y010693D01*
X012700Y010643D01*
X012649Y010592D01*
X012598Y010643D01*
Y010897D02*
X012649Y010947D01*
X012700Y010897D01*
X012649Y010846D01*
X012598Y010897D01*
Y011151D02*
X012649Y011201D01*
X012700Y011151D01*
X012649Y011100D01*
X012598Y011151D01*
Y011405D02*
X012649Y011455D01*
X012700Y011405D01*
X012649Y011354D01*
X012598Y011405D01*
Y011659D02*
X012649Y011709D01*
X012700Y011659D01*
X012649Y011608D01*
X012598Y011659D01*
X012344Y011659D02*
X012395Y011709D01*
X012446Y011659D01*
X012395Y011608D01*
X012344Y011659D01*
X012090D02*
X012141Y011709D01*
X012192Y011659D01*
X012141Y011608D01*
X012090Y011659D01*
X011836D02*
X011887Y011709D01*
X011938Y011659D01*
X011887Y011608D01*
X011836Y011659D01*
X011582D02*
X011633Y011709D01*
X011684Y011659D01*
X011633Y011608D01*
X011582Y011659D01*
X011328D02*
X011379Y011709D01*
X011430Y011659D01*
X011379Y011608D01*
X011328Y011659D01*
X011074D02*
X011125Y011709D01*
X011176Y011659D01*
X011125Y011608D01*
X011074Y011659D01*
X010820D02*
X010871Y011709D01*
X010922Y011659D01*
X010871Y011608D01*
X010820Y011659D01*
X010566D02*
X010617Y011709D01*
X010668Y011659D01*
X010617Y011608D01*
X010566Y011659D01*
X012344Y010897D02*
X012395Y010947D01*
X012446Y010897D01*
X012395Y010846D01*
X012344Y010897D01*
X012090D02*
X012141Y010947D01*
X012192Y010897D01*
X012141Y010846D01*
X012090Y010897D01*
X011836D02*
X011887Y010947D01*
X011938Y010897D01*
X011887Y010846D01*
X011836Y010897D01*
X011582D02*
X011633Y010947D01*
X011684Y010897D01*
X011633Y010846D01*
X011582Y010897D01*
X011328D02*
X011379Y010947D01*
X011430Y010897D01*
X011379Y010846D01*
X011328Y010897D01*
X011074D02*
X011125Y010947D01*
X011176Y010897D01*
X011125Y010846D01*
X011074Y010897D01*
X010820D02*
X010871Y010947D01*
X010922Y010897D01*
X010871Y010846D01*
X010820Y010897D01*
X010566D02*
X010617Y010947D01*
X010668Y010897D01*
X010617Y010846D01*
X010566Y010897D01*
X009346Y013048D02*
X009295Y013149D01*
X009397D01*
X009346Y013048D01*
X006096Y012548D02*
X006045Y012649D01*
X006147D01*
X006096Y012548D01*
X006346Y013048D02*
X006295Y013149D01*
X006397D01*
X006346Y013048D01*
X006596Y012548D02*
X006545Y012649D01*
X006647D01*
X006596Y012548D01*
X006846Y013048D02*
X006795Y013149D01*
X006897D01*
X006846Y013048D01*
X007096Y012548D02*
X007045Y012649D01*
X007147D01*
X007096Y012548D01*
X007346Y013048D02*
X007295Y013149D01*
X007397D01*
X007346Y013048D01*
X007596Y012548D02*
X007545Y012649D01*
X007647D01*
X007596Y012548D01*
X007846Y013048D02*
X007795Y013149D01*
X007897D01*
X007846Y013048D01*
X008096Y012548D02*
X008045Y012649D01*
X008147D01*
X008096Y012548D01*
X008346Y013048D02*
X008295Y013149D01*
X008397D01*
X008346Y013048D01*
X008596Y012548D02*
X008545Y012649D01*
X008647D01*
X008596Y012548D01*
X008846Y013048D02*
X008795Y013149D01*
X008897D01*
X008846Y013048D01*
X009096Y012548D02*
X009045Y012649D01*
X009147D01*
X009096Y012548D01*
X009957Y013183D02*
X010008Y013233D01*
X010058Y013183D01*
X010008Y013132D01*
X009957Y013183D01*
X010211D02*
X010262Y013233D01*
X010312Y013183D01*
X010262Y013132D01*
X010211Y013183D01*
X010465D02*
X010516Y013233D01*
X010566Y013183D01*
X010516Y013132D01*
X010465Y013183D01*
X010719D02*
X010770Y013233D01*
X010820Y013183D01*
X010770Y013132D01*
X010719Y013183D01*
X010973D02*
X011024Y013233D01*
X011074Y013183D01*
X011024Y013132D01*
X010973Y013183D01*
X011227D02*
X011278Y013233D01*
X011328Y013183D01*
X011278Y013132D01*
X011227Y013183D01*
X011481D02*
X011532Y013233D01*
X011582Y013183D01*
X011532Y013132D01*
X011481Y013183D01*
X011735D02*
X011786Y013233D01*
X011836Y013183D01*
X011786Y013132D01*
X011735Y013183D01*
X011989D02*
X012040Y013233D01*
X012090Y013183D01*
X012040Y013132D01*
X011989Y013183D01*
X012243D02*
X012294Y013233D01*
X012344Y013183D01*
X012294Y013132D01*
X012243Y013183D01*
X012497D02*
X012548Y013233D01*
X012598Y013183D01*
X012548Y013132D01*
X012497Y013183D01*
X012751D02*
X012802Y013233D01*
X012852Y013183D01*
X012802Y013132D01*
X012751Y013183D01*
X009957Y013437D02*
X010008Y013487D01*
X010058Y013437D01*
X010008Y013386D01*
X009957Y013437D01*
X010211D02*
X010262Y013487D01*
X010312Y013437D01*
X010262Y013386D01*
X010211Y013437D01*
X010465D02*
X010516Y013487D01*
X010566Y013437D01*
X010516Y013386D01*
X010465Y013437D01*
X010719D02*
X010770Y013487D01*
X010820Y013437D01*
X010770Y013386D01*
X010719Y013437D01*
X010973D02*
X011024Y013487D01*
X011074Y013437D01*
X011024Y013386D01*
X010973Y013437D01*
X011227D02*
X011278Y013487D01*
X011328Y013437D01*
X011278Y013386D01*
X011227Y013437D01*
X011481D02*
X011532Y013487D01*
X011582Y013437D01*
X011532Y013386D01*
X011481Y013437D01*
X011735D02*
X011786Y013487D01*
X011836Y013437D01*
X011786Y013386D01*
X011735Y013437D01*
X011989D02*
X012040Y013487D01*
X012090Y013437D01*
X012040Y013386D01*
X011989Y013437D01*
X012243D02*
X012294Y013487D01*
X012344Y013437D01*
X012294Y013386D01*
X012243Y013437D01*
X012497D02*
X012548Y013487D01*
X012598Y013437D01*
X012548Y013386D01*
X012497Y013437D01*
X012751D02*
X012802Y013487D01*
X012852Y013437D01*
X012802Y013386D01*
X012751Y013437D01*
X010287Y011659D02*
X010338Y011709D01*
X010389Y011659D01*
X010338Y011608D01*
X010287Y011659D01*
X010033D02*
X010084Y011709D01*
X010135Y011659D01*
X010084Y011608D01*
X010033Y011659D01*
X009779D02*
X009830Y011709D01*
X009881Y011659D01*
X009830Y011608D01*
X009779Y011659D01*
X009525D02*
X009576Y011709D01*
X009627Y011659D01*
X009576Y011608D01*
X009525Y011659D01*
X009271D02*
X009322Y011709D01*
X009373Y011659D01*
X009322Y011608D01*
X009271Y011659D01*
X009017D02*
X009068Y011709D01*
X009119Y011659D01*
X009068Y011608D01*
X009017Y011659D01*
X008763D02*
X008814Y011709D01*
X008865Y011659D01*
X008814Y011608D01*
X008763Y011659D01*
X008509D02*
X008560Y011709D01*
X008611Y011659D01*
X008560Y011608D01*
X008509Y011659D01*
X010287Y010897D02*
X010338Y010947D01*
X010389Y010897D01*
X010338Y010846D01*
X010287Y010897D01*
X010033D02*
X010084Y010947D01*
X010135Y010897D01*
X010084Y010846D01*
X010033Y010897D01*
X009779D02*
X009830Y010947D01*
X009881Y010897D01*
X009830Y010846D01*
X009779Y010897D01*
X009525D02*
X009576Y010947D01*
X009627Y010897D01*
X009576Y010846D01*
X009525Y010897D01*
X009271D02*
X009322Y010947D01*
X009373Y010897D01*
X009322Y010846D01*
X009271Y010897D01*
X009017D02*
X009068Y010947D01*
X009119Y010897D01*
X009068Y010846D01*
X009017Y010897D01*
X008763D02*
X008814Y010947D01*
X008865Y010897D01*
X008814Y010846D01*
X008763Y010897D01*
X008509D02*
X008560Y010947D01*
X008611Y010897D01*
X008560Y010846D01*
X008509Y010897D01*
X005410Y007950D02*
X005436D01*
X005461Y007976D01*
X005486Y007950D01*
X005512D01*
Y007976D01*
X005486Y008001D01*
X005512Y008026D01*
Y008052D01*
X005486D01*
X005461Y008026D01*
X005436Y008052D01*
X005410D01*
Y008026D01*
X005436Y008001D01*
X005410Y007976D01*
Y007950D01*
X014656Y013183D02*
X014681D01*
X014707Y013208D01*
X014732Y013183D01*
X014757D01*
Y013208D01*
X014732Y013233D01*
X014757Y013259D01*
Y013284D01*
X014732D01*
X014707Y013259D01*
X014681Y013284D01*
X014656D01*
Y013259D01*
X014681Y013233D01*
X014656Y013208D01*
Y013183D01*
Y007950D02*
X014681D01*
X014707Y007976D01*
X014732Y007950D01*
X014757D01*
Y007976D01*
X014732Y008001D01*
X014757Y008026D01*
Y008052D01*
X014732D01*
X014707Y008026D01*
X014681Y008052D01*
X014656D01*
Y008026D01*
X014681Y008001D01*
X014656Y007976D01*
Y007950D01*
X014072Y009471D02*
X014021Y009573D01*
X014122D01*
X014072Y009471D01*
X014572Y009721D02*
X014521Y009823D01*
X014622D01*
X014572Y009721D01*
X014072Y009971D02*
X014021Y010073D01*
X014122D01*
X014072Y009971D01*
X014572Y010221D02*
X014521Y010323D01*
X014622D01*
X014572Y010221D01*
X014072Y010471D02*
X014021Y010573D01*
X014122D01*
X014072Y010471D01*
X014572Y010721D02*
X014521Y010823D01*
X014622D01*
X014572Y010721D01*
X014072Y010971D02*
X014021Y011073D01*
X014122D01*
X014072Y010971D01*
X014572Y011221D02*
X014521Y011323D01*
X014622D01*
X014572Y011221D01*
X014072Y011471D02*
X014021Y011573D01*
X014122D01*
X014072Y011471D01*
X014572Y011721D02*
X014521Y011823D01*
X014622D01*
X014572Y011721D01*
X014072Y011971D02*
X014021Y012073D01*
X014122D01*
X014072Y011971D01*
X014572Y012221D02*
X014521Y012323D01*
X014622D01*
X014572Y012221D01*
X014072Y012471D02*
X014021Y012573D01*
X014122D01*
X014072Y012471D01*
X014572Y009221D02*
X014521Y009323D01*
X014622D01*
X014572Y009221D01*
X012421Y008814D02*
Y008915D01*
X012522D01*
Y008814D01*
X012421D01*
X012441Y008834D02*
Y008895D01*
X012502D01*
Y008834D01*
X012441D01*
X005869Y008282D02*
Y008384D01*
X005971D01*
Y008282D01*
X005869D01*
X005890Y008303D02*
Y008363D01*
X005950D01*
Y008303D01*
X005890D01*
X005869Y009549D02*
Y009650D01*
X005971D01*
Y009549D01*
X005869D01*
X005890Y009569D02*
Y009630D01*
X005950D01*
Y009569D01*
X005890D01*
X009296Y008922D02*
Y009023D01*
X009398D01*
Y008922D01*
X009296D01*
X009317Y008942D02*
Y009003D01*
X009378D01*
Y008942D01*
X009317D01*
X008814Y009373D02*
Y009474D01*
X008915D01*
Y009373D01*
X008814D01*
X008834Y009393D02*
Y009454D01*
X008895D01*
Y009393D01*
X008834D01*
X009322Y009652D02*
Y009754D01*
X009423D01*
Y009652D01*
X009322D01*
X009342Y009672D02*
Y009733D01*
X009403D01*
Y009672D01*
X009342D01*
X009423Y009550D02*
Y009652D01*
X009525D01*
Y009550D01*
X009423D01*
X009444Y009571D02*
Y009632D01*
X009505D01*
Y009571D01*
X009444D01*
X009627Y009550D02*
Y009652D01*
X009728D01*
Y009550D01*
X009627D01*
X009647Y009571D02*
Y009632D01*
X009708D01*
Y009571D01*
X009647D01*
X009525Y009461D02*
Y009563D01*
X009627D01*
Y009461D01*
X009525D01*
X009545Y009482D02*
Y009543D01*
X009606D01*
Y009482D01*
X009545D01*
X009728Y009457D02*
Y009558D01*
X009830D01*
Y009457D01*
X009728D01*
X009749Y009477D02*
Y009538D01*
X009809D01*
Y009477D01*
X009749D01*
X009728Y009009D02*
Y009111D01*
X009830D01*
Y009009D01*
X009728D01*
X009749Y009030D02*
Y009091D01*
X009809D01*
Y009030D01*
X009749D01*
X009627Y008880D02*
Y008981D01*
X009728D01*
Y008880D01*
X009627D01*
X009647Y008900D02*
Y008961D01*
X009708D01*
Y008900D01*
X009647D01*
X009195Y007877D02*
Y007979D01*
X009296D01*
Y007877D01*
X009195D01*
X009215Y007897D02*
Y007958D01*
X009276D01*
Y007897D01*
X009215D01*
X007307Y010499D02*
Y010600D01*
X007408D01*
Y010499D01*
X007307D01*
X007327Y010519D02*
Y010580D01*
X007388D01*
Y010519D01*
X007327D01*
X008213Y010236D02*
Y010338D01*
X008314D01*
Y010236D01*
X008213D01*
X008233Y010257D02*
Y010317D01*
X008294D01*
Y010257D01*
X008233D01*
X008278Y008841D02*
Y008943D01*
X008380D01*
Y008841D01*
X008278D01*
X008299Y008862D02*
Y008922D01*
X008359D01*
Y008862D01*
X008299D01*
X008691Y009800D02*
Y009902D01*
X008793D01*
Y009800D01*
X008691D01*
X008711Y009821D02*
Y009881D01*
X008772D01*
Y009821D01*
X008711D01*
X007866Y008133D02*
Y008235D01*
X007967D01*
Y008133D01*
X007866D01*
X007886Y008154D02*
Y008215D01*
X007947D01*
Y008154D01*
X007886D01*
X006426Y008992D02*
Y009093D01*
X006528D01*
Y008992D01*
X006426D01*
X006447Y009012D02*
Y009073D01*
X006507D01*
Y009012D01*
X006447D01*
X007155Y009478D02*
Y009580D01*
X007256D01*
Y009478D01*
X007155D01*
X007175Y009498D02*
Y009559D01*
X007236D01*
Y009498D01*
X007175D01*
X007243Y008213D02*
Y008314D01*
X007345D01*
Y008213D01*
X007243D01*
X007264Y008233D02*
Y008294D01*
X007325D01*
Y008233D01*
X007264D01*
X008915Y009728D02*
Y009830D01*
X009017D01*
Y009728D01*
X008915D01*
X008936Y009749D02*
Y009809D01*
X008997D01*
Y009749D01*
X008936D01*
X007214Y008077D02*
Y008179D01*
X007315D01*
Y008077D01*
X007214D01*
X007234Y008098D02*
Y008158D01*
X007295D01*
Y008098D01*
X007234D01*
X009042Y009931D02*
Y010033D01*
X009144D01*
Y009931D01*
X009042D01*
X009063Y009952D02*
Y010013D01*
X009124D01*
Y009952D01*
X009063D01*
X007315Y007976D02*
Y008077D01*
X007417D01*
Y007976D01*
X007315D01*
X007336Y007996D02*
Y008057D01*
X007396D01*
Y007996D01*
X007336D01*
X007798Y007874D02*
Y007976D01*
X007899D01*
Y007874D01*
X007798D01*
X007818Y007894D02*
Y007955D01*
X007879D01*
Y007894D01*
X007818D01*
X009220Y009017D02*
Y009119D01*
X009322D01*
Y009017D01*
X009220D01*
X009241Y009037D02*
Y009098D01*
X009301D01*
Y009037D01*
X009241D01*
X009042Y009373D02*
Y009474D01*
X009144D01*
Y009373D01*
X009042D01*
X009063Y009393D02*
Y009454D01*
X009124D01*
Y009393D01*
X009063D01*
X012548Y009017D02*
Y009119D01*
X012649D01*
Y009017D01*
X012548D01*
X012568Y009037D02*
Y009098D01*
X012629D01*
Y009037D01*
X012568D01*
X008814Y010211D02*
Y010312D01*
X008915D01*
Y010211D01*
X008814D01*
X008834Y010231D02*
Y010292D01*
X008895D01*
Y010231D01*
X008834D01*
X008915Y010338D02*
Y010439D01*
X009017D01*
Y010338D01*
X008915D01*
X008936Y010358D02*
Y010419D01*
X008997D01*
Y010358D01*
X008936D01*
X010287Y010211D02*
Y010312D01*
X010389D01*
Y010211D01*
X010287D01*
X010307Y010231D02*
Y010292D01*
X010368D01*
Y010231D01*
X010307D01*
X006985Y010643D02*
Y010744D01*
X007087D01*
Y010643D01*
X006985D01*
X007005Y010663D02*
Y010724D01*
X007066D01*
Y010663D01*
X007005D01*
X006596Y010118D02*
Y010219D01*
X006697D01*
Y010118D01*
X006596D01*
X006616Y010138D02*
Y010199D01*
X006677D01*
Y010138D01*
X006616D01*
X007224Y009764D02*
Y009865D01*
X007325D01*
Y009764D01*
X007224D01*
X007244Y009784D02*
Y009845D01*
X007305D01*
Y009784D01*
X007244D01*
X007696Y009068D02*
Y009169D01*
X007798D01*
Y009068D01*
X007696D01*
X007717Y009088D02*
Y009149D01*
X007777D01*
Y009088D01*
X007717D01*
X007798Y009754D02*
Y009855D01*
X007899D01*
Y009754D01*
X007798D01*
X007818Y009774D02*
Y009835D01*
X007879D01*
Y009774D01*
X007818D01*
X007304Y009054D02*
Y009155D01*
X007405D01*
Y009054D01*
X007304D01*
X007324Y009074D02*
Y009135D01*
X007385D01*
Y009074D01*
X007324D01*
X007304Y009333D02*
Y009435D01*
X007405D01*
Y009333D01*
X007304D01*
X007324Y009354D02*
Y009414D01*
X007385D01*
Y009354D01*
X007324D01*
X009525Y009017D02*
Y009119D01*
X009627D01*
Y009017D01*
X009525D01*
X009545Y009037D02*
Y009098D01*
X009606D01*
Y009037D01*
X009545D01*
X006190Y008755D02*
Y008857D01*
X006292D01*
Y008755D01*
X006190D01*
X006210Y008776D02*
Y008837D01*
X006271D01*
Y008776D01*
X006210D01*
X007468Y009058D02*
Y009160D01*
X007569D01*
Y009058D01*
X007468D01*
X007488Y009079D02*
Y009140D01*
X007549D01*
Y009079D01*
X007488D01*
D66*
X005867Y011806D02*
G03*
X005867Y011806I-000051J000000D01*
G01*
X006027Y011753D02*
G03*
X006027Y011753I-000051J000000D01*
G01*
X005697Y011758D02*
G03*
X005697Y011758I-000051J000000D01*
G01*
X005761Y011501D02*
G03*
X005761Y011501I-000051J000000D01*
G01*
X006012Y011567D02*
G03*
X006012Y011567I-000051J000000D01*
G01*
X006007Y011504D02*
G03*
X006007Y011504I-000051J000000D01*
G01*
X005654Y011610D02*
G03*
X005654Y011610I-000051J000000D01*
G01*
X005806Y011659D02*
G03*
X005806Y011659I-000051J000000D01*
G01*
X005893Y011598D02*
G03*
X005893Y011598I-000051J000000D01*
G01*
X005875Y011656D02*
G03*
X005875Y011656I-000051J000000D01*
G01*
M02*
