%FSAX42Y42*%
%MOMM*%
G71*
G01*
G75*
G04 Layer_Physical_Order=1*
G04 Layer_Color=255*
%ADD10R,1.30X1.05*%
%ADD11R,0.80X0.90*%
%ADD12O,0.55X1.75*%
%ADD13O,1.75X0.55*%
%ADD14R,0.90X0.80*%
%ADD15R,2.20X2.50*%
%ADD16R,2.00X0.50*%
%ADD17R,0.90X1.00*%
%ADD18C,0.51*%
%ADD19C,0.25*%
%ADD20C,0.60*%
%ADD21C,0.40*%
%ADD22C,1.00*%
%ADD23C,0.70*%
%ADD24C,0.50*%
%ADD25C,0.80*%
%ADD26C,5.89*%
%ADD27R,1.50X1.50*%
%ADD28C,1.50*%
%ADD29R,1.50X1.50*%
%ADD30C,1.50*%
%ADD31R,1.50X1.50*%
%ADD32C,1.75*%
%ADD33R,1.50X1.50*%
%ADD34C,1.02*%
G36*
X005711Y011898D02*
X005712Y011896D01*
X005782Y011872D01*
X005977Y011797D01*
X006168Y011713D01*
X006167Y011712D01*
Y011458D01*
X005558D01*
Y011712D01*
X006167D01*
X005557Y011712D01*
X005579Y011756D01*
X005611Y011805D01*
X005650Y011848D01*
X005693Y011887D01*
X005711Y011898D01*
X005711Y011898D01*
D02*
G37*
D10*
X007730Y008369D02*
D03*
Y008184D02*
D03*
X007500D02*
D03*
Y008369D02*
D03*
D11*
X006649Y009550D02*
D03*
X006509D02*
D03*
X006649Y009703D02*
D03*
X006509D02*
D03*
X008621Y009851D02*
D03*
X008481D02*
D03*
X008143Y010287D02*
D03*
X008003D02*
D03*
X008490Y009271D02*
D03*
X008630D02*
D03*
X007682Y008530D02*
D03*
X007542D02*
D03*
Y008009D02*
D03*
X007682D02*
D03*
X007131Y008378D02*
D03*
X006991D02*
D03*
D12*
X007195Y010014D02*
D03*
X007275D02*
D03*
X007355D02*
D03*
X007435D02*
D03*
X007515D02*
D03*
X007595D02*
D03*
X007675D02*
D03*
X007755D02*
D03*
X007835D02*
D03*
X007915D02*
D03*
X007995D02*
D03*
Y008884D02*
D03*
X007915D02*
D03*
X007835D02*
D03*
X007755D02*
D03*
X007675D02*
D03*
X007595D02*
D03*
X007515D02*
D03*
X007435D02*
D03*
X007355D02*
D03*
X007275D02*
D03*
X007195D02*
D03*
D13*
X008160Y009849D02*
D03*
Y009769D02*
D03*
Y009689D02*
D03*
Y009609D02*
D03*
Y009529D02*
D03*
Y009449D02*
D03*
Y009369D02*
D03*
Y009289D02*
D03*
Y009209D02*
D03*
Y009129D02*
D03*
Y009049D02*
D03*
X007030D02*
D03*
Y009129D02*
D03*
Y009209D02*
D03*
Y009289D02*
D03*
Y009369D02*
D03*
Y009449D02*
D03*
Y009529D02*
D03*
Y009609D02*
D03*
Y009689D02*
D03*
Y009769D02*
D03*
Y009849D02*
D03*
D14*
X008628Y009032D02*
D03*
Y008892D02*
D03*
X008475Y008892D02*
D03*
Y009032D02*
D03*
X006629Y009316D02*
D03*
Y009176D02*
D03*
X006477Y009176D02*
D03*
Y009316D02*
D03*
X006646Y009887D02*
D03*
Y010027D02*
D03*
X007193Y010429D02*
D03*
Y010289D02*
D03*
X007358Y010429D02*
D03*
Y010289D02*
D03*
X007294Y008384D02*
D03*
Y008524D02*
D03*
X010135Y012605D02*
D03*
Y012745D02*
D03*
X012675Y012745D02*
D03*
Y012605D02*
D03*
X012548Y012364D02*
D03*
Y012224D02*
D03*
X012294Y012364D02*
D03*
Y012224D02*
D03*
X012167Y012605D02*
D03*
Y012745D02*
D03*
X012040Y012364D02*
D03*
Y012224D02*
D03*
X011913Y012605D02*
D03*
Y012745D02*
D03*
X011786Y012364D02*
D03*
Y012224D02*
D03*
X011659Y012605D02*
D03*
Y012745D02*
D03*
X011532Y012364D02*
D03*
Y012224D02*
D03*
X011405Y012605D02*
D03*
Y012745D02*
D03*
X011278Y012364D02*
D03*
Y012224D02*
D03*
X011151Y012605D02*
D03*
Y012745D02*
D03*
X011024Y012364D02*
D03*
Y012224D02*
D03*
X010897Y012605D02*
D03*
Y012745D02*
D03*
X010770Y012364D02*
D03*
Y012224D02*
D03*
X010643Y012605D02*
D03*
Y012745D02*
D03*
X010516Y012364D02*
D03*
Y012224D02*
D03*
X010389Y012605D02*
D03*
Y012745D02*
D03*
X010262Y012364D02*
D03*
Y012224D02*
D03*
X012421Y012605D02*
D03*
Y012745D02*
D03*
D15*
X005390Y009386D02*
D03*
Y008546D02*
D03*
X005920D02*
D03*
Y009386D02*
D03*
D16*
X005945Y008806D02*
D03*
Y008886D02*
D03*
Y008966D02*
D03*
Y009046D02*
D03*
Y009126D02*
D03*
D17*
X008685Y007921D02*
D03*
X009095D02*
D03*
Y008081D02*
D03*
X008685D02*
D03*
D18*
X006426Y009550D02*
X006426Y009550D01*
X006509D01*
X006375Y009550D02*
X006426D01*
X006312Y009487D02*
X006375Y009550D01*
X006312Y009055D02*
Y009487D01*
X005945Y008966D02*
X006223D01*
X006426Y009620D02*
X006509Y009703D01*
X006356Y009620D02*
X006426D01*
X006248Y009513D02*
X006356Y009620D01*
X006248Y009081D02*
Y009513D01*
X005945Y009046D02*
X006213D01*
X006223Y008966D02*
X006312Y009055D01*
X006213Y009046D02*
X006248Y009081D01*
X005945Y008806D02*
X006241D01*
X006745Y009689D02*
X007030D01*
X006731Y009703D02*
X006745Y009689D01*
X006649Y009703D02*
X006731D01*
X006789Y009609D02*
X007030D01*
X006731Y009550D02*
X006789Y009609D01*
X006649Y009550D02*
X006731D01*
X006121Y009550D02*
X006458Y009887D01*
X006121Y009169D02*
Y009550D01*
X006078Y009126D02*
X006121Y009169D01*
X005945Y009126D02*
X006078D01*
X012395Y009474D02*
X013462D01*
X012649D02*
Y009857D01*
X006458Y009887D02*
X006646D01*
X006764Y009769D01*
X006773Y008362D02*
X006789Y008378D01*
X006991D01*
X006683Y009369D02*
X007030D01*
X006629Y009316D02*
X006683Y009369D01*
X007193Y010289D02*
X007195Y010287D01*
X007355Y010014D02*
X007358Y010017D01*
X007995Y010014D02*
Y010279D01*
X008003Y010287D01*
X007294Y008524D02*
Y008615D01*
X007355Y008675D01*
Y008884D01*
X008160Y009129D02*
X008378D01*
X008475Y009032D01*
X012548Y013437D02*
X012631D01*
X012752Y013316D01*
X012922D01*
X013792Y012446D01*
Y009804D02*
Y012446D01*
X013462Y009474D02*
X013792Y009804D01*
X012395Y009474D02*
Y010897D01*
Y009474D02*
X012395Y009474D01*
X011125D02*
X012395D01*
X010338Y010262D02*
X011125Y009474D01*
X006764Y009769D02*
X007030D01*
X006680Y010693D02*
X007036D01*
X006458Y009887D02*
Y010471D01*
X007195Y010014D02*
Y010185D01*
Y010287D01*
Y010185D02*
X007358D01*
Y010017D02*
Y010185D01*
Y010289D01*
X006966Y010185D02*
X007195D01*
X006458Y010471D02*
X006569Y010582D01*
X006680Y010693D01*
X006569Y010582D02*
X006966Y010185D01*
X008016Y009129D02*
X008160D01*
X007995Y009150D02*
X008016Y009129D01*
X007995Y009150D02*
Y009576D01*
Y010014D01*
X007355Y008884D02*
Y009105D01*
X007030Y009369D02*
X007339D01*
X007355Y009384D01*
X007030Y009769D02*
X007148D01*
X007341Y009576D01*
X007995D01*
X007355Y009384D02*
Y009562D01*
X007341Y009576D02*
X007355Y009562D01*
D19*
X009957Y008865D02*
X012471D01*
X013231Y011330D02*
X013411Y011151D01*
X013538Y010770D02*
X013640Y010668D01*
Y010236D02*
Y010668D01*
X013538Y010135D02*
X013640Y010236D01*
X013538Y010516D02*
X013589Y010465D01*
Y010312D02*
Y010465D01*
X013538Y010262D02*
X013589Y010312D01*
X013386Y010770D02*
X013538D01*
X013411Y010135D02*
X013538D01*
X013132Y011024D02*
X013386Y010770D01*
X013181Y011102D02*
X013386Y010897D01*
X013081Y010947D02*
X013386Y010643D01*
X013360Y010262D02*
X013538D01*
X013386Y010516D02*
X013538D01*
X012979Y010795D02*
X013386Y010389D01*
X012979Y010795D02*
Y011633D01*
X012649Y010135D02*
X012852D01*
X012929Y010211D01*
X013284Y010008D02*
X013411Y009881D01*
X013284Y010008D02*
Y010185D01*
X013030Y010871D02*
X013386Y010516D01*
X013284Y010185D02*
X013360Y010262D01*
X012929Y010211D02*
Y011582D01*
X010008Y012065D02*
Y013183D01*
X009931Y011989D02*
X010008Y012065D01*
X008407Y011989D02*
X009931D01*
X005390Y009386D02*
X005920D01*
X005390Y008546D02*
X005920D01*
Y008333D02*
Y008546D01*
Y009386D02*
Y009599D01*
X008814Y008738D02*
X009246Y009169D01*
X008287Y008738D02*
X008814D01*
X008020Y009004D02*
X008287Y008738D01*
X009246Y009169D02*
X014277D01*
X007987Y008636D02*
X009011D01*
X009347Y008973D01*
X009093Y008585D02*
X009576Y009068D01*
X007938Y008585D02*
X009093D01*
X008163Y009525D02*
X009169D01*
X009476Y009219D01*
X009373Y009703D02*
Y009820D01*
X009083Y010109D02*
X009373Y009820D01*
X008788Y010109D02*
X009083D01*
X009119Y010160D02*
X009474Y009804D01*
X008814Y010160D02*
X009119D01*
X009474Y009601D02*
Y009804D01*
X008945Y010008D02*
X009550Y009403D01*
X008932Y009957D02*
X009532Y009356D01*
X009550Y009403D02*
X013315D01*
X009532Y009356D02*
X014196D01*
X009576Y009512D02*
Y009957D01*
X008814Y010719D02*
X009576Y009957D01*
X009677Y009601D02*
Y010079D01*
X009779Y009508D02*
Y010363D01*
X009068Y010688D02*
X009677Y010079D01*
X014196Y009356D02*
X014249Y009410D01*
X009695Y009060D02*
X009779D01*
X009169Y008534D02*
X009695Y009060D01*
X009601Y010363D02*
X009779D01*
X009068Y010688D02*
Y010897D01*
X009230Y008484D02*
X009677Y008931D01*
X008712Y008484D02*
X009230D01*
X008738Y008433D02*
X009373D01*
X008763Y008382D02*
X009398D01*
X009373Y008433D02*
X010008Y009068D01*
X009398Y008382D02*
X009982Y008966D01*
X007218Y010550D02*
X007358D01*
X007193Y010524D02*
X007218Y010550D01*
X007193Y010429D02*
Y010524D01*
X007358Y010429D02*
Y010550D01*
X008162Y009851D02*
X008481D01*
X008481Y009851D02*
X008481Y009851D01*
X010617Y010770D02*
Y010897D01*
X009830Y010770D02*
Y010897D01*
X009347Y011379D02*
X010312D01*
X009195Y011532D02*
X009347Y011379D01*
X009195Y011532D02*
Y011786D01*
X009398Y011455D02*
X010084D01*
X009322Y011532D02*
X009398Y011455D01*
X009322Y011532D02*
Y011659D01*
X010871Y010617D02*
Y010897D01*
X011125Y010617D02*
Y010897D01*
X012725Y011786D02*
X012929Y011582D01*
X012776Y011836D02*
X012979Y011633D01*
X013030Y010871D02*
Y011684D01*
X012827Y011887D02*
X013030Y011684D01*
X010084Y010897D02*
X010744Y011557D01*
Y011913D01*
X012141Y010897D02*
Y011024D01*
X011836Y011328D02*
X012141Y011024D01*
X011481Y011328D02*
X011836D01*
X012268Y010795D02*
Y011278D01*
X012217Y010744D02*
X012268Y010795D01*
X011938Y010744D02*
X012217D01*
X011887Y010795D02*
X011938Y010744D01*
X012268Y011278D02*
X012649Y011659D01*
X012192Y011786D02*
X012725D01*
X012268Y011836D02*
X012776D01*
X012344Y011887D02*
X012827D01*
X012421Y011938D02*
X012878D01*
X012497Y011989D02*
X012929D01*
X012573Y012040D02*
X012979D01*
X012548Y012065D02*
X012573Y012040D01*
X012725Y012090D02*
X013030D01*
X012675Y012141D02*
X012725Y012090D01*
X012167Y011430D02*
X012395Y011659D01*
X011659Y011430D02*
X012167D01*
X012421Y012065D02*
X012497Y011989D01*
X012294Y012065D02*
X012421Y011938D01*
X012167Y012065D02*
X012344Y011887D01*
X012675Y012141D02*
Y012605D01*
X012548Y012065D02*
Y012224D01*
X012675Y013056D02*
X012802Y013183D01*
X012040Y012065D02*
X012268Y011836D01*
X011913Y012065D02*
X012192Y011786D01*
X012421Y012065D02*
Y012605D01*
X012294Y012065D02*
Y012224D01*
X012040Y012065D02*
Y012224D01*
X011913Y012065D02*
Y012605D01*
X012167Y012065D02*
Y012605D01*
X012040Y012364D02*
Y013183D01*
X011887Y011659D02*
Y011963D01*
X011786Y012065D02*
X011887Y011963D01*
X011786Y012065D02*
Y012224D01*
X011760Y011582D02*
Y011963D01*
Y011582D02*
X011836Y011506D01*
X009830Y011760D02*
X010135Y012065D01*
X009830Y011659D02*
Y011760D01*
X010262Y012065D02*
Y012224D01*
X009957Y011760D02*
X010262Y012065D01*
X009957Y011582D02*
Y011760D01*
X010084Y011760D02*
X010389Y012065D01*
X010084Y011659D02*
Y011760D01*
X010516Y012065D02*
Y012224D01*
X010211Y011760D02*
X010516Y012065D01*
X010211Y011582D02*
Y011760D01*
X010643Y012065D02*
Y012605D01*
X010338Y011760D02*
X010643Y012065D01*
X010338Y011659D02*
Y011760D01*
X011659Y012065D02*
X011760Y011963D01*
X011659Y012065D02*
Y012605D01*
X011252Y011557D02*
X011481Y011328D01*
X011252Y011557D02*
Y011963D01*
X011836Y011506D02*
X011989D01*
X012141Y011659D01*
X011506Y011582D02*
X011659Y011430D01*
X011125Y011659D02*
Y011963D01*
X011024Y012065D02*
X011125Y011963D01*
X011024Y012065D02*
Y012224D01*
X011151Y012065D02*
Y012605D01*
Y012065D02*
X011252Y011963D01*
X011633Y011659D02*
Y011963D01*
X011532Y012065D02*
X011633Y011963D01*
X011532Y012065D02*
Y012224D01*
X011506Y011582D02*
Y011963D01*
X011405Y012065D02*
X011506Y011963D01*
X011405Y012065D02*
Y012605D01*
X011379Y011659D02*
Y011963D01*
X011278Y012065D02*
X011379Y011963D01*
X011278Y012065D02*
Y012224D01*
X010084Y011455D02*
X010211Y011582D01*
X010312Y011379D02*
X010490Y011557D01*
X009906Y011532D02*
X009957Y011582D01*
X009754Y011532D02*
X009906D01*
X009703Y011582D02*
X009754Y011532D01*
X009703Y011582D02*
Y011811D01*
X009601Y011913D02*
X009703Y011811D01*
X009169Y011913D02*
X009601D01*
X009068Y011811D02*
X009169Y011913D01*
X009068Y011659D02*
Y011811D01*
X009195Y011786D02*
X009246Y011836D01*
X009525D01*
X009576Y011786D01*
Y011659D02*
Y011786D01*
X010770Y012065D02*
Y012224D01*
X010490Y011786D02*
X010770Y012065D01*
X010490Y011557D02*
Y011786D01*
X010744Y011913D02*
X010897Y012065D01*
Y012605D01*
X012421Y012745D02*
Y013310D01*
X012294Y013437D02*
X012421Y013310D01*
X012167Y012745D02*
Y013310D01*
X012040Y013437D02*
X012167Y013310D01*
X011913Y012745D02*
Y013310D01*
X011786Y013437D02*
X011913Y013310D01*
X011659Y012745D02*
Y013310D01*
X011532Y013437D02*
X011659Y013310D01*
X011405Y012745D02*
Y013310D01*
X011278Y013437D02*
X011405Y013310D01*
X011151Y012745D02*
Y013310D01*
X011024Y013437D02*
X011151Y013310D01*
X010897Y012745D02*
Y013310D01*
X010770Y013437D02*
X010897Y013310D01*
X010643Y012745D02*
Y013310D01*
X010516Y013437D02*
X010643Y013310D01*
X010389Y012745D02*
Y013310D01*
X010262Y013437D02*
X010389Y013310D01*
X010135Y012745D02*
Y013310D01*
X010008Y013437D02*
X010135Y013310D01*
X012548Y012364D02*
X012548Y012364D01*
X012294Y012364D02*
X012294Y012364D01*
X011786Y012364D02*
X011786Y012364D01*
X011532Y012364D02*
X011532Y012364D01*
X011278Y012364D02*
X011278Y012364D01*
X011024Y012364D02*
X011024Y012364D01*
X010770Y012364D02*
X010770Y012364D01*
X010516Y012364D02*
X010516Y012364D01*
X010262Y012364D02*
X010262Y012364D01*
X008621Y009851D02*
X008742D01*
X007542Y008473D02*
Y008530D01*
X007435Y010014D02*
X007441Y010021D01*
X008160Y009289D02*
X008163Y009292D01*
X007500Y008432D02*
X007542Y008473D01*
X008264Y010287D02*
Y010325D01*
X008143Y010287D02*
X008264D01*
X008160Y009049D02*
X008312D01*
X008329Y009032D01*
Y008892D02*
Y009032D01*
Y008892D02*
X008475D01*
X007675Y008747D02*
Y008884D01*
X007755Y008768D02*
Y008884D01*
X008475Y008892D02*
X008628D01*
X008475Y008892D02*
X008475Y008892D01*
X007515Y008687D02*
Y008884D01*
X007398Y008570D02*
X007515Y008687D01*
X009095Y007921D02*
X009239D01*
X009246Y007928D01*
X008685Y008081D02*
X009095D01*
X007294Y008264D02*
Y008384D01*
X006477Y009042D02*
Y009176D01*
Y009042D02*
X006604D01*
X007030Y009529D02*
X007206D01*
X006640Y010033D02*
X006646Y010027D01*
X010516Y012364D02*
Y013183D01*
X010770Y012364D02*
Y013183D01*
X011024Y012364D02*
Y013183D01*
X011278Y012364D02*
Y013183D01*
X011532Y012364D02*
Y013183D01*
X011786Y012364D02*
Y013183D01*
X012040Y013183D02*
X012040Y013183D01*
X012294Y012364D02*
Y013183D01*
X012548Y012364D02*
Y013183D01*
X012675Y012745D02*
Y013056D01*
X006604Y009042D02*
X006629Y009068D01*
Y009176D01*
X006731Y008941D02*
Y009093D01*
X006777Y008906D02*
Y009059D01*
X006833Y008872D02*
Y009038D01*
X006923Y009129D01*
X007030D01*
X006883Y008835D02*
Y009013D01*
X006919Y009049D01*
X007030D01*
X008160Y009449D02*
X008839D01*
X008160Y009529D02*
X008163Y009525D01*
X006416Y008108D02*
X006519D01*
X006325Y008200D02*
X006416Y008108D01*
X006274Y008484D02*
X006731Y008941D01*
X006325Y008200D02*
Y008454D01*
X006777Y008906D01*
X006375Y008415D02*
X006833Y008872D01*
X006519Y008362D02*
Y008471D01*
X006883Y008835D01*
X008685Y007921D02*
X009095D01*
X007682Y008009D02*
Y008067D01*
X007730Y008115D01*
Y008184D01*
X007916D01*
X006274Y007874D02*
Y008484D01*
X006656Y008225D02*
X006773Y008108D01*
X006452Y008225D02*
X006656D01*
X006375Y008302D02*
X006452Y008225D01*
X006375Y008302D02*
Y008415D01*
X007685Y008184D02*
X007730D01*
X007500Y008369D02*
Y008432D01*
X007398Y008287D02*
Y008570D01*
Y008287D02*
X007500Y008184D01*
Y008121D02*
Y008184D01*
Y008121D02*
X007542Y008080D01*
Y008009D02*
Y008080D01*
X007500Y008369D02*
X007685Y008184D01*
X007915Y008773D02*
Y008884D01*
X007835Y008789D02*
Y008884D01*
X008160Y009369D02*
X008741D01*
X008160Y009289D02*
X008313D01*
X008331Y009271D01*
X008490D01*
X008630Y009034D02*
Y009271D01*
X008628Y009032D02*
X008630Y009034D01*
X008839Y009449D02*
X008865Y009423D01*
X008161Y009767D02*
X008954D01*
X008966Y009779D01*
X010389Y012065D02*
Y012605D01*
X010262Y012364D02*
Y013183D01*
X010135Y012065D02*
Y012605D01*
X007835Y010014D02*
Y010298D01*
X007925Y010389D01*
X007755Y010014D02*
Y010295D01*
X007899Y010439D01*
X007264Y007849D02*
Y008128D01*
X007595Y008725D02*
Y008884D01*
X007682Y008473D02*
Y008530D01*
Y008638D01*
X007595Y008725D02*
X007682Y008638D01*
Y008473D02*
X007730Y008424D01*
Y008369D02*
Y008424D01*
X008741Y009369D02*
X008814Y009296D01*
X009017Y010058D02*
X009093Y009982D01*
X007915Y008773D02*
X008001Y008687D01*
X008814Y010719D02*
Y010897D01*
X009322Y010643D02*
Y010897D01*
Y010643D02*
X009601Y010363D01*
X011379Y010617D02*
Y010897D01*
X009068D02*
Y010998D01*
X009601Y011100D02*
X009703Y010998D01*
X008814Y010897D02*
X009017Y011100D01*
X009398Y011024D02*
X009449Y010973D01*
X009068Y010998D02*
X009093Y011024D01*
X009017Y011100D02*
X009601D01*
X009093Y011024D02*
X009398D01*
X009449Y010643D02*
Y010973D01*
X008559Y008077D02*
X008681D01*
X008685Y008081D01*
X009703Y010693D02*
Y010998D01*
X007366Y007874D02*
Y008026D01*
X008204Y007722D02*
X008458Y007975D01*
X006519Y007854D02*
X006652Y007722D01*
X006274Y007874D02*
X006477Y007671D01*
X007264Y007849D02*
X007341Y007772D01*
X007366Y007874D02*
X007417Y007823D01*
X007341Y007772D02*
X008153D01*
X007417Y007823D02*
X008128D01*
X008160Y009609D02*
X009150D01*
X008160Y009689D02*
X009135D01*
X008001Y008687D02*
X008890D01*
X009271Y009068D01*
X008814Y009296D02*
X008966D01*
X009093Y009423D01*
X007835Y008789D02*
X007987Y008636D01*
X007755Y008768D02*
X007938Y008585D01*
X007675Y008747D02*
X007887Y008534D01*
X007849Y007925D02*
X008153D01*
X008712Y008484D01*
X007887Y008534D02*
X009169D01*
X008128Y007823D02*
X008738Y008433D01*
X008153Y007772D02*
X008763Y008382D01*
X006477Y007671D02*
X009169D01*
X008458Y007975D02*
Y007975D01*
X008559Y008077D01*
X006652Y007722D02*
X007131D01*
X008204D01*
X007131D02*
Y008378D01*
X014199Y010399D02*
X014572Y010772D01*
X014300Y010001D02*
X014572Y010272D01*
Y011272D02*
X014707Y011137D01*
Y010617D02*
Y011137D01*
X014249Y010160D02*
X014707Y010617D01*
X014572Y011772D02*
X014757Y011586D01*
Y010211D02*
Y011586D01*
X014351Y009804D02*
X014757Y010211D01*
X014808Y010197D02*
Y012036D01*
X014572Y012272D02*
X014808Y012036D01*
X007747Y012999D02*
X007846Y013098D01*
X008915Y012668D02*
X009346Y013098D01*
X008735Y009957D02*
X008932D01*
X008749Y010008D02*
X008945D01*
X008763Y010058D02*
X009017D01*
X008846Y012605D02*
Y013098D01*
X007899Y011659D02*
X008846Y012605D01*
X007823Y011659D02*
X008346Y012181D01*
Y013098D01*
X008915Y012598D02*
Y012668D01*
X007675Y010014D02*
Y011655D01*
X007346Y011983D02*
Y013098D01*
Y011983D02*
X007675Y011655D01*
X007096Y012157D02*
Y012598D01*
Y012157D02*
X007595Y011659D01*
Y010014D02*
Y011659D01*
X006846Y012306D02*
Y013098D01*
Y012306D02*
X007515Y011637D01*
Y010014D02*
Y011637D01*
X006596Y012479D02*
Y012598D01*
Y012479D02*
X007441Y011634D01*
Y010021D02*
Y011634D01*
X008865Y010389D02*
X008966D01*
X007976Y011659D02*
X008915Y012598D01*
X007925Y010389D02*
X008303D01*
X008735Y009957D01*
X007899Y010439D02*
X008317D01*
X008749Y010008D01*
X007747Y011074D02*
Y012999D01*
X007823Y011074D02*
Y011659D01*
X007899Y011074D02*
Y011659D01*
X007747Y011074D02*
X008763Y010058D01*
X007823Y011074D02*
X008788Y010109D01*
X007899Y011074D02*
X008814Y010160D01*
X007976Y011151D02*
Y011659D01*
Y011151D02*
X008865Y010262D01*
X008052Y011201D02*
Y011633D01*
Y011201D02*
X008865Y010389D01*
X008052Y011633D02*
X008407Y011989D01*
X007025Y009453D02*
X007030Y009449D01*
X006477Y009316D02*
X006614Y009453D01*
X007025D01*
X006777Y009059D02*
X006927Y009209D01*
X007030D01*
X006731Y009093D02*
X006927Y009289D01*
X007030D01*
X009169Y007671D02*
X009449Y007950D01*
Y008357D01*
X009957Y008865D01*
X007131Y008378D02*
Y008575D01*
X007275Y008718D01*
Y008884D01*
X012878Y011938D02*
X013081Y011735D01*
Y010947D02*
Y011735D01*
X013132Y011024D02*
Y011786D01*
X013231Y011330D02*
Y011889D01*
X012929Y011989D02*
X013132Y011786D01*
X012979Y012040D02*
X013181Y011838D01*
Y011102D02*
Y011838D01*
X013030Y012090D02*
X013231Y011889D01*
X014266Y008966D02*
X014572Y009272D01*
X014402Y009791D02*
X014808Y010197D01*
X014453Y009345D02*
Y009653D01*
X014572Y009772D01*
X014402Y009359D02*
Y009791D01*
X014351Y009373D02*
Y009804D01*
X014300Y009396D02*
Y010001D01*
X014249Y009410D02*
Y010160D01*
X014199Y009423D02*
Y010399D01*
X014177Y009402D02*
X014199Y009423D01*
X013315Y009403D02*
X013316Y009402D01*
X014177D01*
X011887Y010795D02*
Y010897D01*
X011125Y010363D02*
X011379Y010617D01*
X009779Y010363D02*
X011125D01*
X010973Y010465D02*
X011125Y010617D01*
X009449Y010643D02*
X009627Y010465D01*
X010973D01*
X010820Y010566D02*
X010871Y010617D01*
X009703Y010693D02*
X009830Y010566D01*
X010820D01*
X010566Y010719D02*
X010617Y010770D01*
X009830Y010770D02*
X009881Y010719D01*
X010566D01*
X009982Y008966D02*
X014266D01*
X010008Y009068D02*
X012598D01*
X014277Y009169D02*
X014453Y009345D01*
X014262Y009219D02*
X014402Y009359D01*
X014243Y009265D02*
X014351Y009373D01*
X014215Y009310D02*
X014300Y009396D01*
X006646Y010027D02*
Y010168D01*
X007275Y009815D02*
Y010014D01*
X008158Y009050D02*
X008160Y009049D01*
X007747Y009119D02*
X007816Y009050D01*
X007915Y009870D02*
Y010014D01*
X007849Y009804D02*
X007915Y009870D01*
X007816Y009050D02*
X008158D01*
X007734Y009004D02*
X008020D01*
X007645Y009093D02*
X007734Y009004D01*
X007645Y009093D02*
Y009169D01*
X007569Y009246D02*
X007645Y009169D01*
X007195Y008884D02*
Y009125D01*
X007315Y009246D01*
X007569D01*
X009135Y009689D02*
X009513Y009310D01*
X014215D01*
X009150Y009609D02*
X009495Y009265D01*
X014243D01*
X009476Y009219D02*
X014262D01*
X007435Y008884D02*
Y009025D01*
X007518Y009109D01*
D20*
X005878Y011765D02*
D03*
X005895Y011542D02*
D03*
D21*
X005817Y011806D02*
D03*
X005977Y011753D02*
D03*
X005646Y011758D02*
D03*
X005710Y011501D02*
D03*
X005961Y011567D02*
D03*
X005956Y011504D02*
D03*
X005603Y011610D02*
D03*
X005756Y011659D02*
D03*
X005842Y011598D02*
D03*
X005824Y011656D02*
D03*
D22*
X005725Y011801D02*
D03*
X006091Y011641D02*
D03*
X005753Y011570D02*
D03*
D23*
X006068Y011524D02*
D03*
X005674Y011646D02*
D03*
D24*
X006007Y011613D02*
D03*
X005827Y011504D02*
D03*
D25*
X005928Y011641D02*
D03*
X005636Y011529D02*
D03*
D26*
X005461Y013233D02*
D03*
Y008001D02*
D03*
X014707Y013233D02*
D03*
Y008001D02*
D03*
D27*
X006519Y008362D02*
D03*
D28*
X006773D02*
D03*
X006519Y008108D02*
D03*
X006773D02*
D03*
X006519Y007854D02*
D03*
X006773D02*
D03*
X010262Y013183D02*
D03*
X010516D02*
D03*
X010770D02*
D03*
X011024D02*
D03*
X011278D02*
D03*
X011532D02*
D03*
X011786D02*
D03*
X012040D02*
D03*
X012294D02*
D03*
X012548D02*
D03*
X012802D02*
D03*
X010008Y013437D02*
D03*
X010262D02*
D03*
X010516D02*
D03*
X010770D02*
D03*
X011024D02*
D03*
X011278D02*
D03*
X011532D02*
D03*
X011786D02*
D03*
X012040D02*
D03*
X012294D02*
D03*
X012548D02*
D03*
X012802D02*
D03*
D29*
X013411Y009881D02*
D03*
D30*
Y010135D02*
D03*
Y010389D02*
D03*
Y010643D02*
D03*
Y010897D02*
D03*
Y011151D02*
D03*
Y011405D02*
D03*
Y011659D02*
D03*
X012649Y009881D02*
D03*
Y010135D02*
D03*
Y010389D02*
D03*
Y010643D02*
D03*
Y010897D02*
D03*
Y011151D02*
D03*
Y011405D02*
D03*
Y011659D02*
D03*
X012141Y011659D02*
D03*
X011887D02*
D03*
X011633D02*
D03*
X011379D02*
D03*
X011125D02*
D03*
X010871D02*
D03*
X010617D02*
D03*
X012395Y010897D02*
D03*
X012141D02*
D03*
X011887D02*
D03*
X011633D02*
D03*
X011379D02*
D03*
X011125D02*
D03*
X010871D02*
D03*
X010617D02*
D03*
X010084Y011659D02*
D03*
X009830D02*
D03*
X009576D02*
D03*
X009322D02*
D03*
X009068D02*
D03*
X008814D02*
D03*
X008560D02*
D03*
X010338Y010897D02*
D03*
X010084D02*
D03*
X009830D02*
D03*
X009576D02*
D03*
X009322D02*
D03*
X009068D02*
D03*
X008814D02*
D03*
X008560D02*
D03*
D31*
X012395Y011659D02*
D03*
X010338D02*
D03*
D32*
X009346Y013098D02*
D03*
X006096Y012598D02*
D03*
X006346Y013098D02*
D03*
X006596Y012598D02*
D03*
X006846Y013098D02*
D03*
X007096Y012598D02*
D03*
X007346Y013098D02*
D03*
X007596Y012598D02*
D03*
X007846Y013098D02*
D03*
X008096Y012598D02*
D03*
X008346Y013098D02*
D03*
X008596Y012598D02*
D03*
X008846Y013098D02*
D03*
X009096Y012598D02*
D03*
X014072Y009522D02*
D03*
X014572Y009772D02*
D03*
X014072Y010022D02*
D03*
X014572Y010272D02*
D03*
X014072Y010522D02*
D03*
X014572Y010772D02*
D03*
X014072Y011022D02*
D03*
X014572Y011272D02*
D03*
X014072Y011522D02*
D03*
X014572Y011772D02*
D03*
X014072Y012022D02*
D03*
X014572Y012272D02*
D03*
X014072Y012522D02*
D03*
X014572Y009272D02*
D03*
D33*
X010008Y013183D02*
D03*
D34*
X012471Y008865D02*
D03*
X005920Y008333D02*
D03*
Y009599D02*
D03*
X009347Y008973D02*
D03*
X008865Y009423D02*
D03*
X009373Y009703D02*
D03*
X009474Y009601D02*
D03*
X009677D02*
D03*
X009576Y009512D02*
D03*
X009779Y009508D02*
D03*
Y009060D02*
D03*
X009677Y008931D02*
D03*
X009246Y007928D02*
D03*
X007358Y010550D02*
D03*
X008264Y010287D02*
D03*
X008329Y008892D02*
D03*
X008742Y009851D02*
D03*
X007916Y008184D02*
D03*
X006477Y009042D02*
D03*
X007206Y009529D02*
D03*
X007294Y008264D02*
D03*
X008966Y009779D02*
D03*
X007264Y008128D02*
D03*
X009093Y009982D02*
D03*
X007366Y008026D02*
D03*
X007849Y007925D02*
D03*
X009271Y009068D02*
D03*
X009093Y009423D02*
D03*
X012598Y009068D02*
D03*
X008865Y010262D02*
D03*
X008966Y010389D02*
D03*
X010338Y010262D02*
D03*
X007036Y010693D02*
D03*
X006646Y010168D02*
D03*
X007275Y009815D02*
D03*
X007747Y009119D02*
D03*
X007849Y009804D02*
D03*
X007355Y009105D02*
D03*
Y009384D02*
D03*
X009576Y009068D02*
D03*
X006241Y008806D02*
D03*
X007518Y009109D02*
D03*
M02*
