%FSAX42Y42*%
%MOMM*%
G71*
G01*
G75*
G04 Layer_Physical_Order=2*
G04 Layer_Color=16711680*
%ADD10R,1.30X1.05*%
%ADD11R,0.80X0.90*%
%ADD12O,0.55X1.75*%
%ADD13O,1.75X0.55*%
%ADD14R,0.90X0.80*%
%ADD15R,2.20X2.50*%
%ADD16R,2.00X0.50*%
%ADD17R,0.90X1.00*%
%ADD18C,0.51*%
%ADD19C,0.25*%
%ADD20C,0.60*%
%ADD21C,0.40*%
%ADD22C,1.00*%
%ADD23C,0.70*%
%ADD24C,0.50*%
%ADD25C,0.80*%
%ADD26C,5.89*%
%ADD27R,1.50X1.50*%
%ADD28C,1.50*%
%ADD29R,1.50X1.50*%
%ADD30C,1.50*%
%ADD31R,1.50X1.50*%
%ADD32C,1.75*%
%ADD33R,1.50X1.50*%
%ADD34C,1.02*%
%ADD35C,0.20*%
D18*
X010338Y010897D02*
X010338Y010897D01*
X007036Y010693D02*
X010338D01*
Y010262D02*
Y010693D01*
Y010897D01*
X007250Y009105D02*
X007355D01*
X006782Y008636D02*
X007250Y009105D01*
X006782Y008371D02*
Y008636D01*
X006773Y008362D02*
X006782Y008371D01*
X007355Y009105D02*
Y009384D01*
D19*
X012915Y013437D02*
G03*
X012915Y013437I-000113J000000D01*
G01*
X015020Y013309D02*
G03*
X015020Y013158I-000313J-000075D01*
G01*
X012904Y013183D02*
G03*
X012904Y013183I-000102J000000D01*
G01*
X012650Y013437D02*
G03*
X012650Y013437I-000102J000000D01*
G01*
Y013183D02*
G03*
X012650Y013183I-000102J000000D01*
G01*
X012396Y013437D02*
G03*
X012396Y013437I-000102J000000D01*
G01*
Y013183D02*
G03*
X012396Y013183I-000102J000000D01*
G01*
X014197Y012522D02*
G03*
X014197Y012522I-000126J000000D01*
G01*
X014687Y012272D02*
G03*
X014687Y012272I-000115J000000D01*
G01*
X014197Y012022D02*
G03*
X014197Y012022I-000126J000000D01*
G01*
X014687Y011772D02*
G03*
X014687Y011772I-000115J000000D01*
G01*
Y011272D02*
G03*
X014687Y011272I-000115J000000D01*
G01*
X014197Y011522D02*
G03*
X014197Y011522I-000126J000000D01*
G01*
X013524Y011659D02*
G03*
X013524Y011659I-000113J000000D01*
G01*
X012752D02*
G03*
X012752Y011659I-000102J000000D01*
G01*
X012244Y011659D02*
G03*
X012244Y011659I-000102J000000D01*
G01*
X013514Y011405D02*
G03*
X013514Y011405I-000102J000000D01*
G01*
X012555Y011364D02*
G03*
X012752Y011405I000094J000040D01*
G01*
X013514Y011151D02*
G03*
X013514Y011151I-000102J000000D01*
G01*
X012752Y011405D02*
G03*
X012555Y011445I-000102J000000D01*
G01*
X012555Y011110D02*
G03*
X012752Y011151I000094J000040D01*
G01*
D02*
G03*
X012555Y011191I-000102J000000D01*
G01*
X012500Y011103D02*
G03*
X012489Y011110I-000028J-000028D01*
G01*
X012500Y011103D02*
G03*
X012489Y011110I-000028J-000028D01*
G01*
X011888Y013437D02*
G03*
X011888Y013437I-000102J000000D01*
G01*
X011380D02*
G03*
X011380Y013437I-000102J000000D01*
G01*
X012142D02*
G03*
X012142Y013437I-000102J000000D01*
G01*
Y013183D02*
G03*
X012142Y013183I-000102J000000D01*
G01*
X011888D02*
G03*
X011888Y013183I-000102J000000D01*
G01*
X011634Y013437D02*
G03*
X011634Y013437I-000102J000000D01*
G01*
Y013183D02*
G03*
X011634Y013183I-000102J000000D01*
G01*
X011380D02*
G03*
X011380Y013183I-000102J000000D01*
G01*
X011126D02*
G03*
X011126Y013183I-000102J000000D01*
G01*
Y013437D02*
G03*
X011126Y013437I-000102J000000D01*
G01*
X010872D02*
G03*
X010872Y013437I-000102J000000D01*
G01*
X010618D02*
G03*
X010618Y013437I-000102J000000D01*
G01*
X010364D02*
G03*
X010364Y013437I-000102J000000D01*
G01*
X010110D02*
G03*
X010110Y013437I-000102J000000D01*
G01*
X010872Y013183D02*
G03*
X010872Y013183I-000102J000000D01*
G01*
X010618D02*
G03*
X010618Y013183I-000102J000000D01*
G01*
X010364D02*
G03*
X010364Y013183I-000102J000000D01*
G01*
X011990Y011659D02*
G03*
X011990Y011659I-000102J000000D01*
G01*
X011736D02*
G03*
X011736Y011659I-000102J000000D01*
G01*
X011482D02*
G03*
X011482Y011659I-000102J000000D01*
G01*
X011228D02*
G03*
X011228Y011659I-000102J000000D01*
G01*
X011227Y011445D02*
G03*
X011198Y011433I000000J-000040D01*
G01*
X011227Y011445D02*
G03*
X011198Y011433I000000J-000040D01*
G01*
X011227Y011191D02*
G03*
X011198Y011179I000000J-000040D01*
G01*
X011227Y011191D02*
G03*
X011198Y011179I000000J-000040D01*
G01*
X011097Y011077D02*
G03*
X011085Y011049I000028J-000028D01*
G01*
X011097Y011077D02*
G03*
X011085Y011049I000028J-000028D01*
G01*
X010843Y011077D02*
G03*
X010831Y011049I000028J-000028D01*
G01*
X010843Y011077D02*
G03*
X010831Y011049I000028J-000028D01*
G01*
X010974Y011659D02*
G03*
X010974Y011659I-000102J000000D01*
G01*
X010730D02*
G03*
X010730Y011659I-000113J000000D01*
G01*
X010716Y011037D02*
G03*
X010688Y011049I-000028J-000028D01*
G01*
X010716Y011037D02*
G03*
X010688Y011049I-000028J-000028D01*
G01*
X010186Y011659D02*
G03*
X010186Y011659I-000102J000000D01*
G01*
X009932D02*
G03*
X009932Y011659I-000102J000000D01*
G01*
X014687Y010772D02*
G03*
X014687Y010772I-000115J000000D01*
G01*
X014197Y011022D02*
G03*
X014197Y011022I-000126J000000D01*
G01*
Y010522D02*
G03*
X014197Y010522I-000126J000000D01*
G01*
X014687Y010272D02*
G03*
X014687Y010272I-000115J000000D01*
G01*
X013514Y010897D02*
G03*
X013514Y010897I-000102J000000D01*
G01*
Y010643D02*
G03*
X013514Y010643I-000102J000000D01*
G01*
Y010389D02*
G03*
X013514Y010389I-000102J000000D01*
G01*
Y010135D02*
G03*
X013514Y010135I-000102J000000D01*
G01*
X014687Y009772D02*
G03*
X014687Y009772I-000115J000000D01*
G01*
Y009272D02*
G03*
X014687Y009272I-000115J000000D01*
G01*
X014197Y009522D02*
G03*
X014197Y009522I-000126J000000D01*
G01*
X015020Y008076D02*
G03*
X015020Y007926I-000313J-000075D01*
G01*
X014197Y010022D02*
G03*
X014197Y010022I-000126J000000D01*
G01*
X012752Y010897D02*
G03*
X012611Y010992I-000102J000000D01*
G01*
X012449Y010810D02*
G03*
X012498Y010897I-000054J000087D01*
G01*
D02*
G03*
X012341Y010810I-000102J000000D01*
G01*
X012554Y010935D02*
G03*
X012752Y010897I000095J-000038D01*
G01*
X012195Y010810D02*
G03*
X012244Y010897I-000054J000087D01*
G01*
D02*
G03*
X012087Y010810I-000102J000000D01*
G01*
X012525Y010798D02*
G03*
X012497Y010810I-000028J-000028D01*
G01*
X012525Y010798D02*
G03*
X012497Y010810I-000028J-000028D01*
G01*
X011990Y010897D02*
G03*
X011833Y010810I-000102J000000D01*
G01*
X011941D02*
G03*
X011990Y010897I-000054J000087D01*
G01*
X011433Y010810D02*
G03*
X011482Y010897I-000054J000087D01*
G01*
X011687Y010810D02*
G03*
X011736Y010897I-000054J000087D01*
G01*
D02*
G03*
X011579Y010810I-000102J000000D01*
G01*
X011482Y010897D02*
G03*
X011419Y010991I-000102J000000D01*
G01*
X010831D02*
G03*
X010784Y010951I000040J-000094D01*
G01*
X010974Y010897D02*
G03*
X010911Y010991I-000102J000000D01*
G01*
X010784Y010952D02*
G03*
X010773Y010980I-000040J000000D01*
G01*
X010784Y010952D02*
G03*
X010773Y010980I-000040J000000D01*
G01*
X010440Y010897D02*
G03*
X010411Y010968I-000102J000000D01*
G01*
X010186Y010897D02*
G03*
X010157Y010968I-000102J000000D01*
G01*
X009932Y010897D02*
G03*
X009903Y010968I-000102J000000D01*
G01*
X010925Y010810D02*
G03*
X010974Y010897I-000054J000087D01*
G01*
X010704Y010843D02*
G03*
X010716Y010817I000040J000003D01*
G01*
X011085Y010991D02*
G03*
X011071Y010810I000040J-000094D01*
G01*
X010544Y010968D02*
G03*
X010704Y010843I000073J-000072D01*
G01*
X010704Y010843D02*
G03*
X010716Y010817I000040J000003D01*
G01*
X010265Y010968D02*
G03*
X010285Y010809I000073J-000072D01*
G01*
X010391Y010809D02*
G03*
X010440Y010897I-000053J000088D01*
G01*
X010011Y010968D02*
G03*
X010186Y010897I000073J-000072D01*
G01*
X009757Y010968D02*
G03*
X009932Y010897I000073J-000072D01*
G01*
X012752Y010643D02*
G03*
X012594Y010729I-000102J000000D01*
G01*
X012611Y010548D02*
G03*
X012752Y010643I000038J000095D01*
G01*
X012548Y010661D02*
G03*
X012554Y010604I000101J-000019D01*
G01*
X012752Y010389D02*
G03*
X012554Y010350I-000102J000000D01*
G01*
X012611Y010294D02*
G03*
X012752Y010389I000038J000095D01*
G01*
Y010135D02*
G03*
X012562Y010189I-000102J000000D01*
G01*
X011608Y010729D02*
G03*
X011633Y010739I000000J000040D01*
G01*
D02*
G03*
X011659Y010729I000025J000031D01*
G01*
X011608D02*
G03*
X011633Y010739I000000J000040D01*
G01*
D02*
G03*
X011659Y010729I000025J000031D01*
G01*
X012443Y010493D02*
G03*
X012431Y010465I000028J-000028D01*
G01*
X012443Y010493D02*
G03*
X012431Y010465I000028J-000028D01*
G01*
X012562Y010080D02*
G03*
X012752Y010135I000087J000054D01*
G01*
Y009881D02*
G03*
X012562Y009935I-000102J000000D01*
G01*
Y009826D02*
G03*
X012752Y009881I000087J000054D01*
G01*
X012523Y009087D02*
G03*
X012677Y009068I000076J-000019D01*
G01*
D02*
G03*
X012579Y009144I-000078J000000D01*
G01*
X012431Y008932D02*
G03*
X012550Y008865I000040J-000067D01*
G01*
D02*
G03*
X012512Y008932I-000078J000000D01*
G01*
X010792Y010741D02*
G03*
X010820Y010729I000028J000028D01*
G01*
X010792Y010741D02*
G03*
X010820Y010729I000028J000028D01*
G01*
X010416Y010262D02*
G03*
X010391Y010319I-000078J000000D01*
G01*
X010285D02*
G03*
X010416Y010262I000053J-000058D01*
G01*
X009857Y009508D02*
G03*
X009753Y009581I-000078J000000D01*
G01*
X009819Y009440D02*
G03*
X009857Y009508I-000040J000067D01*
G01*
Y009060D02*
G03*
X009819Y009127I-000078J000000D01*
G01*
X009753Y009581D02*
G03*
X009756Y009601I-000076J000020D01*
G01*
X009718Y009012D02*
G03*
X009857Y009060I000061J000048D01*
G01*
X009756Y008931D02*
G03*
X009718Y008998I-000078J000000D01*
G01*
X009461Y013098D02*
G03*
X009461Y013098I-000115J000000D01*
G01*
X008961D02*
G03*
X008961Y013098I-000115J000000D01*
G01*
X009222Y012598D02*
G03*
X009222Y012598I-000126J000000D01*
G01*
X009678Y011659D02*
G03*
X009678Y011659I-000102J000000D01*
G01*
X009424D02*
G03*
X009424Y011659I-000102J000000D01*
G01*
X009170D02*
G03*
X009170Y011659I-000102J000000D01*
G01*
X008916D02*
G03*
X008916Y011659I-000102J000000D01*
G01*
X008722Y012598D02*
G03*
X008722Y012598I-000126J000000D01*
G01*
X008461Y013098D02*
G03*
X008461Y013098I-000115J000000D01*
G01*
X008673Y011659D02*
G03*
X008673Y011659I-000113J000000D01*
G01*
X009688Y011049D02*
G03*
X009659Y011037I000000J-000040D01*
G01*
X009688Y011049D02*
G03*
X009659Y011037I000000J-000040D01*
G01*
X009424Y010897D02*
G03*
X009424Y010897I-000102J000000D01*
G01*
X009170D02*
G03*
X009170Y010897I-000102J000000D01*
G01*
X009614Y010992D02*
G03*
X009678Y010897I-000038J-000095D01*
G01*
D02*
G03*
X009671Y010935I-000102J000000D01*
G01*
X009006Y010321D02*
G03*
X009044Y010389I-000040J000067D01*
G01*
X009133Y009915D02*
G03*
X009171Y009982I-000040J000067D01*
G01*
D02*
G03*
X009053Y009915I-000078J000000D01*
G01*
X008916Y010897D02*
G03*
X008916Y010897I-000102J000000D01*
G01*
X008662D02*
G03*
X008662Y010897I-000102J000000D01*
G01*
X009044Y010389D02*
G03*
X008926Y010321I-000078J000000D01*
G01*
Y010310D02*
G03*
X008824Y010194I-000061J-000048D01*
G01*
X008352Y010287D02*
G03*
X008352Y010287I-000089J000000D01*
G01*
X007961Y013098D02*
G03*
X007961Y013098I-000115J000000D01*
G01*
X007461D02*
G03*
X007461Y013098I-000115J000000D01*
G01*
X006961D02*
G03*
X006961Y013098I-000115J000000D01*
G01*
X006461D02*
G03*
X006461Y013098I-000115J000000D01*
G01*
X008222Y012598D02*
G03*
X008222Y012598I-000126J000000D01*
G01*
X007722D02*
G03*
X007722Y012598I-000126J000000D01*
G01*
X007211D02*
G03*
X007211Y012598I-000115J000000D01*
G01*
X006711D02*
G03*
X006711Y012598I-000115J000000D01*
G01*
X006222D02*
G03*
X006222Y012598I-000126J000000D01*
G01*
X005783Y013233D02*
G03*
X005783Y013233I-000322J000000D01*
G01*
X006114Y011567D02*
G03*
X006168Y011641I-000023J000074D01*
G01*
X006114Y011567D02*
G03*
X006168Y011641I-000023J000074D01*
G01*
X006130Y011524D02*
G03*
X006114Y011567I-000062J000000D01*
G01*
X006168Y011641D02*
G03*
X006017Y011664I-000077J000000D01*
G01*
X006168Y011641D02*
G03*
X006017Y011664I-000077J000000D01*
G01*
X006130Y011524D02*
G03*
X006114Y011567I-000062J000000D01*
G01*
X006018Y011562D02*
G03*
X006130Y011524I000050J-000038D01*
G01*
X006018Y011562D02*
G03*
X006130Y011524I000050J-000038D01*
G01*
X006017Y011664D02*
G03*
X005992Y011663I-000010J-000051D01*
G01*
X006017Y011664D02*
G03*
X005992Y011663I-000010J-000051D01*
G01*
X006024Y011753D02*
G03*
X005934Y011774I-000047J000000D01*
G01*
X005930Y011742D02*
G03*
X006024Y011753I000046J000010D01*
G01*
D02*
G03*
X005934Y011774I-000047J000000D01*
G01*
X005930Y011742D02*
G03*
X006024Y011753I000046J000010D01*
G01*
X006008Y011560D02*
G03*
X006018Y011562I-000001J000052D01*
G01*
X006008Y011560D02*
G03*
X006018Y011562I-000001J000052D01*
G01*
X005994Y011533D02*
G03*
X006008Y011560I-000032J000035D01*
G01*
X005994Y011533D02*
G03*
X006008Y011560I-000032J000035D01*
G01*
X006004Y011504D02*
G03*
X005994Y011533I-000047J000000D01*
G01*
X006004Y011504D02*
G03*
X005994Y011533I-000047J000000D01*
G01*
X005912Y011487D02*
G03*
X006004Y011504I000044J000017D01*
G01*
X005912Y011487D02*
G03*
X006004Y011504I000044J000017D01*
G01*
X007446Y010550D02*
G03*
X007446Y010550I-000089J000000D01*
G01*
X007093Y010746D02*
G03*
X007093Y010641I-000058J-000053D01*
G01*
X006735Y010168D02*
G03*
X006735Y010168I-000089J000000D01*
G01*
X005934Y011774D02*
G03*
X005862Y011820I-000057J-000009D01*
G01*
X005934Y011774D02*
G03*
X005862Y011820I-000057J-000009D01*
G01*
X005794Y011764D02*
G03*
X005821Y011759I000023J000041D01*
G01*
X005794Y011764D02*
G03*
X005821Y011759I000023J000041D01*
G01*
X005862Y011820D02*
G03*
X005789Y011845I-000045J-000015D01*
G01*
X005862Y011820D02*
G03*
X005789Y011845I-000045J-000015D01*
G01*
X005821Y011759D02*
G03*
X005930Y011742I000057J000007D01*
G01*
X005992Y011663D02*
G03*
X005869Y011672I-000064J-000022D01*
G01*
X005992Y011663D02*
G03*
X005869Y011672I-000064J-000022D01*
G01*
X005821Y011759D02*
G03*
X005930Y011742I000057J000007D01*
G01*
X005869Y011672D02*
G03*
X005791Y011690I-000045J-000016D01*
G01*
X005869Y011672D02*
G03*
X005791Y011690I-000045J-000016D01*
G01*
X005789Y011845D02*
G03*
X005648Y011805I-000064J-000044D01*
G01*
X005789Y011845D02*
G03*
X005648Y011805I-000064J-000044D01*
G01*
D02*
G03*
X005687Y011733I-000001J-000047D01*
G01*
X005648Y011805D02*
G03*
X005687Y011733I-000001J-000047D01*
G01*
D02*
G03*
X005794Y011764I000038J000067D01*
G01*
X005791Y011690D02*
G03*
X005719Y011689I-000036J-000031D01*
G01*
X005791Y011690D02*
G03*
X005719Y011689I-000036J-000031D01*
G01*
X005687Y011733D02*
G03*
X005794Y011764I000038J000067D01*
G01*
X005719Y011689D02*
G03*
X005613Y011657I-000045J-000043D01*
G01*
X005719Y011689D02*
G03*
X005613Y011657I-000045J-000043D01*
G01*
X005877Y011487D02*
G03*
X005912Y011487I000019J000054D01*
G01*
X005877Y011487D02*
G03*
X005912Y011487I000019J000054D01*
G01*
X005775Y011495D02*
G03*
X005877Y011487I000052J000008D01*
G01*
X005775Y011495D02*
G03*
X005877Y011487I000052J000008D01*
G01*
X005613Y011657D02*
G03*
X005581Y011568I-000010J-000046D01*
G01*
X005613Y011657D02*
G03*
X005581Y011568I-000010J-000046D01*
G01*
D02*
G03*
X005672Y011472I000055J-000039D01*
G01*
X005581Y011568D02*
G03*
X005672Y011472I000055J-000039D01*
G01*
X005757Y011492D02*
G03*
X005775Y011495I-000003J000077D01*
G01*
X005757Y011492D02*
G03*
X005775Y011495I-000003J000077D01*
G01*
X005672Y011472D02*
G03*
X005757Y011492I000038J000029D01*
G01*
X005672Y011472D02*
G03*
X005757Y011492I000038J000029D01*
G01*
X009756Y009601D02*
G03*
X009601Y009587I-000078J000000D01*
G01*
D02*
G03*
X009551Y009587I-000025J-000074D01*
G01*
D02*
G03*
X009552Y009601I-000077J000015D01*
G01*
X009451Y009703D02*
G03*
X009297Y009684I-000078J000000D01*
G01*
X009445Y009674D02*
G03*
X009451Y009703I-000073J000029D01*
G01*
X009552Y009601D02*
G03*
X009445Y009674I-000078J000000D01*
G01*
X009044Y009779D02*
G03*
X009006Y009846I-000078J000000D01*
G01*
X008905Y009731D02*
G03*
X009044Y009779I000061J000048D01*
G01*
X009243Y009630D02*
G03*
X009231Y009601I000028J-000028D01*
G01*
X009243Y009630D02*
G03*
X009231Y009601I000028J-000028D01*
G01*
X009455Y009525D02*
G03*
X009499Y009527I000019J000076D01*
G01*
D02*
G03*
X009536Y009445I000077J-000015D01*
G01*
X008824Y009884D02*
G03*
X008824Y009818I-000083J-000033D01*
G01*
X007938Y009804D02*
G03*
X007938Y009804I-000089J000000D01*
G01*
X009536Y009135D02*
G03*
X009637Y009019I000040J-000067D01*
G01*
Y008998D02*
G03*
X009756Y008931I000040J-000067D01*
G01*
X009271Y008990D02*
G03*
X009425Y008973I000076J-000017D01*
G01*
D02*
G03*
X009389Y009038I-000078J000000D01*
G01*
X009171Y009423D02*
G03*
X009133Y009491I-000078J000000D01*
G01*
X009053D02*
G03*
X009171Y009423I000040J-000067D01*
G01*
X008824Y009491D02*
G03*
X008943Y009423I000040J-000067D01*
G01*
D02*
G03*
X008905Y009491I-000078J000000D01*
G01*
X009231Y009135D02*
G03*
X009271Y008990I000040J-000067D01*
G01*
X009335Y007928D02*
G03*
X009335Y007928I-000089J000000D01*
G01*
X008418Y008892D02*
G03*
X008418Y008892I-000089J000000D01*
G01*
X007836Y009119D02*
G03*
X007836Y009119I-000089J000000D01*
G01*
X008005Y008184D02*
G03*
X008005Y008184I-000089J000000D01*
G01*
X007432Y009090D02*
G03*
X007607Y009109I000087J000019D01*
G01*
D02*
G03*
X007431Y009123I-000089J000000D01*
G01*
X007444Y008026D02*
G03*
X007337Y008099I-000078J000000D01*
G01*
X007927Y007925D02*
G03*
X007781Y007965I-000078J000000D01*
G01*
Y007885D02*
G03*
X007927Y007925I000067J000040D01*
G01*
X007414Y007965D02*
G03*
X007444Y008026I-000048J000061D01*
G01*
X007433Y009384D02*
G03*
X007302Y009326I-000078J000000D01*
G01*
X007364Y009815D02*
G03*
X007364Y009815I-000089J000000D01*
G01*
X007295Y009529D02*
G03*
X007295Y009529I-000089J000000D01*
G01*
X007407Y009326D02*
G03*
X007433Y009384I-000053J000058D01*
G01*
X007297Y009052D02*
G03*
X007432Y009090I000058J000053D01*
G01*
X007431Y009123D02*
G03*
X007407Y009162I-000076J-000019D01*
G01*
X007250Y009157D02*
G03*
X007213Y009142I000000J-000053D01*
G01*
X007250Y009157D02*
G03*
X007213Y009142I000000J-000053D01*
G01*
X006566Y009042D02*
G03*
X006566Y009042I-000089J000000D01*
G01*
X006851Y008295D02*
G03*
X006876Y008362I-000077J000067D01*
G01*
X007383Y008264D02*
G03*
X007232Y008199I-000089J000000D01*
G01*
X006876Y008362D02*
G03*
X006835Y008444I-000102J000000D01*
G01*
X006745Y008673D02*
G03*
X006729Y008636I000037J-000037D01*
G01*
X006330Y008806D02*
G03*
X006330Y008806I-000089J000000D01*
G01*
X006744Y008673D02*
G03*
X006729Y008636I000037J-000037D01*
G01*
Y008455D02*
G03*
X006697Y008294I000044J-000092D01*
G01*
X006009Y009599D02*
G03*
X006009Y009599I-000089J000000D01*
G01*
Y008333D02*
G03*
X006009Y008333I-000089J000000D01*
G01*
X007323Y008180D02*
G03*
X007383Y008264I-000029J000084D01*
G01*
X007343Y008128D02*
G03*
X007323Y008180I-000078J000000D01*
G01*
X007232Y008199D02*
G03*
X007197Y008168I000032J-000071D01*
G01*
X007337Y008099D02*
G03*
X007343Y008128I-000073J000029D01*
G01*
X007084Y008100D02*
G03*
X007112Y008088I000028J000028D01*
G01*
X007197D02*
G03*
X007216Y008067I000067J000040D01*
G01*
X007084Y008100D02*
G03*
X007112Y008088I000028J000028D01*
G01*
X007013Y008283D02*
G03*
X006985Y008295I-000028J-000028D01*
G01*
X007013Y008283D02*
G03*
X006985Y008295I-000028J-000028D01*
G01*
X006957Y008137D02*
G03*
X006928Y008148I-000028J-000028D01*
G01*
X006957Y008137D02*
G03*
X006928Y008148I-000028J-000028D01*
G01*
X006931Y007896D02*
G03*
X006960Y007885I000028J000028D01*
G01*
X006931Y007896D02*
G03*
X006960Y007885I000028J000028D01*
G01*
X006868Y008148D02*
G03*
X006729Y008016I-000094J-000040D01*
G01*
X006695Y007935D02*
G03*
X006886Y007854I000079J-000081D01*
G01*
D02*
G03*
X006852Y007935I-000113J000000D01*
G01*
X006624Y007947D02*
G03*
X006652Y007935I000028J000028D01*
G01*
X006624Y007947D02*
G03*
X006652Y007935I000028J000028D01*
G01*
X006599Y008226D02*
G03*
X006627Y008214I000028J000028D01*
G01*
X006599Y008226D02*
G03*
X006627Y008214I000028J000028D01*
G01*
X006622Y008108D02*
G03*
X006558Y008013I-000102J000000D01*
G01*
X006614Y008070D02*
G03*
X006622Y008108I-000095J000038D01*
G01*
Y007854D02*
G03*
X006622Y007854I-000102J000000D01*
G01*
X005783Y008001D02*
G03*
X005783Y008001I-000322J000000D01*
G01*
X014874Y013509D02*
X014937Y013572D01*
X014949D02*
X015020Y013502D01*
X014826Y013533D02*
X014865Y013572D01*
X014877D02*
X015020Y013430D01*
Y013309D02*
Y013572D01*
X014915Y013479D02*
X015009Y013572D01*
X014734D02*
X014754Y013552D01*
X014770Y013549D02*
X014793Y013572D01*
X014518D02*
X014567Y013524D01*
X014806Y013572D02*
X014862Y013515D01*
X014446Y013572D02*
X014521Y013497D01*
X014951Y013443D02*
X015020Y013511D01*
X014982Y013401D02*
X015020Y013439D01*
X014705Y013555D02*
X014721Y013572D01*
X015006Y013353D02*
X015020Y013367D01*
X014989Y013389D02*
X015020Y013358D01*
X014622Y013544D02*
X014650Y013572D01*
X014662D02*
X014680Y013554D01*
X014590Y013572D02*
X014619Y013543D01*
X014375Y013572D02*
X014482Y013464D01*
X014303Y013572D02*
X014449Y013426D01*
X012906Y013481D02*
X012997Y013572D01*
X012913Y013416D02*
X013069Y013572D01*
X012876Y013522D02*
X012925Y013572D01*
X014231D02*
X014421Y013382D01*
X014159Y013572D02*
X014400Y013331D01*
X012794Y013572D02*
X012817Y013549D01*
X012828Y013547D02*
X012854Y013572D01*
X012722D02*
X012755Y013540D01*
X012845Y013276D02*
X013141Y013572D01*
X012743Y013533D02*
X012782Y013572D01*
X012780Y013283D02*
X012823Y013325D01*
X012728Y013351D02*
X012794Y013285D01*
X012650Y013572D02*
X012714Y013508D01*
X012650Y013440D02*
X012705Y013495D01*
X012650Y013429D02*
X012716Y013363D01*
X013800Y013572D02*
X015020Y012352D01*
X013728Y013572D02*
X015020Y012280D01*
X013872Y013572D02*
X015020Y012424D01*
X013584Y013572D02*
X015020Y012137D01*
X013512Y013572D02*
X015020Y012065D01*
X013656Y013572D02*
X015020Y012208D01*
X013369Y013572D02*
X014555Y012386D01*
X013441Y013572D02*
X015020Y011993D01*
X013225Y013572D02*
X014470Y012327D01*
X012729Y011723D02*
X014578Y013572D01*
X012688Y011754D02*
X014506Y013572D01*
X014997Y013094D02*
X015020Y013070D01*
X013944Y013572D02*
X014412Y013104D01*
X013297Y013572D02*
X014504Y012365D01*
X012914Y013452D02*
X014502Y011864D01*
X012905Y013390D02*
X014469Y011825D01*
X012742Y011449D02*
X014407Y013114D01*
X012751Y011673D02*
X014396Y013318D01*
X012781Y013082D02*
X014501Y011363D01*
X012644Y013147D02*
X014468Y011323D01*
X014015Y013572D02*
X014386Y013201D01*
X014087Y013572D02*
X014387Y013272D01*
X013153Y013572D02*
X014078Y012648D01*
X013081Y013572D02*
X014018Y012636D01*
X013010Y013572D02*
X013977Y012605D01*
X012904Y013191D02*
X013285Y013572D01*
X012938D02*
X013951Y012558D01*
X012884Y013243D02*
X013213Y013572D01*
X012873Y013349D02*
X014075Y012148D01*
X012866Y013572D02*
X013951Y012487D01*
X012825Y013326D02*
X014016Y012135D01*
X012904Y013175D02*
X013976Y012103D01*
X012884Y013122D02*
X013951Y012056D01*
X012709Y011488D02*
X014391Y013170D01*
X012845Y013090D02*
X013952Y011983D01*
X012644Y013218D02*
X012758Y013332D01*
X012643Y013146D02*
X012702Y013204D01*
X012643Y013220D02*
X012701Y013162D01*
X012656Y011507D02*
X014385Y013235D01*
X012532Y013538D02*
X012566Y013572D01*
X012594Y013528D02*
X012638Y013572D01*
X012507D02*
X012540Y013539D01*
X012632Y013494D02*
X012710Y013572D01*
X012565Y013284D02*
X012692Y013410D01*
X012579Y013572D02*
X012691Y013460D01*
X012391Y013469D02*
X012494Y013572D01*
X012435D02*
X012487Y013519D01*
X012408Y011761D02*
X014219Y013572D01*
X012336Y011761D02*
X014147Y013572D01*
X012630Y013376D02*
X012741Y013265D01*
X012614Y013261D02*
X012716Y013363D01*
X012527Y013336D02*
X012585Y013278D01*
X012591Y013344D02*
X012709Y013226D01*
X012390Y013401D02*
X012512Y013279D01*
X012396Y013186D02*
X012544Y013334D01*
X012378Y013240D02*
X012490Y013352D01*
X012109Y013107D02*
X013453Y011764D01*
X012062Y013083D02*
X013378Y011767D01*
X012363Y013512D02*
X012422Y013572D01*
X012363D02*
X012455Y013480D01*
X012315Y013537D02*
X012351Y013572D01*
X012389Y013474D02*
X012447Y013416D01*
X012385Y013391D02*
X012446Y013452D01*
X012219Y013572D02*
X012258Y013533D01*
X012291Y013572D02*
X012331Y013532D01*
X012147Y013572D02*
X012216Y013503D01*
X012142Y013435D02*
X012279Y013572D01*
X012340Y013274D02*
X012456Y013390D01*
X012360Y013359D02*
X012470Y013249D01*
X012278Y013284D02*
X012339Y013345D01*
X012312Y013336D02*
X012447Y013201D01*
X012142Y013434D02*
X012291Y013285D01*
X012125Y013379D02*
X012236Y013268D01*
X012109Y013258D02*
X012218Y013367D01*
X010974Y013093D02*
X012306Y011761D01*
X012137Y013215D02*
X012262Y013339D01*
X012479Y011761D02*
X014290Y013572D01*
X012618Y011756D02*
X014434Y013572D01*
X012117Y011758D02*
X013931Y013572D01*
X012223Y011720D02*
X014075Y013572D01*
X012498Y011707D02*
X014362Y013572D01*
X012183Y011752D02*
X014003Y013572D01*
X011679Y011750D02*
X013500Y013572D01*
X011953Y011737D02*
X013787Y013572D01*
X011616Y011760D02*
X013428Y013572D01*
X011983Y011695D02*
X013859Y013572D01*
X011476Y011692D02*
X013356Y013572D01*
X012614Y013105D02*
X014072Y011648D01*
X012566Y013082D02*
X014014Y011634D01*
X012396Y013180D02*
X013974Y011602D01*
X012341Y013092D02*
X013954Y011478D01*
X012379Y013125D02*
X013950Y011554D01*
X011736Y011664D02*
X013644Y013572D01*
X011903Y011760D02*
X013716Y013572D01*
X011717Y011717D02*
X013572Y013572D01*
X011558Y013084D02*
X013391Y011251D01*
X011777Y013081D02*
X013363Y011495D01*
X011888Y013185D02*
X013333Y011740D01*
X011873Y013128D02*
X013305Y011696D01*
X011228Y011659D02*
X012709Y013140D01*
X011630Y013155D02*
X013325Y011460D01*
X011366Y013132D02*
X013314Y011184D01*
X011123Y013159D02*
X012565Y011717D01*
X011114Y011760D02*
X012470Y013116D01*
X011098Y013112D02*
X012450Y011761D01*
X010969Y011688D02*
X012447Y013165D01*
X010860Y013135D02*
X012293Y011702D01*
X011836Y013093D02*
X013303Y011626D01*
X011448Y011735D02*
X012793Y013081D01*
X011400Y011759D02*
X012741Y013100D01*
X011466Y013104D02*
X013343Y011227D01*
X011604Y013110D02*
X013309Y011405D01*
X011331Y013095D02*
X012667Y011760D01*
X011054Y013085D02*
X012378Y011761D01*
X010896Y011758D02*
X012236Y013098D01*
X011211Y011714D02*
X012584Y013087D01*
X011174Y011749D02*
X012512Y013087D01*
X014938Y013009D02*
X015020Y012927D01*
X014899Y012975D02*
X015020Y012855D01*
X014970Y013048D02*
X015020Y012999D01*
X014804Y012927D02*
X015020Y012711D01*
X014746Y012914D02*
X015020Y012639D01*
X014855Y012948D02*
X015020Y012783D01*
X014087Y012147D02*
X015020Y013080D01*
X014577Y012939D02*
X015020Y012496D01*
X014674Y012913D02*
X015020Y012568D01*
X014176Y012092D02*
X015020Y012936D01*
X014139Y012128D02*
X015020Y013008D01*
X014682Y012239D02*
X015020Y012577D01*
X014685Y012255D02*
X015020Y011921D01*
X014680Y012310D02*
X015020Y012649D01*
X014681Y011807D02*
X015020Y012146D01*
X014664Y012204D02*
X015020Y011849D01*
X014608Y012381D02*
X015020Y012793D01*
X014653Y012354D02*
X015020Y012721D01*
X014537Y012382D02*
X015020Y012865D01*
X014654Y011852D02*
X015020Y012218D01*
X014541Y011883D02*
X015020Y012362D01*
X014175Y012594D02*
X014539Y012958D01*
X014195Y012543D02*
X014587Y012934D01*
X014138Y012629D02*
X014497Y012989D01*
X014175Y012451D02*
X014642Y012918D01*
X014197Y012528D02*
X014457Y012269D01*
X014084Y012647D02*
X014461Y013025D01*
X014196Y012041D02*
X014462Y012307D01*
X014610Y011880D02*
X015020Y012290D01*
X014036Y012402D02*
X014552Y011886D01*
X014568Y012157D02*
X015020Y011705D01*
X014680Y011735D02*
X015020Y012074D01*
X014626Y012171D02*
X015020Y011777D01*
X014184Y011966D02*
X015020Y011131D01*
X014178Y011089D02*
X015020Y011931D01*
X014185Y012468D02*
X015020Y011634D01*
X014177Y011591D02*
X015020Y012433D01*
X014154Y012427D02*
X015020Y011562D01*
X014141Y011627D02*
X015020Y012505D01*
X014143Y011126D02*
X015020Y012002D01*
X014108Y012402D02*
X015020Y011490D01*
X014655Y011351D02*
X015020Y011715D01*
X014663Y011703D02*
X015020Y011346D01*
X014685Y011753D02*
X015020Y011418D01*
X014679Y011230D02*
X015020Y011571D01*
X014682Y011305D02*
X015020Y011643D01*
X014613Y011380D02*
X015020Y011787D01*
X014624Y011670D02*
X015020Y011274D01*
X014545Y011384D02*
X015020Y011859D01*
X014153Y011926D02*
X015020Y011059D01*
X014565Y011657D02*
X015020Y011203D01*
X014089Y011647D02*
X014605Y012162D01*
X014197Y012025D02*
X014457Y011765D01*
X014092Y011146D02*
X014609Y011664D01*
X014196Y011538D02*
X014461Y011803D01*
X013524Y011656D02*
X014790Y012922D01*
X014032Y011903D02*
X014550Y011385D01*
X013511Y011428D02*
X014001Y011918D01*
X013513Y011143D02*
X014534Y012163D01*
X013516Y011700D02*
X014069Y011148D01*
X014197Y011522D02*
X014457Y011262D01*
X014196Y011035D02*
X014460Y011299D01*
X013997Y011123D02*
X014536Y011663D01*
X013519Y011625D02*
X014012Y011133D01*
X013510Y011714D02*
X014707Y012911D01*
X013476Y011751D02*
X014143Y012419D01*
X013423Y011771D02*
X014051Y012398D01*
X013442Y011502D02*
X013947Y012007D01*
X013486Y011474D02*
X013966Y011954D01*
X011274Y013080D02*
X012604Y011750D01*
X012498Y011636D02*
X012552Y011689D01*
X013379Y011550D02*
X013423Y011506D01*
X013363Y011495D02*
X013413Y011546D01*
X012522Y011445D02*
X012635Y011557D01*
X012498Y011641D02*
X012633Y011506D01*
X012498Y011569D02*
X012584Y011483D01*
X012498Y011564D02*
X012554Y011620D01*
X012451Y011445D02*
X012585Y011579D01*
X011227Y011445D02*
X012555D01*
X012293Y011761D02*
X012498D01*
Y011713D02*
X012547Y011664D01*
X012243Y011668D02*
X012293Y011718D01*
X012498Y011556D02*
Y011761D01*
X012293Y011556D02*
Y011761D01*
X012241Y011683D02*
X012293Y011631D01*
X012235Y011617D02*
X012293Y011559D01*
X010942Y011732D02*
X012290Y013080D01*
X012091Y011445D02*
X012293Y011646D01*
X012490Y011556D02*
X012498Y011564D01*
X012439Y011556D02*
X012551Y011445D01*
X012379D02*
X012490Y011556D01*
X012367D02*
X012479Y011445D01*
X012307D02*
X012418Y011556D01*
X012295D02*
X012407Y011445D01*
X012293Y011556D02*
X012498D01*
X012235Y011445D02*
X012346Y011556D01*
X012163Y011445D02*
X012293Y011574D01*
X012151Y011557D02*
X012263Y011445D01*
X013465Y011238D02*
X014463Y012236D01*
X013500Y011201D02*
X014490Y012191D01*
X013408Y011253D02*
X014053Y011898D01*
X013493Y011580D02*
X013973Y011100D01*
X013449Y011552D02*
X013949Y011052D01*
X012750Y011385D02*
X014431Y013066D01*
X012726Y011218D02*
X013965Y012456D01*
X012684Y011247D02*
X013947Y012510D01*
X012750Y011169D02*
X014000Y012419D01*
X012750Y011676D02*
X013318Y011108D01*
X012616Y011308D02*
X012673Y011250D01*
X012610Y011245D02*
X012669Y011304D01*
X012487Y011364D02*
X012607Y011244D01*
X012484Y011191D02*
X012605Y011312D01*
X012343Y011364D02*
X012517Y011191D01*
X012415Y011364D02*
X012567Y011212D01*
X012340Y011191D02*
X012514Y011364D01*
X012272D02*
X012445Y011191D01*
X012268D02*
X012442Y011364D01*
X012203Y011577D02*
X012335Y011445D01*
X011243Y011364D02*
X012555D01*
X012125Y011191D02*
X012298Y011364D01*
X012056D02*
X012230Y011191D01*
X012053D02*
X012227Y011364D01*
X012489Y011110D02*
X012555D01*
X012556Y011047D02*
X012582Y011073D01*
X012520Y011083D02*
X012547Y011110D01*
X012197Y011191D02*
X012370Y011364D01*
X011227Y011191D02*
X012555D01*
X012128Y011364D02*
X012302Y011191D01*
X012412D02*
X012566Y011345D01*
X012200Y011364D02*
X012373Y011191D01*
X012030Y013539D02*
X012063Y013572D01*
X012089Y013526D02*
X012135Y013572D01*
X012004D02*
X012037Y013539D01*
X012076Y013572D02*
X012193Y013455D01*
X012126Y013491D02*
X012207Y013572D01*
X011932D02*
X011982Y013522D01*
X011645Y013572D02*
X011710Y013506D01*
X011857Y013510D02*
X011920Y013572D01*
X011620Y013488D02*
X011704Y013572D01*
X011884Y013465D02*
X011991Y013572D01*
X011860D02*
X011949Y013484D01*
X011788Y013572D02*
X011833Y013528D01*
X011811Y013536D02*
X011848Y013572D01*
X011716D02*
X011754Y013534D01*
X011877Y013484D02*
X011938Y013422D01*
X011870Y013379D02*
X011938Y013446D01*
X011585Y013524D02*
X011632Y013572D01*
X011573D02*
X011686Y013459D01*
X011527Y013539D02*
X011560Y013572D01*
X011634Y013430D02*
X011776Y013572D01*
X011429D02*
X011477Y013524D01*
X011501Y013572D02*
X011534Y013539D01*
X011352Y013507D02*
X011417Y013572D01*
X011377Y013461D02*
X011489Y013572D01*
X011357D02*
X011442Y013487D01*
X011226Y013525D02*
X011273Y013572D01*
X011307Y013535D02*
X011345Y013572D01*
X011214D02*
X011250Y013535D01*
X011285Y013572D02*
X011338Y013519D01*
X011080Y013522D02*
X011129Y013572D01*
X011142D02*
X011205Y013509D01*
X011360Y013497D02*
X011430Y013428D01*
X011125Y013424D02*
X011189Y013488D01*
X011126Y013444D02*
X011199Y013371D01*
X010998Y013572D02*
X011031Y013539D01*
X011025Y013539D02*
X011057Y013572D01*
X010926D02*
X010973Y013525D01*
X011114Y013485D02*
X011201Y013572D01*
X011070D02*
X011179Y013463D01*
X012061Y013283D02*
X012194Y013415D01*
X011883Y013405D02*
X012008Y013280D01*
X011855Y013361D02*
X011964Y013252D01*
X011872Y013237D02*
X011985Y013350D01*
X011835Y013272D02*
X011950Y013387D01*
X011634Y013439D02*
X011788Y013285D01*
X011776Y013285D02*
X011843Y013352D01*
X011557Y013282D02*
X011686Y013411D01*
X011619Y013382D02*
X011731Y013270D01*
X011603Y013256D02*
X011712Y013365D01*
X012087Y013346D02*
X012203Y013230D01*
X012025Y013335D02*
X012087Y013274D01*
X011888Y013181D02*
X012041Y013334D01*
X012131Y013230D02*
X012192Y013168D01*
X011630Y013211D02*
X011758Y013338D01*
X011808Y013337D02*
X011940Y013205D01*
X011582Y013347D02*
X011696Y013233D01*
X011614Y013243D02*
X011684Y013174D01*
X011376Y013409D02*
X011504Y013281D01*
X011273Y013285D02*
X011429Y013441D01*
X011350Y013364D02*
X011459Y013255D01*
X011331Y013270D02*
X011444Y013384D01*
X011112Y013386D02*
X011227Y013271D01*
X011212Y013358D02*
X011285Y013285D01*
X011053Y013281D02*
X011180Y013407D01*
X011098Y013253D02*
X011207Y013362D01*
X011077Y013349D02*
X011190Y013236D01*
X011366Y013234D02*
X011480Y013348D01*
X011523Y013335D02*
X011592Y013265D01*
X011304Y013338D02*
X011433Y013209D01*
X011380Y013176D02*
X011538Y013334D01*
X011123Y013207D02*
X011254Y013337D01*
X011020Y013334D02*
X011175Y013179D01*
X010972Y013271D02*
X011036Y013335D01*
X010846Y013504D02*
X010914Y013572D01*
X010854D02*
X010936Y013490D01*
X010803Y013533D02*
X010842Y013572D01*
X010870Y013456D02*
X010986Y013572D01*
X010870Y013456D02*
X010986Y013572D01*
X010782D02*
X010921Y013433D01*
X010711Y013572D02*
X010746Y013536D01*
X010729Y013530D02*
X010770Y013572D01*
X010639D02*
X010699Y013511D01*
X010608Y013481D02*
X010698Y013572D01*
X010363Y013452D02*
X010483Y013572D01*
X010616Y013418D02*
X010676Y013478D01*
X010617Y013450D02*
X010680Y013387D01*
X010575Y013520D02*
X010626Y013572D01*
X010495D02*
X010529Y013538D01*
X010521Y013539D02*
X010555Y013572D01*
X010423D02*
X010468Y013527D01*
X010567Y013572D02*
X010672Y013467D01*
X010229Y013534D02*
X010267Y013572D01*
X010299Y013532D02*
X010339Y013572D01*
X010208D02*
X010242Y013537D01*
X010280Y013572D02*
X010413Y013438D01*
X010341Y013502D02*
X010411Y013572D01*
X009992D02*
X010027Y013537D01*
X010136Y013572D02*
X010194Y013514D01*
X009920Y013572D02*
X009963Y013529D01*
X010101Y013478D02*
X010195Y013572D01*
X010064D02*
X010165Y013471D01*
X010351Y013572D02*
X010430Y013493D01*
X010107Y013412D02*
X010165Y013469D01*
X010070Y013518D02*
X010124Y013572D01*
X010108Y013456D02*
X010167Y013397D01*
X009849Y013572D02*
X009924Y013496D01*
X010018Y013538D02*
X010052Y013572D01*
X009777D02*
X009905Y013443D01*
X009980Y013285D02*
X010033Y013337D01*
X010771Y013285D02*
X010921Y013436D01*
X010869Y013413D02*
X011000Y013282D01*
X010720Y013347D02*
X010783Y013284D01*
X010844Y013366D02*
X010953Y013257D01*
X010826Y013268D02*
X010938Y013381D01*
X010549Y013279D02*
X010673Y013403D01*
X010606Y013389D02*
X010722Y013273D01*
X010362Y013417D02*
X010496Y013283D01*
X010592Y013250D02*
X010702Y013360D01*
X010572Y013351D02*
X010684Y013239D01*
X010860Y013231D02*
X010975Y013346D01*
X010800Y013339D02*
X010926Y013213D01*
X010616Y013202D02*
X010750Y013336D01*
X010871Y013170D02*
X010935Y013234D01*
X010616Y013202D02*
X010750Y013336D01*
X010475Y013276D02*
X010534Y013336D01*
X010354Y013227D02*
X010471Y013344D01*
X010517Y013334D02*
X010667Y013184D01*
X010267Y013285D02*
X010413Y013431D01*
X010222Y013342D02*
X010281Y013283D01*
X010110Y013271D02*
X010196Y013358D01*
X010339Y013369D02*
X010448Y013260D01*
X010321Y013266D02*
X010432Y013377D01*
X009705Y013572D02*
X009992Y013285D01*
X010052D02*
X010166Y013399D01*
X009908Y013285D02*
X009966Y013343D01*
X010100Y013392D02*
X010217Y013275D01*
X010067Y013353D02*
X010178Y013242D01*
X010362Y013164D02*
X010422Y013224D01*
X010362Y013202D02*
X010421Y013143D01*
X010296Y013340D02*
X010419Y013217D01*
X010110Y013080D02*
Y013285D01*
Y013199D02*
X010246Y013335D01*
X009905Y013285D02*
X010110D01*
X010014Y013334D02*
X010064Y013285D01*
X010110Y013239D02*
X010159Y013189D01*
X009905Y013080D02*
Y013285D01*
X012131Y013137D02*
X012192Y013198D01*
X011984Y011625D02*
X012042Y011682D01*
X011731Y011690D02*
X011788Y011632D01*
X011989Y011647D02*
X012191Y011445D01*
X011876D02*
X012048Y011617D01*
X011728Y011620D02*
X011904Y011445D01*
X011616Y013125D02*
X011684Y013192D01*
X011588Y011445D02*
X011786Y011642D01*
X011481Y011652D02*
X011688Y011445D01*
X011948D02*
X012080Y011577D01*
X011928Y011565D02*
X012048Y011445D01*
X011861Y011560D02*
X011976Y011445D01*
X012019D02*
X012131Y011557D01*
X011968Y011596D02*
X012119Y011445D01*
X011660D02*
X011809Y011593D01*
X011698Y011579D02*
X011832Y011445D01*
X011648Y011557D02*
X011760Y011445D01*
X011804D02*
X011921Y011562D01*
X011732Y011445D02*
X011850Y011563D01*
X011472Y011616D02*
X011532Y011676D01*
X011380Y013190D02*
X011453Y013117D01*
X011462Y011599D02*
X011617Y011445D01*
X011373D02*
X011541Y011613D01*
X011220Y011698D02*
X011279Y011639D01*
X010959Y011605D02*
X011023Y011670D01*
X010871Y013196D02*
X010934Y013133D01*
X011222Y011624D02*
X011401Y011445D01*
X011423Y011566D02*
X011545Y011445D01*
X011360Y011558D02*
X011473Y011445D01*
X011301D02*
X011422Y011565D01*
X011517Y011445D02*
X011628Y011556D01*
X011445Y011445D02*
X011575Y011575D01*
X011193Y011581D02*
X011329Y011445D01*
X011229D02*
X011346Y011562D01*
X011144Y011558D02*
X011257Y011445D01*
X011481Y011364D02*
X011655Y011191D01*
X011550D02*
X011724Y011364D01*
X011478Y011191D02*
X011652Y011364D01*
X011622Y011191D02*
X011796Y011364D01*
X011625D02*
X011799Y011191D01*
X011553Y011364D02*
X011727Y011191D01*
X011334D02*
X011508Y011364D01*
X011338D02*
X011511Y011191D01*
X011266Y011364D02*
X011440Y011191D01*
X011409Y011364D02*
X011583Y011191D01*
X011406D02*
X011580Y011364D01*
X011909Y011191D02*
X012083Y011364D01*
X011912D02*
X012086Y011191D01*
X011841Y011364D02*
X012014Y011191D01*
X011984Y011364D02*
X012158Y011191D01*
X011981D02*
X012155Y011364D01*
X011697D02*
X011871Y011191D01*
X011765D02*
X011939Y011364D01*
X011694Y011191D02*
X011867Y011364D01*
X011837Y011191D02*
X012011Y011364D01*
X011769D02*
X011942Y011191D01*
X011263D02*
X011436Y011364D01*
X011219Y011340D02*
X011368Y011191D01*
X011183Y011304D02*
X011296Y011191D01*
X011147Y011268D02*
X011224Y011191D01*
X011111Y011232D02*
X011181Y011162D01*
X010974Y011657D02*
X011198Y011432D01*
X010957Y011602D02*
X011162Y011396D01*
X010919Y011568D02*
X011126Y011361D01*
X010843Y011077D02*
X011198Y011433D01*
X010858Y011557D02*
X011090Y011325D01*
X011097Y011077D02*
X011198Y011179D01*
X011075Y011196D02*
X011145Y011126D01*
X011039Y011160D02*
X011109Y011090D01*
X011003Y011124D02*
X011085Y011042D01*
X010616Y013163D02*
X012059Y011720D01*
X010826Y013097D02*
X012165Y011758D01*
X010622Y011772D02*
X011964Y013113D01*
X010730Y011664D02*
X012202Y013136D01*
X010593Y013115D02*
X012039Y011669D01*
X010440Y011662D02*
X011940Y013161D01*
X010324Y011761D02*
X011696Y013133D01*
X010321Y013099D02*
X011664Y011756D01*
X010252Y011761D02*
X011589Y013098D01*
X010354Y013138D02*
X011793Y011699D01*
X010110Y013167D02*
X011554Y011723D01*
X010677Y011755D02*
X012008Y013085D01*
X010771Y013080D02*
X012099Y011752D01*
X010550Y013086D02*
X011876Y011760D01*
X010713Y011719D02*
X012085Y013091D01*
X010476Y013088D02*
X011825Y011740D01*
X010396Y011761D02*
X011731Y013096D01*
X010268Y013080D02*
X011595Y011754D01*
X010153Y011734D02*
X011504Y013084D01*
X010440Y011733D02*
X011787Y013080D01*
X010110Y013095D02*
X011532Y011673D01*
X010106Y011759D02*
X011458Y013111D01*
X010053Y013080D02*
X011372Y011761D01*
X010110Y013127D02*
X010159Y013177D01*
X009932Y011656D02*
X011432Y013157D01*
X009981Y013080D02*
X011319Y011742D01*
X009821Y011761D02*
X011190Y013130D01*
X009880Y011748D02*
X011226Y013094D01*
X009905Y013080D02*
X010110D01*
X009909D02*
X011287Y011703D01*
X009917Y011713D02*
X011284Y013080D01*
X010440Y011759D02*
X010509Y011691D01*
X010726Y011688D02*
X010770Y011645D01*
X010235Y011761D02*
X010440D01*
X010181Y011690D02*
X010235Y011744D01*
X009923Y011702D02*
X009983Y011642D01*
X010440Y011687D02*
X010513Y011614D01*
X010175Y011612D02*
X010235Y011672D01*
X010723Y011620D02*
X011054Y011289D01*
X010695Y011576D02*
X011018Y011253D01*
X010689Y011049D02*
X011279Y011638D01*
X010546Y011049D02*
X011070Y011573D01*
X010186Y011049D02*
X010772Y011634D01*
X010440Y011615D02*
X010910Y011145D01*
X010474Y011049D02*
X011035Y011610D01*
X010258Y011049D02*
X010797Y011588D01*
X010618Y011049D02*
X011125Y011556D01*
X010649Y011550D02*
X010982Y011217D01*
X010573Y011555D02*
X010946Y011181D01*
X010356Y011556D02*
X010839Y011073D01*
X010428Y011556D02*
X010875Y011109D01*
X009688Y011049D02*
X010688D01*
X010402D02*
X010925Y011571D01*
X010330Y011049D02*
X010842Y011560D01*
X010440Y011590D02*
X010504Y011654D01*
X010186Y011654D02*
X010235Y011605D01*
X010440Y011556D02*
Y011761D01*
X010235Y011556D02*
Y011761D01*
X009971Y011049D02*
X010521Y011599D01*
X009927Y011626D02*
X010504Y011049D01*
X009683Y011048D02*
X010235Y011600D01*
X010129Y011567D02*
X010648Y011049D01*
X010115D02*
X010612Y011546D01*
X010235Y011556D02*
X010440D01*
X010067Y011558D02*
X010576Y011049D01*
X010043D02*
X010557Y011563D01*
X009851Y011558D02*
X010360Y011049D01*
X009827D02*
X010335Y011556D01*
X009755Y011049D02*
X010263Y011556D01*
X009898Y011582D02*
X010432Y011049D01*
X009899D02*
X010407Y011556D01*
X014549Y010885D02*
X015020Y011356D01*
X014615Y010879D02*
X015020Y011284D01*
X014684Y011251D02*
X015020Y010915D01*
X014183Y011464D02*
X015020Y010628D01*
X014179Y010587D02*
X015020Y011428D01*
X014657Y010849D02*
X015020Y011212D01*
X014106Y011901D02*
X015020Y010987D01*
X014103Y011401D02*
X014638Y010866D01*
X014027Y011405D02*
X014548Y010885D01*
X014151Y011425D02*
X015020Y010556D01*
X014145Y010624D02*
X015020Y011500D01*
X014682Y010803D02*
X015020Y011140D01*
X014676Y010725D02*
X015020Y011068D01*
X014662Y011201D02*
X015020Y010843D01*
X014684Y010748D02*
X015020Y010412D01*
X014666Y010838D02*
X015020Y010484D01*
X014622Y011169D02*
X015020Y010772D01*
X014562Y011158D02*
X015020Y010700D01*
X014552Y010386D02*
X015020Y010853D01*
X014094Y010646D02*
X014614Y011165D01*
X014006Y010629D02*
X014539Y011162D01*
X013498Y010696D02*
X014492Y011690D01*
X013510Y010924D02*
X014003Y011417D01*
X013513Y011416D02*
X013956Y010973D01*
X013512Y011130D02*
X014010Y010632D01*
X013514Y010640D02*
X013971Y011097D01*
X014197Y011019D02*
X014457Y010759D01*
X014197Y010533D02*
X014459Y010795D01*
X013512Y010914D02*
X013958Y010468D01*
X013509Y010420D02*
X014005Y010916D01*
X014658Y010348D02*
X015020Y010709D01*
X014661Y010700D02*
X015020Y010340D01*
X014617Y010378D02*
X015020Y010781D01*
Y008076D02*
Y013158D01*
X014620Y010668D02*
X015020Y010269D01*
X014683Y010301D02*
X015020Y010637D01*
X014146Y010123D02*
X015020Y010997D01*
X014182Y010963D02*
X015020Y010125D01*
X014559Y010658D02*
X015020Y010197D01*
X014149Y010924D02*
X015020Y010053D01*
X014180Y010085D02*
X015020Y010925D01*
X014671Y010330D02*
X015020Y009981D01*
X014683Y010246D02*
X015020Y009909D01*
X014674Y010220D02*
X015020Y010566D01*
X014659Y010198D02*
X015020Y009838D01*
X014660Y009846D02*
X015020Y010206D01*
X014148Y009622D02*
X015020Y010494D01*
X014181Y010461D02*
X015020Y009622D01*
X014556Y009886D02*
X015020Y010350D01*
X014148Y010422D02*
X015020Y009550D01*
X014181Y009583D02*
X015020Y010422D01*
X014023Y010907D02*
X014545Y010384D01*
X014101Y010900D02*
X014630Y010371D01*
X014197Y010517D02*
X014458Y010256D01*
X014097Y010145D02*
X014619Y010667D01*
X014013Y010133D02*
X014541Y010661D01*
X013501Y011356D02*
X014497Y010360D01*
X013502Y010341D02*
X014058Y010897D01*
X013514Y010137D02*
X013965Y010588D01*
X013503Y010851D02*
X014496Y009859D01*
X013512Y010627D02*
X014008Y010131D01*
X014017Y010409D02*
X014543Y009883D01*
X014197Y010030D02*
X014458Y010291D01*
X014619Y009877D02*
X015020Y010278D01*
X014099Y010400D02*
X014623Y009875D01*
X013503Y009983D02*
X013969Y010449D01*
X013514Y009922D02*
X014007Y010415D01*
X013511Y010413D02*
X013961Y009962D01*
X013505Y010347D02*
X014494Y009357D01*
X013514Y009850D02*
X014061Y010397D01*
X013484Y010969D02*
X013967Y011453D01*
X013493Y010834D02*
X014056Y011398D01*
X013438Y010995D02*
X013947Y011505D01*
X013462Y010732D02*
X014463Y011733D01*
X013467Y011319D02*
X014467Y010319D01*
X013488Y011082D02*
X013972Y010598D01*
X012137Y013151D02*
X014467Y010821D01*
X012279Y013081D02*
X014499Y010861D01*
X013369Y011057D02*
X013429Y010998D01*
X013411Y011302D02*
X014066Y010648D01*
X012750Y011389D02*
X013395Y010744D01*
X013444Y011054D02*
X013949Y010549D01*
X013434Y010488D02*
X013948Y011002D01*
X013403Y010745D02*
X013473Y010815D01*
X013481Y010464D02*
X013968Y010951D01*
X013378Y010546D02*
X013435Y010488D01*
X013348Y010977D02*
X013419Y011048D01*
X012751Y010885D02*
X013400Y010236D01*
X012741Y011613D02*
X013366Y010988D01*
X012740Y010944D02*
X013356Y011560D01*
X012751Y010883D02*
X013321Y011453D01*
X012728Y011339D02*
X013346Y010721D01*
X012724Y010712D02*
X013341Y011330D01*
X012706Y010982D02*
X013318Y011594D01*
X012708Y011575D02*
X013327Y010955D01*
X012651Y010999D02*
X013299Y011646D01*
X012680Y010740D02*
X013314Y011374D01*
X012654Y011556D02*
X013309Y010902D01*
X012749Y010666D02*
X013388Y011305D01*
X012743Y011109D02*
X013369Y010482D01*
X012749Y011175D02*
X013314Y010609D01*
X012738Y010439D02*
X013361Y011062D01*
X012751Y010381D02*
X013331Y010960D01*
X012686Y011309D02*
X013316Y010680D01*
X012703Y010476D02*
X013324Y011097D01*
X012646Y010491D02*
X013309Y011154D01*
X012711Y011069D02*
X013329Y010450D01*
X012659Y011049D02*
X013309Y010399D01*
X013458Y010226D02*
X014464Y011231D01*
X013496Y010192D02*
X014493Y011188D01*
X013416Y010794D02*
X014063Y010148D01*
X013470Y010813D02*
X014466Y009817D01*
X013490Y010577D02*
X013970Y010097D01*
X011397Y007661D02*
X014465Y010729D01*
X011469Y007661D02*
X014495Y010687D01*
X010391Y010659D02*
X013389Y007661D01*
X010391Y010803D02*
X013532Y007661D01*
X010391Y010731D02*
X013460Y007661D01*
X013448Y010547D02*
X013948Y010047D01*
X013431Y009983D02*
X013948Y010500D01*
X013397Y010236D02*
X013459Y010298D01*
X013473Y010307D02*
X014465Y009315D01*
X013421Y010287D02*
X014061Y009647D01*
X012732Y010329D02*
X014740Y008321D01*
X012752Y009878D02*
X013414Y010540D01*
X012693Y010296D02*
X014669Y008321D01*
X011900Y007661D02*
X014466Y010227D01*
X012730Y010834D02*
X013349Y010216D01*
X012748Y010162D02*
X013384Y010798D01*
X012747Y010674D02*
X013312Y010108D01*
X012744Y010604D02*
X013366Y009983D01*
X012731Y010072D02*
X013309Y010651D01*
X012722Y010207D02*
X013339Y010824D01*
X012690Y010803D02*
X013317Y010175D01*
X012676Y010233D02*
X013312Y010870D01*
X012700Y009970D02*
X013322Y010592D01*
X010391Y010587D02*
X013317Y007661D01*
X012714Y010563D02*
X013309Y009968D01*
X012736Y009934D02*
X013357Y010555D01*
X012664Y010541D02*
X013309Y009896D01*
X012562Y009473D02*
X013380Y010291D01*
X012751Y010382D02*
X013309Y009824D01*
X012562Y009617D02*
X013311Y010366D01*
X012562Y009545D02*
X013336Y010319D01*
X010391Y010372D02*
X013101Y007661D01*
X010391Y010515D02*
X013245Y007661D01*
X010391Y010444D02*
X013173Y007661D01*
X014670Y009713D02*
X015020Y010063D01*
X014674Y009824D02*
X015020Y009478D01*
X014684Y009798D02*
X015020Y010135D01*
X014661Y009345D02*
X015020Y009703D01*
X014658Y009696D02*
X015020Y009335D01*
X014683Y009743D02*
X015020Y009407D01*
X014555Y010158D02*
X015020Y009694D01*
X014559Y009386D02*
X015020Y009847D01*
X014618Y010167D02*
X015020Y009766D01*
X014180Y009959D02*
X015020Y009119D01*
X014621Y009376D02*
X015020Y009775D01*
X014664Y009204D02*
X015020Y009560D01*
X014677Y009318D02*
X015020Y008975D01*
X014684Y009296D02*
X015020Y009632D01*
X014657Y009195D02*
X015020Y008832D01*
X014682Y009241D02*
X015020Y008904D01*
X014614Y009165D02*
X015020Y008760D01*
X014548Y009160D02*
X015020Y008688D01*
X014616Y009666D02*
X015020Y009263D01*
X014144Y009420D02*
X015020Y008544D01*
X014179Y009457D02*
X015020Y008616D01*
X014099Y009645D02*
X014624Y010170D01*
X014197Y010014D02*
X014458Y009752D01*
X014146Y009921D02*
X015020Y009047D01*
X014096Y009899D02*
X014618Y009377D01*
X014018Y009636D02*
X014543Y010161D01*
X014011Y009912D02*
X014541Y009383D01*
X014197Y009511D02*
X014459Y009249D01*
X014197Y009527D02*
X014458Y009788D01*
X014552Y009659D02*
X015020Y009191D01*
X014780Y008315D02*
X015020Y008554D01*
X014834Y008297D02*
X015020Y008482D01*
X014717Y008323D02*
X015020Y008626D01*
X014922Y008241D02*
X015020Y008338D01*
X014957Y008204D02*
X015020Y008267D01*
X014881Y008272D02*
X015020Y008410D01*
X014004Y009416D02*
X015020Y008401D01*
X014638Y008316D02*
X015020Y008698D01*
X014094Y009399D02*
X015020Y008473D01*
X014485Y008234D02*
X015020Y008770D01*
X015009Y008112D02*
X015020Y008123D01*
X015012Y007900D02*
X015020Y007907D01*
X015001Y008133D02*
X015020Y008113D01*
X014993Y007853D02*
X015020Y007826D01*
X015014Y007904D02*
X015020Y007898D01*
X014965Y007809D02*
X015020Y007754D01*
X014932Y007771D02*
X015020Y007682D01*
X014986Y008161D02*
X015020Y008195D01*
X014917Y007661D02*
X015020Y007764D01*
X014845Y007661D02*
X015020Y007836D01*
X014414Y007661D02*
X014504Y007751D01*
X014486Y007661D02*
X014547Y007722D01*
X014342Y007661D02*
X014467Y007786D01*
X015020Y007661D02*
Y007926D01*
X014892Y007738D02*
X014969Y007661D01*
X013983Y007661D02*
X014392Y008070D01*
X014127Y007661D02*
X014393Y007927D01*
X014055Y007661D02*
X014385Y007991D01*
X014270Y007661D02*
X014436Y007826D01*
X014199Y007661D02*
X014411Y007873D01*
X014773Y007661D02*
X014808Y007695D01*
X014795Y007691D02*
X014826Y007661D01*
X014735Y007680D02*
X014754Y007661D01*
X014989Y007661D02*
X015020Y007692D01*
X014847Y007711D02*
X014898Y007661D01*
X014553Y007718D02*
X014610Y007661D01*
X014630Y007661D02*
X014652Y007684D01*
X014558Y007661D02*
X014596Y007699D01*
X014701Y007661D02*
X014720Y007679D01*
X014661Y007682D02*
X014682Y007661D01*
X013513Y010123D02*
X014006Y009630D01*
X013492Y010072D02*
X013969Y009595D01*
X012744Y010174D02*
X014610Y008308D01*
X012746Y010100D02*
X014559Y008287D01*
X012717Y010057D02*
X014514Y008259D01*
X012668Y010034D02*
X014476Y008226D01*
X011756Y007661D02*
X014009Y009914D01*
X011685Y007661D02*
X013971Y009947D01*
X011972Y007661D02*
X014496Y010186D01*
X011828Y007661D02*
X014064Y009897D01*
X013514Y009835D02*
X015020Y008329D01*
X013499Y009778D02*
X015020Y008257D01*
X013355Y009778D02*
X014838Y008295D01*
X013427Y009778D02*
X015020Y008185D01*
X012752Y009879D02*
X014443Y008187D01*
X012735Y009824D02*
X014417Y008142D01*
X012697Y009790D02*
X014397Y008090D01*
X012636Y009779D02*
X014386Y008029D01*
X012562Y009709D02*
X014423Y007848D01*
X012562Y009781D02*
X014388Y007955D01*
X013452Y010041D02*
X013509Y009983D01*
X013385Y010036D02*
X013437Y009983D01*
X013360D02*
X013409Y010032D01*
X013309Y009983D02*
X013514D01*
X013309Y009778D02*
Y009983D01*
X012562Y009329D02*
X013320Y010087D01*
X012562Y009258D02*
X013354Y010049D01*
X012562Y009401D02*
X013310Y010149D01*
X011541Y007661D02*
X013961Y010081D01*
X011613Y007661D02*
X013949Y009997D01*
X013514Y009979D02*
X013948Y009544D01*
X013309Y009778D02*
X013514D01*
Y009983D01*
Y009907D02*
X013965Y009455D01*
X012675Y009083D02*
X013370Y009778D01*
X012594Y009146D02*
X013309Y009860D01*
X012648Y009128D02*
X013309Y009789D01*
X012562Y009186D02*
X013309Y009932D01*
X012044Y007661D02*
X013958Y009575D01*
X012547Y008883D02*
X013442Y009778D01*
X013193Y007661D02*
X015020Y009488D01*
X013265Y007661D02*
X015020Y009416D01*
X012762Y007661D02*
X015020Y009919D01*
X013409Y007661D02*
X015020Y009272D01*
X013337Y007661D02*
X015020Y009344D01*
X012618Y007661D02*
X014631Y009674D01*
X012547Y007661D02*
X014546Y009660D01*
X012475Y007661D02*
X014498Y009684D01*
X012690Y007661D02*
X015020Y009991D01*
X012562Y009637D02*
X014538Y007661D01*
X013696Y007661D02*
X015020Y008985D01*
X013768Y007661D02*
X015020Y008913D01*
X013624Y007661D02*
X015020Y009057D01*
X013840Y007661D02*
X015020Y008841D01*
X013911Y007661D02*
X014473Y008223D01*
X013121Y007661D02*
X014639Y009179D01*
X013049Y007661D02*
X014548Y009160D01*
X012978Y007661D02*
X014499Y009183D01*
X013552Y007661D02*
X015020Y009129D01*
X013480Y007661D02*
X015020Y009201D01*
X012562Y009421D02*
X014323Y007661D01*
X012834Y007661D02*
X014457Y009285D01*
X012562Y009350D02*
X014251Y007661D01*
X012562Y009565D02*
X014466Y007661D01*
X012562Y009493D02*
X014395Y007661D01*
X012187Y007661D02*
X013972Y009446D01*
X012259Y007661D02*
X014010Y009413D01*
X012116Y007661D02*
X013949Y009495D01*
X012403Y007661D02*
X014467Y009725D01*
X012331Y007661D02*
X014066Y009397D01*
X012906Y007661D02*
X014468Y009223D01*
X012667Y009030D02*
X014035Y007661D01*
X012629Y008996D02*
X013963Y007661D01*
X012562Y009278D02*
X014179Y007661D01*
X012671Y009097D02*
X014107Y007661D01*
X012549Y008859D02*
X013748Y007661D01*
X012527Y008810D02*
X013676Y007661D01*
X012479Y008787D02*
X013604Y007661D01*
X012512Y009041D02*
X013892Y007661D01*
X012512Y008969D02*
X013820Y007661D01*
X012526Y011110D02*
X012638Y010998D01*
X012592Y011011D02*
X012630Y011050D01*
X012386Y011034D02*
X012426Y010994D01*
X012500Y011103D02*
X012611Y010992D01*
X012455Y011034D02*
X012554Y010935D01*
X012356Y010991D02*
X012399Y011034D01*
X012148Y010999D02*
X012184Y011034D01*
X011447D02*
X012455D01*
X012099D02*
X012134Y010999D01*
X012314Y011034D02*
X012357Y010992D01*
X011989Y010911D02*
X012112Y011034D01*
X012472Y010964D02*
X012499Y010990D01*
X012496Y010915D02*
X012535Y010954D01*
X012430Y010993D02*
X012463Y011026D01*
X012493Y010928D02*
X012550Y010870D01*
X012243Y011034D02*
X012316Y010961D01*
X012234Y010941D02*
X012327Y011034D01*
X012201Y010980D02*
X012256Y011034D01*
X012242Y010877D02*
X012300Y010935D01*
X012171Y011034D02*
X012294Y010911D01*
X011926Y010992D02*
X011968Y011034D01*
X012027D02*
X012081Y010980D01*
X011883Y011034D02*
X011926Y010991D01*
X011955Y011034D02*
X012049Y010941D01*
X011967Y010961D02*
X012040Y011034D01*
X011812D02*
X011853Y010993D01*
X011856Y010994D02*
X011896Y011034D01*
X011524D02*
X011577Y010982D01*
X011727Y010937D02*
X011825Y011034D01*
X011740D02*
X011810Y010964D01*
X011696Y010978D02*
X011753Y011034D01*
X011668D02*
X011787Y010916D01*
X011645Y010998D02*
X011681Y011034D01*
X011982Y010936D02*
X012041Y010877D01*
X011732Y010870D02*
X011790Y010927D01*
X011452Y011034D02*
X011542Y010944D01*
X011596Y011034D02*
X011631Y010999D01*
X011461Y010958D02*
X011537Y011034D01*
X011481Y010906D02*
X011609Y011034D01*
X011469Y010946D02*
X011532Y010883D01*
X012462Y010810D02*
X012547Y010894D01*
X012490Y010858D02*
X012611Y010738D01*
X012524Y010799D02*
X012564Y010840D01*
X012224Y010837D02*
X012252Y010810D01*
X012243Y010890D02*
X012323Y010810D01*
X012247D02*
X012299Y010862D01*
X012560Y010764D02*
X012602Y010806D01*
X012623Y010798D02*
X012680Y010740D01*
X012601Y010733D02*
X012663Y010795D01*
X012525Y010798D02*
X012594Y010729D01*
X012195Y010810D02*
X012341D01*
X012449D02*
X012497D01*
X012318D02*
X012328Y010819D01*
X012460Y010817D02*
X012467Y010810D01*
X011736Y010895D02*
X011821Y010810D01*
X011959D02*
X012039Y010890D01*
X011984Y010862D02*
X012036Y010810D01*
X011456D02*
X011531Y010885D01*
X011477Y010866D02*
X011533Y010810D01*
X011816D02*
X011823Y010817D01*
X011941Y010810D02*
X012087D01*
X011744D02*
X011792Y010858D01*
X012031Y010810D02*
X012058Y010837D01*
X011955Y010819D02*
X011964Y010810D01*
X011528D02*
X011552Y010834D01*
X011433Y010810D02*
X011579D01*
X011449Y010822D02*
X011461Y010810D01*
X011687D02*
X011833D01*
X011719Y010840D02*
X011749Y010810D01*
X010917Y010988D02*
X011293Y011364D01*
X011421Y010990D02*
X011465Y011034D01*
X011085Y010991D02*
Y011049D01*
X010955Y010955D02*
X011364Y011364D01*
X010967Y011088D02*
X011072Y010984D01*
X010931Y011052D02*
X011036Y010947D01*
X010733Y011020D02*
X011303Y011590D01*
X010911Y011032D02*
X011243Y011364D01*
X010284Y011556D02*
X010831Y011009D01*
X010769Y010984D02*
X010831Y011047D01*
Y010991D02*
Y011049D01*
X011419Y011007D02*
X011447Y011034D01*
X011419Y010995D02*
X011428Y010987D01*
X011419Y010991D02*
Y011007D01*
X010974Y010902D02*
X011085Y011013D01*
X010911Y010991D02*
Y011032D01*
Y011001D02*
X010936Y010976D01*
X010951Y010961D02*
X011023Y010889D01*
X010716Y011037D02*
X010773Y010980D01*
X010512Y010968D02*
X010530Y010951D01*
X010441Y010968D02*
X010515Y010894D01*
X010168Y011600D02*
X010799Y010969D01*
X010411Y010968D02*
X010544D01*
X010157D02*
X010265D01*
X010433Y010935D02*
X010465Y010968D01*
X010167Y010957D02*
X010178Y010968D01*
X010225D02*
X010248Y010946D01*
X009938Y010968D02*
X009984Y010922D01*
X010186Y010904D02*
X010250Y010968D01*
X009704D02*
X009757D01*
X009903D02*
X010011D01*
X009722D02*
X009742Y010949D01*
X009926Y010932D02*
X009963Y010968D01*
X010953Y010810D02*
X011024Y010880D01*
X010970Y010870D02*
X011030Y010810D01*
X010436Y010867D02*
X010537Y010968D01*
X010440Y010897D02*
X012417Y008920D01*
X010391Y010750D02*
X010517Y010876D01*
X011025Y010810D02*
X011047Y010831D01*
X010925Y010810D02*
X011071D01*
X010944Y010824D02*
X010958Y010810D01*
X010671Y010810D02*
X012431Y009050D01*
X010716Y010817D02*
X010792Y010741D01*
X010391Y010534D02*
X010660Y010803D01*
X010391Y010606D02*
X010584Y010800D01*
X010391Y010678D02*
X010541Y010828D01*
X010424Y010841D02*
X012393Y008872D01*
X010391Y010462D02*
X010731Y010803D01*
X010171Y010951D02*
X010236Y010886D01*
X010182Y010868D02*
X010285Y010765D01*
X010100Y010746D02*
X010236Y010883D01*
X009925Y010859D02*
X009984Y010917D01*
X009932Y010902D02*
X010088Y010746D01*
X009884D02*
X009991Y010853D01*
X010171Y010746D02*
X010258Y010833D01*
X010155Y010823D02*
X010232Y010746D01*
X010109Y010797D02*
X010160Y010746D01*
X010391Y010693D02*
Y010809D01*
X010285Y010746D02*
Y010809D01*
X009882Y010808D02*
X009944Y010746D01*
X009812D02*
X009867Y010801D01*
X009740Y010746D02*
X009795Y010800D01*
X009956Y010746D02*
X010024Y010814D01*
X009918Y010844D02*
X010016Y010746D01*
X012598Y010535D02*
X012642Y010491D01*
X012562Y010499D02*
X012589Y010472D01*
X012512Y010448D02*
X012611Y010548D01*
X012526Y010463D02*
X012557Y010433D01*
X012443Y010493D02*
X012554Y010604D01*
X012512Y010428D02*
X012626Y010543D01*
X012512Y010406D02*
X012549Y010369D01*
X012582Y010264D02*
X012615Y010231D01*
X012562Y010245D02*
X012611Y010294D01*
X012630Y010288D02*
X012688Y010229D01*
X012586Y010215D02*
X012657Y010286D01*
X012562Y010212D02*
X012572Y010202D01*
X012562Y010192D02*
X012569Y010198D01*
X012512Y010308D02*
X012554Y010350D01*
X012562Y010189D02*
Y010245D01*
X012476Y010729D02*
X012548Y010657D01*
X012480Y010729D02*
X012548Y010661D01*
X012404Y010729D02*
X012541Y010592D01*
X012332Y010729D02*
X012506Y010556D01*
X012260Y010729D02*
X012470Y010520D01*
X011659Y010729D02*
X012480D01*
X012512Y010356D02*
X012547Y010392D01*
X012512Y010334D02*
X012525Y010321D01*
X012512Y010308D02*
Y010448D01*
X012116Y010729D02*
X012431Y010415D01*
X012188Y010729D02*
X012435Y010482D01*
X012044Y010729D02*
X012431Y010343D01*
X011901Y010729D02*
X012431Y010199D01*
X011973Y010729D02*
X012431Y010271D01*
X012562Y010068D02*
X012647Y009983D01*
X012562Y010048D02*
X012577Y010062D01*
X012641Y009983D02*
X012711Y010053D01*
X012562Y009976D02*
X012622Y010036D01*
X012562Y009935D02*
Y010080D01*
Y009996D02*
X012593Y009966D01*
X012562Y009760D02*
X012595Y009793D01*
X012562Y009161D02*
Y009826D01*
Y009689D02*
X012652Y009778D01*
X012562Y009206D02*
X012628Y009140D01*
X012562Y009161D02*
X012579Y009144D01*
X012512Y008991D02*
X012538Y009018D01*
X012519Y008927D02*
X012583Y008991D01*
X012512Y009098D02*
X012523Y009087D01*
X011757Y010729D02*
X012431Y010055D01*
X011685Y010729D02*
X012431Y009983D01*
X011829Y010729D02*
X012431Y010127D01*
X011542Y010729D02*
X012431Y009840D01*
X011613Y010730D02*
X012431Y009912D01*
X011326Y010729D02*
X012431Y009624D01*
X011254Y010729D02*
X012431Y009552D01*
X011470Y010729D02*
X012431Y009768D01*
X011039Y010729D02*
X012431Y009337D01*
X011111Y010729D02*
X012431Y009409D01*
X012512Y008932D02*
Y009098D01*
Y009063D02*
X012520Y009072D01*
X011398Y010729D02*
X012431Y009696D01*
X011325Y007662D02*
X012453Y008789D01*
X012431Y008932D02*
Y010465D01*
X011038Y007662D02*
X012431Y009055D01*
X011110Y007662D02*
X012431Y008983D01*
X011182Y010729D02*
X012431Y009481D01*
X011254Y007662D02*
X012409Y008817D01*
X011182Y007662D02*
X012394Y008873D01*
X010820Y010729D02*
X011608D01*
X010967D02*
X012431Y009265D01*
X010895Y010729D02*
X012431Y009193D01*
X010391Y010319D02*
X010805Y010733D01*
X009819Y009244D02*
X011304Y010729D01*
X009819Y009173D02*
X011376Y010729D01*
X010391Y010391D02*
X010767Y010767D01*
X009857Y009067D02*
X011520Y010729D01*
X009834Y009116D02*
X011448Y010729D01*
X010415Y010272D02*
X010873Y010729D01*
X010391Y010319D02*
Y010693D01*
X010823Y010729D02*
X012431Y009121D01*
X009842Y009554D02*
X011017Y010729D01*
X009857Y009497D02*
X011089Y010729D01*
X009799Y009583D02*
X010945Y010729D01*
X009819Y009316D02*
X011232Y010729D01*
X009819Y009388D02*
X011161Y010729D01*
X010265Y010641D02*
X010285Y010621D01*
X010194Y010641D02*
X010285Y010549D01*
X010243Y010746D02*
X010285Y010788D01*
Y010319D02*
Y010641D01*
X010122D02*
X010285Y010477D01*
X010028Y010746D02*
X010076Y010794D01*
X010050Y010641D02*
X010285Y010406D01*
X009824Y010794D02*
X009872Y010746D01*
X009978Y010641D02*
X010285Y010334D01*
X009906Y010641D02*
X010263Y010284D01*
X009755Y009611D02*
X010328Y010184D01*
X009819Y009127D02*
Y009440D01*
X009679Y009679D02*
X010260Y010260D01*
X009730Y009659D02*
X010280Y010209D01*
X009718Y008999D02*
X009724Y009005D01*
X009718Y008998D02*
Y009012D01*
X009889Y007662D02*
X012431Y010204D01*
X010360Y010187D02*
X012886Y007661D01*
X010615Y010794D02*
X012431Y008978D01*
X010415Y010276D02*
X013029Y007661D01*
X010402Y010217D02*
X012957Y007661D01*
X009691Y010641D02*
X012670Y007661D01*
X009817Y007662D02*
X012431Y010276D01*
X009745Y007662D02*
X012431Y010348D01*
X009834Y010641D02*
X012814Y007661D01*
X009763Y010641D02*
X012742Y007661D01*
X010464Y007662D02*
X012431Y009629D01*
X010535Y007662D02*
X012431Y009558D01*
X010392Y007662D02*
X012431Y009701D01*
X010679Y007662D02*
X012431Y009414D01*
X010607Y007662D02*
X012431Y009486D01*
X010104Y007662D02*
X012431Y009989D01*
X010176Y007662D02*
X012431Y009917D01*
X010033Y007662D02*
X012431Y010060D01*
X010320Y007662D02*
X012431Y009773D01*
X010248Y007662D02*
X012431Y009845D01*
X010751Y007662D02*
X012431Y009342D01*
X010823Y007662D02*
X012431Y009270D01*
X009961Y007662D02*
X012431Y010132D01*
X010894Y007662D02*
X012431Y009198D01*
X009850Y009475D02*
X011664Y007661D01*
X009819Y009291D02*
X011449Y007661D01*
X009819Y009219D02*
X011377Y007662D01*
X009819Y009147D02*
X011305Y007662D01*
X009819Y009435D02*
X011592Y007661D01*
X009819Y009363D02*
X011520Y007661D01*
X010966Y007662D02*
X012431Y009127D01*
X009768Y008983D02*
X011089Y007662D01*
X009755Y008924D02*
X011017Y007662D01*
X009855Y009040D02*
X011233Y007662D01*
X009825Y008997D02*
X011161Y007662D01*
X009750Y008960D02*
X009773Y008982D01*
X009732Y008875D02*
X010946Y007662D01*
X009683Y008853D02*
X010874Y007662D01*
X009561Y013572D02*
X009905Y013228D01*
X009633Y013572D02*
X009920Y013285D01*
X009489Y013572D02*
X009905Y013156D01*
X009458Y013122D02*
X009908Y013572D01*
X009440Y013032D02*
X009980Y013572D01*
X009417D02*
X009905Y013084D01*
X008674Y012697D02*
X009549Y013572D01*
X009333Y013213D02*
X009692Y013572D01*
X008945Y013040D02*
X009477Y013572D01*
X008627D02*
X010438Y011761D01*
X008707Y012658D02*
X009621Y013572D01*
X009435Y013171D02*
X009836Y013572D01*
X009222Y012598D02*
X009905Y013282D01*
X009395Y013202D02*
X009764Y013572D01*
X009411Y013004D02*
X010647Y011768D01*
X009359Y012984D02*
X010578Y011765D01*
X009208Y012656D02*
X009926Y013375D01*
X008602Y011763D02*
X009919Y013080D01*
X009175Y012696D02*
X009906Y013426D01*
X008961Y013095D02*
X010294Y011761D01*
X008720Y012617D02*
X009576Y011761D01*
X008934Y013173D02*
X009333Y013572D01*
X008986D02*
X009345Y013213D01*
X008915Y013572D02*
X009289Y013198D01*
X008958Y013125D02*
X009405Y013572D01*
X008843D02*
X009251Y013163D01*
X008893Y013203D02*
X009261Y013572D01*
X008830Y013212D02*
X009190Y013572D01*
X008771D02*
X009232Y013111D01*
X009128Y012720D02*
X009413Y013005D01*
X009052Y012716D02*
X009322Y012986D01*
X008722Y012601D02*
X009232Y013111D01*
X008856Y012984D02*
X009118Y012722D01*
X008625Y012720D02*
X008904Y012999D01*
X009274Y013572D02*
X011091Y011755D01*
X009346Y013572D02*
X011164Y011753D01*
X009318Y011761D02*
X010684Y013127D01*
X009202Y013572D02*
X011048Y011726D01*
X009674Y011686D02*
X011175Y013187D01*
X009510Y011737D02*
X010926Y013153D01*
X008699Y013572D02*
X010535Y011736D01*
X009058Y013572D02*
X010869Y011761D01*
X009018Y011748D02*
X010419Y013149D01*
X009130Y013572D02*
X011025Y011678D01*
X009168Y011682D02*
X010667Y013182D01*
X009602Y011758D02*
X010953Y013108D01*
X009648Y011731D02*
X011000Y013083D01*
X009461Y013097D02*
X010815Y011744D01*
X009411Y011710D02*
X010782Y013081D01*
X009446Y013041D02*
X010780Y011706D01*
X009375Y011746D02*
X010721Y013092D01*
X009142Y011729D02*
X010496Y013082D01*
X009098Y011756D02*
X010448Y013106D01*
X009142Y011729D02*
X010496Y013082D01*
X008904Y011706D02*
X010280Y013082D01*
X008944Y013039D02*
X010235Y011748D01*
X009220Y012620D02*
X010079Y011761D01*
X009214Y012554D02*
X010025Y011743D01*
X008909Y013002D02*
X010235Y011676D01*
X009186Y012511D02*
X009992Y011704D01*
X008815Y011761D02*
X010178Y013123D01*
X008870Y011744D02*
X010217Y013090D01*
X008713Y012552D02*
X009520Y011745D01*
X008669Y011687D02*
X010063Y013080D01*
X008644Y011734D02*
X009991Y013080D01*
X009143Y012482D02*
X009873Y011751D01*
X009424Y011651D02*
X009497Y011724D01*
X009409Y011713D02*
X009474Y011648D01*
X008684Y012509D02*
X009486Y011708D01*
X009079Y012474D02*
X009797Y011756D01*
X008641Y012481D02*
X009376Y011745D01*
X008484Y013572D02*
X008842Y013213D01*
X008457Y013127D02*
X008902Y013572D01*
X008391Y013204D02*
X008759Y013572D01*
X008206Y012660D02*
X009118Y013572D01*
X008555D02*
X010366Y011761D01*
X008448Y013046D02*
X008974Y013572D01*
X008196D02*
X009052Y012716D01*
X005122Y013572D02*
X015020D01*
X008172Y012698D02*
X009046Y013572D01*
X008124D02*
X009008Y012688D01*
X008052Y013572D02*
X008979Y012645D01*
X008461Y013092D02*
X008972Y012581D01*
X008547Y012714D02*
X008820Y012987D01*
X008536Y011769D02*
X009905Y013138D01*
X008412Y013572D02*
X008787Y013197D01*
X008432Y013174D02*
X008830Y013572D01*
X008340D02*
X008750Y013162D01*
X008221Y012604D02*
X008732Y013115D01*
X008268Y013572D02*
X008732Y013108D01*
X007981Y013572D02*
X008339Y013213D01*
X008326Y013212D02*
X008687Y013572D01*
X007909D02*
X008285Y013196D01*
X007951Y013052D02*
X008471Y013572D01*
X007931Y013176D02*
X008327Y013572D01*
X007671Y012699D02*
X008543Y013572D01*
X007693D02*
X008550Y012715D01*
X007621Y013572D02*
X008507Y012687D01*
X007705Y012662D02*
X008615Y013572D01*
X007550D02*
X008479Y012643D01*
X008353Y012984D02*
X008614Y012723D01*
X007957Y013129D02*
X008399Y013572D01*
X008123Y012721D02*
X008398Y012996D01*
X008042Y012712D02*
X008317Y012987D01*
X007721Y012610D02*
X008560Y011772D01*
X007961Y013089D02*
X008472Y012578D01*
X008443Y013037D02*
X009754Y011727D01*
X007942Y013036D02*
X009248Y011730D01*
X007906Y013000D02*
X009222Y011684D01*
X007441Y010746D02*
X009905Y013210D01*
X008408Y013001D02*
X009730Y011679D01*
X006940Y013032D02*
X008999Y010973D01*
X006902Y012998D02*
X008971Y010929D01*
X007209Y012619D02*
X008831Y010998D01*
X007036Y010772D02*
X009273Y013009D01*
X007088Y010752D02*
X008978Y012642D01*
X008221Y012614D02*
X009073Y011761D01*
X008575Y012475D02*
X009293Y011757D01*
X008212Y012550D02*
X009016Y011747D01*
X008183Y012508D02*
X008980Y011711D01*
X008138Y012480D02*
X008966Y011653D01*
X007568Y012476D02*
X009047Y010997D01*
X007370Y010746D02*
X009096Y012473D01*
X007298Y010746D02*
X009038Y012487D01*
X007226Y010746D02*
X008999Y012519D01*
X007154Y010746D02*
X008974Y012567D01*
X007441Y013034D02*
X008743Y011732D01*
X007404Y012999D02*
X008716Y011688D01*
X007711Y012548D02*
X008503Y011756D01*
X007202Y012554D02*
X008768Y010988D01*
X007172Y012512D02*
X008730Y010955D01*
X006439Y013030D02*
X008494Y010975D01*
X006400Y012997D02*
X008464Y010933D01*
X006710Y012616D02*
X008463Y010862D01*
X006701Y012552D02*
X008507Y010746D01*
X005122Y009864D02*
X008270Y013012D01*
X007681Y012506D02*
X008466Y011722D01*
X008072Y012475D02*
X008789Y011758D01*
X007636Y012479D02*
X008447Y011669D01*
X007046Y012495D02*
X008543Y010998D01*
X007126Y012487D02*
X008711Y010901D01*
X006671Y012511D02*
X008436Y010746D01*
X006623Y012487D02*
X008364Y010746D01*
X006540Y012498D02*
X008292Y010746D01*
X009678Y011659D02*
X010289Y011049D01*
X009662Y011603D02*
X010217Y011049D01*
X009659Y011598D02*
X009728Y011667D01*
X009420Y011630D02*
X010001Y011049D01*
X009391Y010972D02*
X010009Y011589D01*
X009393Y011585D02*
X009929Y011049D01*
X009170Y011664D02*
X009786Y011049D01*
X009344Y010997D02*
X009984Y011636D01*
X009156Y011606D02*
X009714Y011049D01*
X009155Y010951D02*
X009776Y011572D01*
X009118Y010986D02*
X009741Y011608D01*
X009625Y011569D02*
X010145Y011049D01*
X009678Y010900D02*
X009747Y010968D01*
X009671Y010935D02*
X009704Y010968D01*
X009650Y010825D02*
X009729Y010746D01*
X009677Y010941D02*
X009728Y010891D01*
X009561Y010998D02*
X010131Y011568D01*
X009565Y011557D02*
X010073Y011049D01*
X009347Y011559D02*
X009857Y011049D01*
X009419Y010928D02*
X010052Y011561D01*
X009170Y010894D02*
X009832Y011556D01*
X009120Y011570D02*
X009656Y011034D01*
X009614Y010992D02*
X009659Y011037D01*
X009059Y010999D02*
X009636Y011576D01*
X009062Y011556D02*
X009621Y010998D01*
X008915Y011645D02*
X008978Y011708D01*
X008913Y011634D02*
X009551Y010996D01*
X009424Y010908D02*
X009489Y010842D01*
X009605Y010798D02*
X009657Y010746D01*
X009522Y010810D02*
X009585Y010746D01*
X009413Y010850D02*
X009474Y010911D01*
X009381Y010746D02*
X009485Y010850D01*
X008915Y010914D02*
X008975Y010854D01*
X009322Y010794D02*
X009370Y010746D01*
X009309D02*
X009369Y010806D01*
X009453Y010746D02*
X009519Y010812D01*
X009525Y010746D02*
X009573Y010794D01*
X009412Y010848D02*
X009513Y010746D01*
X009675Y010872D02*
X009801Y010746D01*
X009669D02*
X009752Y010830D01*
X009597Y010746D02*
X009729Y010878D01*
X009168Y010876D02*
X009298Y010746D01*
X009166D02*
X009247Y010827D01*
X009144Y010828D02*
X009226Y010746D01*
X009377Y010810D02*
X009441Y010746D01*
X009238D02*
X009290Y010799D01*
X009121Y010055D02*
X009707Y010641D01*
X009160Y010022D02*
X009778Y010641D01*
X009042Y010407D02*
X009276Y010641D01*
X009133Y009852D02*
X009922Y010641D01*
X009168Y009958D02*
X009850Y010641D01*
X009006Y010228D02*
X009419Y010641D01*
X009006Y010156D02*
X009491Y010641D01*
X009006Y010299D02*
X009347Y010641D01*
X009006Y010012D02*
X009635Y010641D01*
X009006Y010084D02*
X009563Y010641D01*
X009094Y010746D02*
X009222Y010874D01*
X009101Y010800D02*
X009154Y010746D01*
X009025Y010804D02*
X009082Y010746D01*
X009014Y010451D02*
X009204Y010641D01*
X009022Y010746D02*
X009070Y010794D01*
X008958Y010466D02*
X009132Y010641D01*
X008950Y010746D02*
X009014Y010810D01*
X009006Y009846D02*
Y010321D01*
X008926Y010310D02*
Y010321D01*
X009006Y010176D02*
X009131Y010051D01*
X009006Y010032D02*
X009022Y010016D01*
X009032Y009822D02*
X009053Y009843D01*
X009006Y010104D02*
X009058Y010052D01*
X009006Y009960D02*
X009029Y009937D01*
X009006Y009940D02*
X009020Y009954D01*
X009006Y009888D02*
X009053Y009841D01*
X009006Y009868D02*
X009053Y009915D01*
X008840Y010996D02*
X009477Y011632D01*
X008760Y011572D02*
X009333Y010998D01*
X008658Y011602D02*
X009273Y010987D01*
X008888Y011587D02*
X009505Y010970D01*
X008886Y010969D02*
X009503Y011586D01*
X008649Y010948D02*
X009271Y011570D01*
X008556Y010999D02*
X009219Y011662D01*
X008613Y010984D02*
X009234Y011605D01*
X008160Y010746D02*
X008998Y011584D01*
X008160Y010746D02*
X008998Y011584D01*
X008088Y010746D02*
X008970Y011628D01*
X008912Y010924D02*
X009548Y011560D01*
X008897Y010836D02*
X008966Y010905D01*
X008872Y010812D02*
X008938Y010746D01*
X008906Y010851D02*
X009010Y010746D01*
X008878D02*
X008979Y010846D01*
X008843Y011560D02*
X009478Y010926D01*
X008748Y010975D02*
X009329Y011556D01*
X008623Y011565D02*
X009236Y010952D01*
X008570Y011546D02*
X009219Y010896D01*
X008659Y011605D02*
X008711Y011657D01*
X008673Y011658D02*
X008727Y011604D01*
X007585Y010746D02*
X008455Y011616D01*
X007657Y010746D02*
X008485Y011574D01*
X007513Y010746D02*
X008449Y011682D01*
X007944Y010746D02*
X008766Y011568D01*
X007873Y010746D02*
X008728Y011602D01*
X008806Y010746D02*
X008874Y010814D01*
X008735Y010746D02*
X008786Y010798D01*
X008662Y010889D02*
X008735Y010962D01*
X008661Y010880D02*
X008795Y010746D01*
X008663D02*
X008741Y010824D01*
X008638Y010831D02*
X008723Y010746D01*
X008596Y010801D02*
X008651Y010746D01*
X008016D02*
X008827Y011557D01*
X007729Y010746D02*
X008532Y011549D01*
X008685Y010641D02*
X008898Y010427D01*
X008757Y010641D02*
X008936Y010461D01*
X008819Y010794D02*
X008867Y010746D01*
X008613Y010641D02*
X008893Y010360D01*
X008541Y010641D02*
X008845Y010337D01*
X007093Y010746D02*
X010285D01*
X007093Y010641D02*
X010285D01*
X008232Y010746D02*
X009044Y011559D01*
X008110Y010641D02*
X008824Y009926D01*
X008469Y010641D02*
X008802Y010308D01*
X008896Y010333D02*
X008904Y010341D01*
X008824Y009884D02*
Y010194D01*
X008818Y009896D02*
X008824Y009902D01*
X008254Y010641D02*
X008824Y010070D01*
X008182Y010641D02*
X008824Y009998D01*
X008326Y010641D02*
X008824Y010142D01*
X008781Y009931D02*
X008824Y009974D01*
X008714Y009935D02*
X008824Y010046D01*
X008447Y010746D02*
X008509Y010808D01*
X008519Y010746D02*
X008567Y010794D01*
X008375Y010746D02*
X008472Y010843D01*
X008591Y010746D02*
X008715Y010870D01*
X008525Y010800D02*
X008579Y010746D01*
X007801D02*
X008614Y011559D01*
X008332Y010344D02*
X008629Y010641D01*
X008304Y010746D02*
X008457Y010900D01*
X008038Y010641D02*
X008739Y009940D01*
X008352Y010292D02*
X008701Y010641D01*
X008398D02*
X008787Y010251D01*
X008348Y010259D02*
X008687Y009921D01*
X008318Y010217D02*
X008657Y009878D01*
X008289Y010372D02*
X008557Y010641D01*
X007823Y013211D02*
X008184Y013572D01*
X007889Y013205D02*
X008256Y013572D01*
X007478D02*
X007837Y013213D01*
X007765Y013572D02*
X008231Y013106D01*
X007837Y013572D02*
X008249Y013160D01*
X007456Y013132D02*
X007896Y013572D01*
X007406D02*
X007783Y013195D01*
X007430Y013177D02*
X007825Y013572D01*
X007387Y013206D02*
X007753Y013572D01*
X007453Y013057D02*
X007968Y013572D01*
X006955Y013134D02*
X007394Y013572D01*
X007334D02*
X007748Y013158D01*
X007319Y013210D02*
X007681Y013572D01*
X007851Y012984D02*
X008111Y012723D01*
X007348Y012983D02*
X007608Y012723D01*
X006975Y013572D02*
X007334Y013213D01*
X007262Y013572D02*
X007731Y013103D01*
X006928Y013179D02*
X007322Y013572D01*
X006955Y013061D02*
X007465Y013572D01*
X006885Y013207D02*
X007250Y013572D01*
X006903D02*
X007281Y013194D01*
X006815Y013209D02*
X007178Y013572D01*
X006831D02*
X007247Y013156D01*
X006759Y013572D02*
X007231Y013100D01*
X006427Y013180D02*
X006819Y013572D01*
X006472D02*
X006832Y013212D01*
X006400Y013572D02*
X006780Y013192D01*
X006456Y013066D02*
X006962Y013572D01*
X006455Y013136D02*
X006891Y013572D01*
X006328D02*
X006746Y013155D01*
X006382Y013207D02*
X006747Y013572D01*
X006311Y013208D02*
X006675Y013572D01*
X006256D02*
X006731Y013097D01*
X005897Y013572D02*
X006278Y013191D01*
X005969Y013572D02*
X006329Y013212D01*
X005782Y013254D02*
X006100Y013572D01*
X005825D02*
X006245Y013153D01*
X007161Y012693D02*
X008040Y013572D01*
X007190D02*
X008048Y012714D01*
X007119Y013572D02*
X008005Y012685D01*
X007047Y013572D02*
X007978Y012641D01*
X007196Y012656D02*
X008112Y013572D01*
X007211Y012599D02*
X007733Y013122D01*
X006659Y012694D02*
X007537Y013572D01*
X006687D02*
X007546Y012714D01*
X006616Y013572D02*
X007504Y012684D01*
X006695Y012657D02*
X007609Y013572D01*
X006544D02*
X007477Y012639D01*
X007721Y012607D02*
X008233Y013118D01*
X007621Y012722D02*
X007893Y012993D01*
X007460Y013087D02*
X007973Y012574D01*
X007536Y012709D02*
X007815Y012988D01*
X006960Y013084D02*
X007474Y012570D01*
X006222Y012601D02*
X008076Y010746D01*
X006185Y013572D02*
X007052Y012705D01*
X006201Y012667D02*
X007106Y013572D01*
X006221Y012615D02*
X006735Y013129D01*
X006711Y012602D02*
X007234Y013125D01*
X006460Y013081D02*
X006992Y012549D01*
X006113Y013572D02*
X007010Y012675D01*
X006165Y012703D02*
X007034Y013572D01*
X006041D02*
X006985Y012628D01*
X006021Y011769D02*
X007267Y013015D01*
X005981Y011800D02*
X007239Y013058D01*
X007109Y012713D02*
X007388Y012991D01*
X006845Y012983D02*
X007117Y012711D01*
X006606Y012713D02*
X006883Y012990D01*
X006113Y012723D02*
X006379Y012988D01*
X006342Y012984D02*
X006614Y012712D01*
X005991Y011666D02*
X007313Y012988D01*
X005753Y013369D02*
X005957Y013572D01*
X005772Y013316D02*
X006029Y013572D01*
X005727Y013414D02*
X005885Y013572D01*
X005754D02*
X006231Y013094D01*
X005733Y013061D02*
X006244Y013572D01*
X005778Y013178D02*
X006172Y013572D01*
X005436Y013555D02*
X005454Y013572D01*
X005614Y013517D02*
X005669Y013572D01*
X005394D02*
X005414Y013552D01*
X005695Y013454D02*
X005813Y013572D01*
X005658Y013488D02*
X005741Y013572D01*
X005538D02*
X005576Y013534D01*
X005564Y013539D02*
X005597Y013572D01*
X005506Y013552D02*
X005526Y013572D01*
X005744Y013079D02*
X006099Y012724D01*
X005715Y013036D02*
X006040Y012711D01*
X005343Y013533D02*
X005382Y013572D01*
X005466D02*
X005483Y013555D01*
X005322Y013572D02*
X005356Y013538D01*
X005122Y012738D02*
X005326Y012941D01*
X005179Y013572D02*
X005263Y013488D01*
X005251Y013572D02*
X005307Y013516D01*
X005122Y013456D02*
X005238Y013572D01*
X005122Y013384D02*
X005310Y013572D01*
X005122Y013341D02*
X005149Y013314D01*
X005122Y013557D02*
X005226Y013453D01*
X005122Y013485D02*
X005194Y013413D01*
X005122Y013528D02*
X005166Y013572D01*
X005122Y013413D02*
X005168Y013367D01*
X005122Y013312D02*
X005161Y013351D01*
X005122Y013125D02*
X005193Y013055D01*
X005122Y012953D02*
X005206Y013037D01*
X005122Y013025D02*
X005178Y013080D01*
X005122Y012810D02*
X005280Y012967D01*
X005122Y012881D02*
X005240Y012999D01*
X005122Y013241D02*
X005140Y013258D01*
X005122Y013197D02*
X005144Y013176D01*
X005122Y013269D02*
X005139Y013252D01*
X005122Y013097D02*
X005156Y013130D01*
X005122Y013169D02*
X005142Y013188D01*
X005122Y012091D02*
X006603Y013572D01*
X005122Y011445D02*
X006738Y013060D01*
X005682Y013572D02*
X006550Y012704D01*
X005780Y013187D02*
X008220Y010746D01*
X005766Y013129D02*
X008148Y010746D01*
X005122Y010439D02*
X007739Y013056D01*
X005122Y013054D02*
X007430Y010746D01*
X005122Y011373D02*
X006766Y013016D01*
X005122Y009936D02*
X008240Y013054D01*
X005122Y010367D02*
X007769Y013013D01*
X005542Y012922D02*
X007717Y010746D01*
X005480Y012912D02*
X007645Y010746D01*
X005693Y011871D02*
X006811Y012989D01*
X005403Y012917D02*
X007573Y010746D01*
X005283Y012965D02*
X007502Y010746D01*
X005122Y012982D02*
X007358Y010746D01*
X005122Y012910D02*
X007286Y010746D01*
X005122Y012766D02*
X007142Y010746D01*
X005122Y010295D02*
X007486Y012658D01*
X005122Y012838D02*
X007214Y010746D01*
X005610Y013572D02*
X006509Y012673D01*
X005782Y013256D02*
X006495Y012543D01*
X005762Y013348D02*
X006484Y012626D01*
X005122Y012235D02*
X006460Y013572D01*
X005122Y012307D02*
X006388Y013572D01*
X005122Y012378D02*
X006316Y013572D01*
X005122Y012163D02*
X006531Y013572D01*
X005122Y012019D02*
X006237Y013133D01*
X005122Y011876D02*
X006264Y013018D01*
X005122Y011947D02*
X006237Y013062D01*
X005681Y012998D02*
X006000Y012679D01*
X005595Y012940D02*
X005977Y012558D01*
X005641Y012966D02*
X005975Y012632D01*
X005122Y011804D02*
X006308Y012990D01*
X005122Y012694D02*
X006099Y011718D01*
X005122Y012522D02*
X005516Y012916D01*
X005122Y012594D02*
X005440Y012912D01*
X005122Y012666D02*
X005379Y012922D01*
X005122Y012623D02*
X005952Y011793D01*
X005122Y012450D02*
X005634Y012961D01*
X006112Y011715D02*
X006982Y012585D01*
X005916Y011808D02*
X006592Y012484D01*
X006167Y011627D02*
X007039Y012499D01*
X006154Y011686D02*
X007001Y012533D01*
X006130Y011518D02*
X007095Y012483D01*
X006168Y011649D02*
X007046Y010771D01*
X006017Y011728D02*
X006043Y011702D01*
X005967Y011706D02*
X006008Y011665D01*
X005997Y011529D02*
X006008Y011539D01*
X005995Y011534D02*
X006006Y011524D01*
X007895Y010641D02*
X008193Y010342D01*
X007967Y010641D02*
X008236Y010371D01*
X007823Y010641D02*
X008175Y010289D01*
X007310Y009896D02*
X008054Y010641D01*
X007349Y009863D02*
X008126Y010641D01*
X007310Y009896D02*
X008054Y010641D01*
X006208Y012542D02*
X008005Y010746D01*
X006177Y012502D02*
X007933Y010746D01*
X006130Y012477D02*
X007861Y010746D01*
X006056Y012479D02*
X007789Y010746D01*
X006117Y011485D02*
X007765Y009836D01*
X007445Y010534D02*
X007551Y010641D01*
X007434Y010595D02*
X007480Y010641D01*
X007919Y009859D02*
X008259Y010198D01*
X007877Y009889D02*
X008207Y010218D01*
X007237Y009895D02*
X007982Y010641D01*
X007104D02*
X007852Y009893D01*
X007055Y010618D02*
X007797Y009877D01*
X007329Y010634D02*
X007336Y010641D01*
X007397Y010629D02*
X007408Y010641D01*
X007320D02*
X007327Y010633D01*
X007392Y010641D02*
X007415Y010618D01*
X007248Y010641D02*
X007286Y010602D01*
X006152Y011593D02*
X006989Y010756D01*
X006126Y011547D02*
X006960Y010713D01*
X007176Y010641D02*
X007269Y010548D01*
X006734Y010183D02*
X007192Y010641D01*
X006710Y010230D02*
X007120Y010641D01*
X006664Y010256D02*
X007024Y010616D01*
X005819Y011853D02*
X006500Y012535D01*
X005861Y011824D02*
X006537Y012500D01*
X005762Y011869D02*
X006482Y012588D01*
X005122Y011660D02*
X005991Y012529D01*
X005122Y011732D02*
X005972Y012581D01*
X005892Y011710D02*
X005900Y011702D01*
X005863Y011683D02*
X005890Y011709D01*
X005810Y011701D02*
X005835Y011726D01*
X005782Y011748D02*
X005826Y011703D01*
X005122Y012407D02*
X005672Y011857D01*
X005122Y012551D02*
X005820Y011853D01*
X005122Y012479D02*
X005723Y011878D01*
X005122Y012335D02*
X005648Y011809D01*
X005122Y012192D02*
X005627Y011687D01*
X005122Y012263D02*
X005605Y011781D01*
X005741Y011704D02*
X005799Y011762D01*
X005734Y011724D02*
X005752Y011706D01*
X005674Y011708D02*
X005695Y011730D01*
X005670Y011716D02*
X005678Y011708D01*
X005122Y011760D02*
X006628Y010255D01*
X005122Y011689D02*
X006582Y010229D01*
X005122Y011617D02*
X006558Y010181D01*
X005122Y010008D02*
X007588Y012473D01*
X005122Y011904D02*
X007189Y009838D01*
X005122Y010223D02*
X007473Y012574D01*
X005122Y011516D02*
X006080Y012474D01*
X005122Y011588D02*
X006027Y012493D01*
X005122Y010080D02*
X007533Y012490D01*
X005122Y010151D02*
X007495Y012524D01*
X005869Y011473D02*
X005882Y011486D01*
X005122Y010582D02*
X006022Y011482D01*
X005122Y010511D02*
X006074Y011462D01*
X005122Y010654D02*
X005931Y011463D01*
X005716Y011454D02*
X007267Y009903D01*
X005637Y011462D02*
X007217Y009882D01*
X005122Y011976D02*
X005569Y011530D01*
X005122Y012120D02*
X005587Y011655D01*
X005122Y011301D02*
X005655Y011833D01*
X005122Y012048D02*
X005556Y011614D01*
X005122Y011229D02*
X005615Y011722D01*
X005122Y011157D02*
X005559Y011594D01*
X005122Y010726D02*
X005858Y011461D01*
X005122Y011013D02*
X005589Y011481D01*
X005122Y010942D02*
X005643Y011462D01*
X005122Y011085D02*
X005569Y011532D01*
X005122Y010798D02*
X005790Y011466D01*
X005122Y010870D02*
X005706Y011454D01*
X009411Y009771D02*
X010281Y010641D01*
X009445Y009732D02*
X010285Y010572D01*
X009345Y009776D02*
X010210Y010641D01*
X009521Y009664D02*
X010285Y010429D01*
X009550Y009622D02*
X010285Y010357D01*
X009463Y009679D02*
X010285Y010500D01*
X009133Y009780D02*
X009994Y010641D01*
X009133Y009708D02*
X010066Y010641D01*
X009006Y010319D02*
X009651Y009675D01*
X009133Y009636D02*
X010138Y010641D01*
X009006Y010247D02*
X009611Y009643D01*
X009589Y009589D02*
X009599Y009599D01*
X009543Y009639D02*
X009593Y009589D01*
X009162Y010020D02*
X009411Y009771D01*
X009441Y009741D02*
X009512Y009670D01*
X009163Y009947D02*
X009337Y009773D01*
X009133Y009905D02*
X009302Y009736D01*
X009133Y009833D02*
X009290Y009677D01*
X009133Y009564D02*
X009299Y009730D01*
X009133Y009761D02*
X009254Y009641D01*
X009044Y009778D02*
X009053Y009770D01*
X008811Y009796D02*
X008824Y009783D01*
X009042Y009761D02*
X009053Y009771D01*
X009243Y009630D02*
X009297Y009684D01*
X009024Y009727D02*
X009053Y009698D01*
X009133Y009689D02*
X009231Y009592D01*
X008905Y009623D02*
X008985Y009703D01*
X008977Y009702D02*
X009053Y009626D01*
X008905Y009695D02*
X008923Y009714D01*
X008905Y009551D02*
X009053Y009700D01*
X008905Y009702D02*
X009053Y009554D01*
X009386Y007662D02*
X012454Y010729D01*
X009458Y007662D02*
X012503Y010707D01*
X009327Y007962D02*
X012094Y010729D01*
X009530Y007662D02*
X012539Y010671D01*
X009619Y010641D02*
X012598Y007661D01*
X009475Y010641D02*
X012454Y007661D01*
X009325Y007888D02*
X012166Y010729D01*
X009171Y007662D02*
X012238Y010729D01*
X009295Y008002D02*
X012023Y010729D01*
X009314Y007662D02*
X012382Y010729D01*
X009242Y007662D02*
X012310Y010729D01*
X009602Y007662D02*
X012552Y010612D01*
X009673Y007662D02*
X012431Y010420D01*
X009332Y010641D02*
X012311Y007661D01*
X009547Y010641D02*
X012526Y007661D01*
X009403Y010641D02*
X012383Y007661D01*
X009044Y010641D02*
X012023Y007661D01*
X009116Y010641D02*
X012095Y007661D01*
X008972Y010641D02*
X011951Y007661D01*
X009260Y010641D02*
X012239Y007661D01*
X009188Y010641D02*
X012167Y007661D01*
X009053Y009491D02*
Y009915D01*
X009133Y009491D02*
Y009915D01*
X008911Y009486D02*
X009053Y009628D01*
X009238Y008016D02*
X011951Y010729D01*
X009039Y010359D02*
X011736Y007661D01*
X008905Y009491D02*
Y009731D01*
Y009631D02*
X009048Y009487D01*
X008824Y009491D02*
Y009818D01*
X008900Y010641D02*
X011880Y007661D01*
X008829Y010641D02*
X011808Y007661D01*
X009389Y009460D02*
X009455Y009525D01*
X009448Y009518D02*
X009536Y009431D01*
X009231Y009135D02*
Y009601D01*
X009133Y009493D02*
X009231Y009590D01*
X009133Y009546D02*
X009231Y009448D01*
X009133Y009617D02*
X009231Y009520D01*
X008940Y009443D02*
X009053Y009556D01*
X008905Y009559D02*
X009018Y009445D01*
X007751Y010641D02*
X008824Y009567D01*
X007679Y010641D02*
X008824Y009495D01*
X007937Y009805D02*
X008773Y010641D01*
X007421Y009145D02*
X008916Y010641D01*
X007542Y009195D02*
X008988Y010641D01*
X007407Y009203D02*
X008845Y010641D01*
X005122Y009433D02*
X008741Y013052D01*
X005122Y009361D02*
X008772Y013011D01*
X005122Y009289D02*
X008480Y012647D01*
X005122Y009146D02*
X008497Y012521D01*
X005122Y009217D02*
X008474Y012569D01*
X008769Y009766D02*
X008824Y009711D01*
X007835Y009129D02*
X008824Y010118D01*
X008265Y010198D02*
X008824Y009639D01*
X007607Y010641D02*
X008793Y009455D01*
X007768Y009205D02*
X008793Y010230D01*
X007294Y009521D02*
X008413Y010641D01*
X007586Y009167D02*
X009060Y010641D01*
X007813Y009178D02*
X008824Y010189D01*
X005122Y009648D02*
X007996Y012522D01*
X007363Y009806D02*
X008198Y010641D01*
X006068Y011462D02*
X007775Y009754D01*
X007279Y009578D02*
X008342Y010641D01*
X007240Y009611D02*
X008270Y010641D01*
X005122Y009792D02*
X007983Y012652D01*
X005122Y009577D02*
X008035Y012489D01*
X005122Y009720D02*
X007973Y012571D01*
X005122Y009505D02*
X008091Y012473D01*
X005122Y011832D02*
X007747Y009207D01*
X007376Y009459D02*
X008178Y010262D01*
X007432Y009372D02*
X007794Y009734D01*
X007418Y009430D02*
X007764Y009776D01*
X007407Y009275D02*
X007848Y009716D01*
X006733Y010150D02*
X007693Y009190D01*
X008596Y007662D02*
X011663Y010729D01*
X008668Y007662D02*
X011735Y010729D01*
X008524Y007662D02*
X011592Y010729D01*
X008811Y007662D02*
X011879Y010729D01*
X008740Y007662D02*
X011807Y010729D01*
X005901Y011485D02*
X009724Y007662D01*
X005989Y011469D02*
X009796Y007662D01*
X005122Y008930D02*
X009242Y013050D01*
X007535Y010641D02*
X010514Y007662D01*
X007464Y010641D02*
X010443Y007662D01*
X007799Y009731D02*
X009868Y007662D01*
X007880Y009721D02*
X009940Y007662D01*
X007607Y009116D02*
X008888Y010397D01*
X007937Y009808D02*
X010083Y007662D01*
X007921Y009752D02*
X010011Y007662D01*
X007411Y010478D02*
X010227Y007662D01*
X007356Y010461D02*
X010155Y007662D01*
X007298Y009729D02*
X009365Y007662D01*
X007426Y010607D02*
X010371Y007662D01*
X007441Y010519D02*
X010299Y007662D01*
X005755Y011487D02*
X008278Y008965D01*
X005855Y011459D02*
X008333Y008981D01*
X005516Y008318D02*
X007839Y010641D01*
X005775Y007931D02*
X008485Y010641D01*
X005573Y008303D02*
X007911Y010641D01*
X005122Y009074D02*
X008536Y012488D01*
X005122Y009002D02*
X008593Y012473D01*
X005449Y008323D02*
X007767Y010641D01*
X005362Y008307D02*
X007695Y010641D01*
X005122Y008140D02*
X007623Y010641D01*
X007372Y008306D02*
X008824Y009758D01*
X007381Y008243D02*
X008824Y009687D01*
X007363Y009807D02*
X008246Y008924D01*
X007384Y008103D02*
X008824Y009543D01*
X007342Y008133D02*
X008824Y009615D01*
X007272Y008350D02*
X008697Y009774D01*
X007336Y008342D02*
X008758Y009764D01*
X007342Y009757D02*
X008254Y008845D01*
X007074Y008223D02*
X008662Y009812D01*
X007038Y008259D02*
X008657Y009879D01*
X009412Y009482D02*
X009536Y009359D01*
X009389Y009318D02*
X009525Y009453D01*
X009389Y009389D02*
X009499Y009499D01*
X009536Y009135D02*
Y009445D01*
X009389Y009246D02*
X009536Y009392D01*
X009389Y009433D02*
X009536Y009287D01*
X009389Y009174D02*
X009536Y009320D01*
X009389Y009290D02*
X009536Y009143D01*
X009389Y009361D02*
X009536Y009215D01*
X009389Y009102D02*
X009536Y009248D01*
X009389Y009218D02*
X009505Y009102D01*
X009637Y008998D02*
Y009019D01*
X009610Y008997D02*
X009622Y008985D01*
X009533Y009002D02*
X009599Y008936D01*
X009394Y009035D02*
X009536Y009176D01*
X009389Y009146D02*
X009510Y009025D01*
X009423Y008992D02*
X009498Y009067D01*
X009166Y009453D02*
X009231Y009518D01*
X009170Y009437D02*
X009231Y009376D01*
X009389Y009038D02*
Y009460D01*
X008936Y009456D02*
X009231Y009161D01*
X008933Y009386D02*
X009207Y009113D01*
X008334Y008981D02*
X008787Y009434D01*
X009157Y009378D02*
X009231Y009304D01*
X009115Y009348D02*
X009231Y009233D01*
X008896Y009352D02*
X009194Y009054D01*
X009257Y008991D02*
X009269Y008979D01*
X008386Y008960D02*
X008802Y009377D01*
X008414Y008917D02*
X008845Y009348D01*
X008418Y008896D02*
X009652Y007662D01*
X009353Y008895D02*
X010586Y007662D01*
X008309Y007662D02*
X009604Y008957D01*
X009389Y009074D02*
X010802Y007662D01*
X009425Y008966D02*
X010730Y007662D01*
X009403Y008917D02*
X010658Y007662D01*
X008021Y007662D02*
X009285Y008925D01*
X008093Y007662D02*
X009328Y008897D01*
X007949Y007662D02*
X009270Y008982D01*
X008237Y007662D02*
X009565Y008990D01*
X008165Y007662D02*
X009518Y009015D01*
X009259Y007840D02*
X009437Y007662D01*
X009333Y007910D02*
X009580Y007662D01*
X009307Y007863D02*
X009508Y007662D01*
X008380Y007662D02*
X009610Y008891D01*
X008452Y007662D02*
X009648Y008858D01*
X009099Y007662D02*
X009285Y007848D01*
X008402Y008841D02*
X009227Y008015D01*
X008361Y008809D02*
X009181Y007989D01*
X008282Y008817D02*
X009158Y007941D01*
X008000Y008215D02*
X009231Y009446D01*
X007969Y008256D02*
X009064Y009351D01*
X007927Y007927D02*
X009231Y009231D01*
X007989Y008132D02*
X009231Y009375D01*
X008883Y007662D02*
X009157Y007936D01*
X008003Y008162D02*
X008502Y007662D01*
X009027Y007662D02*
X009211Y007846D01*
X008955Y007662D02*
X009172Y007878D01*
X007920Y007957D02*
X008215Y007662D01*
X007975Y008117D02*
X008431Y007662D01*
X007925Y008096D02*
X008359Y007662D01*
X007914Y008273D02*
X009025Y009385D01*
X007906Y007978D02*
X009231Y009303D01*
X007534Y007965D02*
X009020Y009451D01*
X007192Y008972D02*
X007894Y008270D01*
X007157Y008936D02*
X007850Y008243D01*
X007121Y008900D02*
X007828Y008193D01*
X007444Y008019D02*
X008261Y008835D01*
X007428Y008074D02*
X008240Y008887D01*
X007859Y008002D02*
X007968Y008112D01*
X007749Y007965D02*
X007885Y008101D01*
X007678Y007965D02*
X007844Y008132D01*
X007049Y008828D02*
X007881Y007996D01*
X007606Y007965D02*
X007828Y008187D01*
X007013Y008792D02*
X007812Y007994D01*
X007462Y007965D02*
X008304Y008807D01*
X006977Y008756D02*
X007768Y007965D01*
X007433Y009378D02*
X007663Y009148D01*
X007410Y009329D02*
X007545Y009194D01*
X007407Y009260D02*
X007479Y009189D01*
X007407Y009188D02*
X007442Y009154D01*
X007371Y008219D02*
X007625Y007965D01*
X007334Y008184D02*
X007553Y007965D01*
X006930Y008295D02*
X007688Y009053D01*
X006874Y008382D02*
X007512Y009021D01*
X006850Y008430D02*
X007461Y009041D01*
X006999Y008292D02*
X007737Y009030D01*
X006858Y008295D02*
X007661Y009097D01*
X007734Y007662D02*
X009231Y009159D01*
X007806Y007662D02*
X009195Y009051D01*
X007776Y009035D02*
X009149Y007662D01*
X007836Y009119D02*
X009293Y007662D01*
X007818Y009065D02*
X009221Y007662D01*
X007406Y009046D02*
X008790Y007662D01*
X007563Y009032D02*
X008934Y007662D01*
X007264Y009044D02*
X008646Y007662D01*
X007603Y009136D02*
X009077Y007662D01*
X007598Y009069D02*
X009005Y007662D01*
X007878Y007662D02*
X009222Y009007D01*
X007777Y007885D02*
X007999Y007662D01*
X007705Y007885D02*
X007928Y007662D01*
X007918Y007888D02*
X008143Y007662D01*
X007880Y007853D02*
X008071Y007662D01*
X007354Y009026D02*
X008718Y007662D01*
X007228Y009008D02*
X008574Y007662D01*
X007085Y008864D02*
X008287Y007662D01*
X005122Y007663D02*
X015020Y007661D01*
X007502Y009022D02*
X008862Y007662D01*
X007518Y007662D02*
X007741Y007885D01*
X007633D02*
X007856Y007662D01*
X007561Y007885D02*
X007784Y007662D01*
X007441Y008005D02*
X007481Y007965D01*
X007414D02*
X007781D01*
X006960Y007885D02*
X007781D01*
X007381Y008280D02*
X007697Y007965D01*
X007447Y007662D02*
X007669Y007885D01*
X007590Y007662D02*
X007796Y007867D01*
X007418Y007885D02*
X007640Y007662D01*
X007662Y007662D02*
X007847Y007847D01*
X007490Y007885D02*
X007712Y007662D01*
X007303Y007662D02*
X007525Y007885D01*
X007375Y007662D02*
X007597Y007885D01*
X007231Y007662D02*
X007454Y007885D01*
X007346D02*
X007568Y007662D01*
X007274Y007885D02*
X007497Y007662D01*
X007294Y009517D02*
X007349Y009462D01*
X007271Y009468D02*
X007300Y009440D01*
X007166Y009608D02*
X007284Y009726D01*
X007407Y009162D02*
Y009326D01*
X007302Y009162D02*
Y009326D01*
X007290Y009157D02*
X007302Y009170D01*
X007250Y009157D02*
X007297D01*
X007225Y009442D02*
X007277Y009391D01*
X007272Y009052D02*
X007297D01*
X006707Y010104D02*
X007194Y009617D01*
X006659Y010080D02*
X007145Y009594D01*
X006473Y009131D02*
X007194Y009852D01*
X006529Y009115D02*
X007193Y009779D01*
X006529Y009115D02*
X007193Y009779D01*
X006560Y009074D02*
X007226Y009740D01*
X006552Y008995D02*
X007126Y009569D01*
X006292Y008879D02*
X006405Y008991D01*
X006237Y008895D02*
X006388Y009046D01*
X006324Y008838D02*
X006445Y008959D01*
X006292Y008879D02*
X006405Y008991D01*
X006835Y008614D02*
X007272Y009052D01*
X006835Y008559D02*
X007314Y009038D01*
X006745Y008673D02*
X007213Y009142D01*
X006835Y008487D02*
X007377Y009030D01*
X006941Y008721D02*
X007311Y008351D01*
X006905Y008685D02*
X007249Y008340D01*
X006564Y009025D02*
X006830Y008759D01*
X006539Y008979D02*
X006794Y008723D01*
X006491Y008955D02*
X006759Y008687D01*
X006525Y008465D02*
X007302Y009242D01*
X006453Y008465D02*
X007302Y009313D01*
X006869Y008649D02*
X007215Y008303D01*
X006875Y008355D02*
X006935Y008295D01*
X006835Y008611D02*
X007209Y008237D01*
X006835Y008444D02*
Y008614D01*
Y008540D02*
X007201Y008173D01*
X006835Y008468D02*
X007134Y008168D01*
X006316Y008758D02*
X006525Y008967D01*
X006286Y008729D02*
X006550Y008465D01*
X006326Y008833D02*
X006713Y008445D01*
X006320Y008766D02*
X006681Y008406D01*
X006224Y008719D02*
X006478Y008465D01*
X006729Y008455D02*
Y008636D01*
X006622Y008418D02*
X006729Y008525D01*
X006622Y008317D02*
Y008465D01*
X006597D02*
X006729Y008597D01*
X006622Y008346D02*
X006680Y008404D01*
X006417Y008465D02*
X006622D01*
Y008393D02*
X006673Y008342D01*
X006417Y008260D02*
Y008465D01*
X005122Y011186D02*
X007190Y009119D01*
X005122Y011114D02*
X007154Y009083D01*
X005122Y011042D02*
X007118Y009047D01*
X005122Y010970D02*
X007082Y009011D01*
X005122Y010898D02*
X007046Y008975D01*
X005122Y010827D02*
X007010Y008939D01*
X005122Y011473D02*
X007302Y009294D01*
X005122Y011401D02*
X007302Y009222D01*
X005122Y011545D02*
X007119Y009548D01*
X005122Y011329D02*
X007294Y009157D01*
X005122Y011258D02*
X007228Y009152D01*
X005122Y010755D02*
X006974Y008903D01*
X005990Y009654D02*
X006977Y010641D01*
X005948Y009684D02*
X006958Y010693D01*
X005122Y010683D02*
X006938Y008867D01*
X005122Y010611D02*
X006902Y008831D01*
X005122Y010539D02*
X006866Y008795D01*
X005122Y010252D02*
X006730Y008645D01*
X005122Y010180D02*
X006729Y008573D01*
X005122Y010108D02*
X006729Y008502D01*
X005122Y008571D02*
X006632Y010081D01*
X005122Y010467D02*
X005903Y009687D01*
X005122Y010395D02*
X005856Y009661D01*
X005122Y010324D02*
X005832Y009614D01*
X006009Y009601D02*
X006559Y010151D01*
X005122Y010036D02*
X006268Y008891D01*
X005122Y009964D02*
X006201Y008886D01*
X005122Y009893D02*
X006164Y008851D01*
X005122Y008643D02*
X006584Y010105D01*
X005122Y009821D02*
X006153Y008790D01*
X006007Y009582D02*
X006460Y009130D01*
X005982Y009536D02*
X006413Y009105D01*
X005934Y009512D02*
X006389Y009057D01*
X005122Y008858D02*
X005836Y009571D01*
X005122Y008715D02*
X005918Y009511D01*
X005122Y008786D02*
X005865Y009529D01*
X005122Y009677D02*
X006417Y008383D01*
X006000Y008371D02*
X007124Y009494D01*
X005122Y009749D02*
X006417Y008454D01*
X005122Y009533D02*
X006462Y008193D01*
X005122Y009605D02*
X006417Y008311D01*
X005122Y008427D02*
X007273Y010578D01*
X005122Y008355D02*
X007278Y010511D01*
X005122Y008499D02*
X007264Y010641D01*
X005122Y008212D02*
X007373Y010462D01*
X005122Y008283D02*
X007312Y010473D01*
X006003Y008302D02*
X007156Y009455D01*
X005783Y008010D02*
X007213Y009440D01*
X006003Y008366D02*
X006444Y007924D01*
X005723Y007662D02*
X006417Y008357D01*
X005651Y007662D02*
X006417Y008428D01*
X005122Y009462D02*
X006428Y008156D01*
X005122Y009318D02*
X006488Y007952D01*
X005122Y009390D02*
X006418Y008094D01*
X005579Y007663D02*
X007279Y009363D01*
X005122Y008959D02*
X006419Y007662D01*
X005664Y008251D02*
X006168Y008755D01*
X005664Y008251D02*
X006168Y008755D01*
X005622Y008280D02*
X006152Y008810D01*
X005122Y008887D02*
X006347Y007662D01*
X005122Y008815D02*
X006275Y007662D01*
X005122Y009246D02*
X005953Y008416D01*
X005122Y009174D02*
X005883Y008414D01*
X005122Y009102D02*
X005845Y008380D01*
X005122Y009030D02*
X005832Y008321D01*
X005122Y007663D02*
Y013572D01*
X005966Y008409D02*
X006289Y008731D01*
X005906Y008421D02*
X006209Y008723D01*
X005122Y008671D02*
X005471Y008323D01*
X005122Y008743D02*
X005557Y008308D01*
X005122Y008599D02*
X005404Y008318D01*
X005122Y008528D02*
X005348Y008302D01*
X005122Y008456D02*
X005299Y008279D01*
X005122Y008384D02*
X005256Y008250D01*
X007110Y008187D02*
X007208Y008286D01*
X007162Y008168D02*
X007216Y008222D01*
X007013Y008283D02*
X007129Y008168D01*
X006944Y008215D02*
X007092Y008067D01*
X006968Y008215D02*
X007084Y008100D01*
X007129Y008168D02*
X007197D01*
X007112Y008088D02*
X007197D01*
X007008Y008086D02*
X007053Y008130D01*
X006972Y008122D02*
X007017Y008166D01*
X007027Y008067D02*
X007216D01*
X007061D02*
X007089Y008095D01*
X006851Y008295D02*
X006985D01*
X006856Y008302D02*
X006864Y008295D01*
X006872Y008215D02*
X006940Y008147D01*
X006643Y008295D02*
X006676Y008329D01*
X006644Y008294D02*
X006697D01*
X006622Y008317D02*
X006644Y008294D01*
X006826Y008215D02*
X006968D01*
X006622Y008321D02*
X006649Y008294D01*
X006927Y008148D02*
X006981Y008202D01*
X006868Y008148D02*
X006928D01*
X006864Y008157D02*
X006922Y008215D01*
X006801Y008214D02*
X006812Y008203D01*
X006627Y008214D02*
X006818D01*
X006729D02*
X006739Y008205D01*
X006829Y008194D02*
X006850Y008215D01*
X006657Y008214D02*
X006696Y008175D01*
X007143Y008088D02*
X007164Y008067D01*
X007204D02*
X007210Y008072D01*
X007133Y008067D02*
X007154Y008088D01*
X007016Y007662D02*
X007238Y007885D01*
X007058D02*
X007281Y007662D01*
X006957Y008137D02*
X007027Y008067D01*
X006892Y007935D02*
X006931Y007896D01*
X006864Y007935D02*
X007137Y007662D01*
X006878Y007812D02*
X006952Y007885D01*
X007088Y007662D02*
X007310Y007885D01*
X007159Y007662D02*
X007382Y007885D01*
X006987D02*
X007209Y007662D01*
X007202Y007885D02*
X007425Y007662D01*
X007130Y007885D02*
X007353Y007662D01*
X006872Y007662D02*
X007094Y007885D01*
X006944Y007662D02*
X007166Y007885D01*
X006800Y007662D02*
X007023Y007885D01*
X006886Y007842D02*
X007065Y007662D01*
X006866Y007790D02*
X006994Y007662D01*
X006669Y008016D02*
X006729D01*
X006660Y008025D02*
X006687Y008052D01*
X006624Y008061D02*
X006671Y008108D01*
X006622Y008106D02*
X006712Y008016D01*
X006648Y007936D02*
X006675Y007909D01*
X006852Y007935D02*
X006892D01*
X006881Y007887D02*
X006911Y007917D01*
X006828Y007756D02*
X006922Y007662D01*
X006657Y007662D02*
X006740Y007746D01*
X006652Y007935D02*
X006695D01*
X006771Y007741D02*
X006850Y007662D01*
X006728Y007662D02*
X006815Y007749D01*
X006565Y008260D02*
X006599Y008226D01*
X006596Y008176D02*
X006634Y008214D01*
X006620Y008128D02*
X006705Y008214D01*
X006553Y008205D02*
X006586Y008239D01*
X006478Y008202D02*
X006536Y008260D01*
X006417D02*
X006565D01*
X006468D02*
X006517Y008211D01*
X006540Y008260D02*
X006673Y008127D01*
X006614Y008070D02*
X006669Y008016D01*
X006610Y007903D02*
X006643Y007936D01*
X006621Y007842D02*
X006665Y007886D01*
X006610Y007902D02*
X006660Y007852D01*
X006558Y008013D02*
X006624Y007947D01*
X006505Y008007D02*
X006567Y007945D01*
X006520Y007957D02*
X006567Y008004D01*
X006575Y007940D02*
X006603Y007968D01*
X006001Y008296D02*
X006419Y007877D01*
X005775Y008074D02*
X005951Y008250D01*
X005701Y008216D02*
X005832Y008347D01*
X005732Y008175D02*
X005844Y008287D01*
X005122Y008312D02*
X005220Y008215D01*
X005757Y008128D02*
X005882Y008253D01*
X005122Y008240D02*
X005189Y008174D01*
X005122Y007953D02*
X005147Y007928D01*
X005122Y007852D02*
X005159Y007889D01*
X005122Y007924D02*
X005144Y007946D01*
X005122Y007709D02*
X005211Y007798D01*
X005122Y007781D02*
X005182Y007840D01*
X005122Y008168D02*
X005164Y008126D01*
X005122Y008068D02*
X005155Y008100D01*
X005122Y008097D02*
X005147Y008072D01*
X005122Y007996D02*
X005139Y008013D01*
X005122Y008025D02*
X005139Y008008D01*
X005938Y007662D02*
X006426Y008150D01*
X006082Y007662D02*
X006451Y008032D01*
X006010Y007662D02*
X006422Y008075D01*
X005967Y008258D02*
X006562Y007662D01*
X006154Y007662D02*
X006499Y008008D01*
X005795Y007662D02*
X006417Y008285D01*
X005866Y007662D02*
X006464Y008260D01*
X005783Y008011D02*
X006131Y007662D01*
X005908Y008245D02*
X006491Y007662D01*
X005768Y008097D02*
X006203Y007662D01*
X006513Y007662D02*
X006667Y007816D01*
X006585Y007662D02*
X006695Y007773D01*
X006542Y007754D02*
X006634Y007662D01*
X006617Y007823D02*
X006778Y007662D01*
X006589Y007779D02*
X006706Y007662D01*
X006226Y007662D02*
X006417Y007854D01*
X006297Y007662D02*
X006433Y007798D01*
X005778Y007944D02*
X006059Y007662D01*
X006441Y007662D02*
X006531Y007753D01*
X006369Y007662D02*
X006471Y007764D01*
X005710Y007796D02*
X005844Y007662D01*
X005675Y007760D02*
X005772Y007662D01*
X005148Y007663D02*
X005246Y007761D01*
X005762Y007888D02*
X005988Y007662D01*
X005739Y007839D02*
X005916Y007662D01*
X005122Y007709D02*
X005211Y007798D01*
X005122Y007737D02*
X005197Y007663D01*
X005122Y007881D02*
X005341Y007663D01*
X005122Y007809D02*
X005269Y007663D01*
X005532Y007687D02*
X005556Y007663D01*
X005507Y007663D02*
X005531Y007687D01*
X005468Y007679D02*
X005485Y007663D01*
X005634Y007729D02*
X005700Y007662D01*
X005586Y007704D02*
X005628Y007662D01*
X005292Y007663D02*
X005334Y007705D01*
X005364Y007663D02*
X005388Y007687D01*
X005220Y007663D02*
X005287Y007730D01*
X005435Y007663D02*
X005452Y007679D01*
X005388Y007687D02*
X005413Y007663D01*
X012522Y010262D02*
X012649Y010389D01*
X012522Y009144D02*
Y010262D01*
Y009144D02*
X012598Y009068D01*
X012471Y010465D02*
X012636Y010630D01*
X012471Y008865D02*
Y010465D01*
X012497Y010770D02*
X012636Y010630D01*
X011659Y010770D02*
X012497D01*
X012622Y010873D02*
Y010899D01*
X012471Y011074D02*
X012649Y010897D01*
X011430Y011074D02*
X012471D01*
X011227Y011151D02*
X012649D01*
X011125Y011049D02*
X011227Y011151D01*
Y011405D02*
X012649D01*
X010871Y011049D02*
X011227Y011405D01*
X010688Y011008D02*
X010744Y010952D01*
X009688Y011008D02*
X010688D01*
X009576Y010897D02*
X009688Y011008D01*
X010744Y010846D02*
Y010952D01*
X010820Y010770D02*
X011608D01*
X010744Y010846D02*
X010820Y010770D01*
X011633Y010795D02*
X011659Y010770D01*
X011608D02*
X011633Y010795D01*
X009349Y009476D02*
X009474Y009601D01*
X009349Y008975D02*
Y009476D01*
X009347Y008973D02*
X009349Y008975D01*
X009779Y009060D02*
Y009508D01*
X009677Y008931D02*
Y009601D01*
X009576Y009068D02*
Y009512D01*
X009271Y009068D02*
Y009601D01*
X009373Y009703D01*
X010871Y010897D02*
Y011049D01*
X011379Y011024D02*
X011430Y011074D01*
X011125Y010897D02*
Y011049D01*
X011379Y010897D02*
Y011024D01*
X007112Y008128D02*
X007264D01*
X006519Y008362D02*
X006627Y008254D01*
X006985Y008255D02*
X007112Y008128D01*
X006773Y008108D02*
X006928D01*
X006627Y008254D02*
X006818D01*
X006819Y008255D01*
X006985D01*
X006928Y008108D02*
X007010Y008026D01*
X007366D01*
X006519Y008108D02*
X006652Y007976D01*
X006909D01*
X006960Y007925D01*
X007849D01*
X009093Y009423D02*
Y009982D01*
X008865Y009423D02*
Y010262D01*
X008966Y009779D02*
Y010389D01*
X011633Y010795D02*
Y010897D01*
D20*
X005878Y011765D02*
D03*
X005895Y011542D02*
D03*
D21*
X005817Y011806D02*
D03*
X005977Y011753D02*
D03*
X005646Y011758D02*
D03*
X005710Y011501D02*
D03*
X005961Y011567D02*
D03*
X005956Y011504D02*
D03*
X005603Y011610D02*
D03*
X005756Y011659D02*
D03*
X005842Y011598D02*
D03*
X005824Y011656D02*
D03*
D22*
X005725Y011801D02*
D03*
X006091Y011641D02*
D03*
X005753Y011570D02*
D03*
D23*
X006068Y011524D02*
D03*
X005674Y011646D02*
D03*
D24*
X006007Y011613D02*
D03*
X005827Y011504D02*
D03*
D25*
X005928Y011641D02*
D03*
X005636Y011529D02*
D03*
D26*
X005461Y013233D02*
D03*
Y008001D02*
D03*
X014707Y013233D02*
D03*
Y008001D02*
D03*
D27*
X006519Y008362D02*
D03*
D28*
X006773D02*
D03*
X006519Y008108D02*
D03*
X006773D02*
D03*
X006519Y007854D02*
D03*
X006773D02*
D03*
X010262Y013183D02*
D03*
X010516D02*
D03*
X010770D02*
D03*
X011024D02*
D03*
X011278D02*
D03*
X011532D02*
D03*
X011786D02*
D03*
X012040D02*
D03*
X012294D02*
D03*
X012548D02*
D03*
X012802D02*
D03*
X010008Y013437D02*
D03*
X010262D02*
D03*
X010516D02*
D03*
X010770D02*
D03*
X011024D02*
D03*
X011278D02*
D03*
X011532D02*
D03*
X011786D02*
D03*
X012040D02*
D03*
X012294D02*
D03*
X012548D02*
D03*
X012802D02*
D03*
D29*
X013411Y009881D02*
D03*
D30*
Y010135D02*
D03*
Y010389D02*
D03*
Y010643D02*
D03*
Y010897D02*
D03*
Y011151D02*
D03*
Y011405D02*
D03*
Y011659D02*
D03*
X012649Y009881D02*
D03*
Y010135D02*
D03*
Y010389D02*
D03*
Y010643D02*
D03*
Y010897D02*
D03*
Y011151D02*
D03*
Y011405D02*
D03*
Y011659D02*
D03*
X012141Y011659D02*
D03*
X011887D02*
D03*
X011633D02*
D03*
X011379D02*
D03*
X011125D02*
D03*
X010871D02*
D03*
X010617D02*
D03*
X012395Y010897D02*
D03*
X012141D02*
D03*
X011887D02*
D03*
X011633D02*
D03*
X011379D02*
D03*
X011125D02*
D03*
X010871D02*
D03*
X010617D02*
D03*
X010084Y011659D02*
D03*
X009830D02*
D03*
X009576D02*
D03*
X009322D02*
D03*
X009068D02*
D03*
X008814D02*
D03*
X008560D02*
D03*
X010338Y010897D02*
D03*
X010084D02*
D03*
X009830D02*
D03*
X009576D02*
D03*
X009322D02*
D03*
X009068D02*
D03*
X008814D02*
D03*
X008560D02*
D03*
D31*
X012395Y011659D02*
D03*
X010338D02*
D03*
D32*
X009346Y013098D02*
D03*
X006096Y012598D02*
D03*
X006346Y013098D02*
D03*
X006596Y012598D02*
D03*
X006846Y013098D02*
D03*
X007096Y012598D02*
D03*
X007346Y013098D02*
D03*
X007596Y012598D02*
D03*
X007846Y013098D02*
D03*
X008096Y012598D02*
D03*
X008346Y013098D02*
D03*
X008596Y012598D02*
D03*
X008846Y013098D02*
D03*
X009096Y012598D02*
D03*
X014072Y009522D02*
D03*
X014572Y009772D02*
D03*
X014072Y010022D02*
D03*
X014572Y010272D02*
D03*
X014072Y010522D02*
D03*
X014572Y010772D02*
D03*
X014072Y011022D02*
D03*
X014572Y011272D02*
D03*
X014072Y011522D02*
D03*
X014572Y011772D02*
D03*
X014072Y012022D02*
D03*
X014572Y012272D02*
D03*
X014072Y012522D02*
D03*
X014572Y009272D02*
D03*
D33*
X010008Y013183D02*
D03*
D34*
X012471Y008865D02*
D03*
X005920Y008333D02*
D03*
Y009599D02*
D03*
X009347Y008973D02*
D03*
X008865Y009423D02*
D03*
X009373Y009703D02*
D03*
X009474Y009601D02*
D03*
X009677D02*
D03*
X009576Y009512D02*
D03*
X009779Y009508D02*
D03*
Y009060D02*
D03*
X009677Y008931D02*
D03*
X009246Y007928D02*
D03*
X007358Y010550D02*
D03*
X008264Y010287D02*
D03*
X008329Y008892D02*
D03*
X008742Y009851D02*
D03*
X007916Y008184D02*
D03*
X006477Y009042D02*
D03*
X007206Y009529D02*
D03*
X007294Y008264D02*
D03*
X008966Y009779D02*
D03*
X007264Y008128D02*
D03*
X009093Y009982D02*
D03*
X007366Y008026D02*
D03*
X007849Y007925D02*
D03*
X009271Y009068D02*
D03*
X009093Y009423D02*
D03*
X012598Y009068D02*
D03*
X008865Y010262D02*
D03*
X008966Y010389D02*
D03*
X010338Y010262D02*
D03*
X007036Y010693D02*
D03*
X006646Y010168D02*
D03*
X007275Y009815D02*
D03*
X007747Y009119D02*
D03*
X007849Y009804D02*
D03*
X007355Y009105D02*
D03*
Y009384D02*
D03*
X009576Y009068D02*
D03*
X006241Y008806D02*
D03*
X007518Y009109D02*
D03*
D35*
X012802Y013437D02*
Y013537D01*
Y013437D02*
X012902D01*
X012802Y013336D02*
Y013437D01*
X012701D02*
X012802D01*
X014072Y012522D02*
X014185D01*
X014072D02*
Y012635D01*
Y012409D02*
Y012522D01*
Y012022D02*
X014185D01*
X014072Y011909D02*
Y012022D01*
Y012135D01*
X013959Y012022D02*
X014072D01*
X013959Y012522D02*
X014072D01*
Y011522D02*
X014185D01*
X014072Y011409D02*
Y011522D01*
Y011635D01*
X013959Y011522D02*
X014072D01*
X013411Y011659D02*
Y011759D01*
Y011659D02*
X013512D01*
X013411Y011558D02*
Y011659D01*
X013311D02*
X013411D01*
X010617Y011659D02*
Y011759D01*
X010517Y011659D02*
X010617D01*
X010718D01*
X010617Y011558D02*
Y011659D01*
X014072Y011022D02*
Y011135D01*
Y011022D02*
X014185D01*
X013959D02*
X014072D01*
Y010909D02*
Y011022D01*
Y010522D02*
X014185D01*
X014072Y010409D02*
Y010522D01*
Y010635D01*
X013959Y010522D02*
X014072D01*
Y010022D02*
Y010135D01*
X013959Y010022D02*
X014072D01*
X014185D01*
X014072Y009909D02*
Y010022D01*
X013959Y009522D02*
X014072D01*
X014185D01*
X014072D02*
Y009635D01*
Y009409D02*
Y009522D01*
X009096Y012598D02*
Y012711D01*
Y012598D02*
X009209D01*
X009096Y012486D02*
Y012598D01*
X008983D02*
X009096D01*
X008596D02*
X008709D01*
X008596D02*
Y012711D01*
Y012486D02*
Y012598D01*
X008483D02*
X008596D01*
X008560Y011659D02*
Y011759D01*
Y011659D02*
X008660D01*
X008459D02*
X008560D01*
Y011558D02*
Y011659D01*
X008666Y009851D02*
X008742D01*
Y009927D01*
X008264Y010287D02*
X008340D01*
X008264D02*
Y010363D01*
Y010211D02*
Y010287D01*
X008096Y012598D02*
Y012711D01*
X007596Y012598D02*
Y012711D01*
X006096Y012598D02*
Y012711D01*
X007983Y012598D02*
X008096D01*
X008209D01*
X007483D02*
X007596D01*
X007709D01*
X008096Y012486D02*
Y012598D01*
X007596Y012486D02*
Y012598D01*
X006096D02*
X006209D01*
X006096Y012486D02*
Y012598D01*
X005983D02*
X006096D01*
X008187Y010287D02*
X008264D01*
X007358Y010550D02*
X007434D01*
X007358D02*
Y010626D01*
Y010473D02*
Y010550D01*
X007281D02*
X007358D01*
X006570Y010168D02*
X006646D01*
X006723D01*
X006646D02*
Y010245D01*
Y010092D02*
Y010168D01*
X008742Y009775D02*
Y009851D01*
X007849Y009804D02*
Y009881D01*
Y009804D02*
X007925D01*
X007772D02*
X007849D01*
Y009728D02*
Y009804D01*
X008329Y008892D02*
Y008968D01*
Y008892D02*
X008405D01*
X008253D02*
X008329D01*
X009246Y007928D02*
X009322D01*
X009246D02*
Y008004D01*
Y007852D02*
Y007928D01*
X008329Y008816D02*
Y008892D01*
X007916Y008184D02*
Y008260D01*
X009169Y007928D02*
X009246D01*
X007916Y008184D02*
X007993D01*
X007916Y008108D02*
Y008184D01*
X007747Y009119D02*
X007823D01*
X007747D02*
Y009195D01*
X007840Y008184D02*
X007916D01*
X007671Y009119D02*
X007747D01*
X007518Y009109D02*
Y009185D01*
X007747Y009042D02*
Y009119D01*
X007518Y009109D02*
X007595D01*
X007518Y009033D02*
Y009109D01*
X007442D02*
X007518D01*
X007275Y009815D02*
Y009891D01*
Y009815D02*
X007351D01*
X007275Y009738D02*
Y009815D01*
X007198D02*
X007275D01*
X007206Y009529D02*
X007282D01*
X007206D02*
Y009605D01*
Y009453D02*
Y009529D01*
X007129D02*
X007206D01*
X006477Y009042D02*
X006553D01*
X006477D02*
Y009119D01*
Y008966D02*
Y009042D01*
X006401D02*
X006477D01*
X006241Y008806D02*
Y008882D01*
X006165Y008806D02*
X006241D01*
X006317D01*
X006241Y008730D02*
Y008806D01*
X005920Y009599D02*
X005996D01*
X005920Y009523D02*
Y009599D01*
Y009676D01*
X005844Y009599D02*
X005920D01*
Y008333D02*
Y008409D01*
X007294Y008264D02*
Y008340D01*
Y008264D02*
X007370D01*
X007218D02*
X007294D01*
X006773Y007854D02*
X006874D01*
X006773Y007754D02*
Y007854D01*
X006673D02*
X006773D01*
X005844Y008333D02*
X005920D01*
X005996D01*
X005920Y008257D02*
Y008333D01*
M02*
