%FSAX42Y42*%
%MOMM*%
G71*
G01*
G75*
%ADD10R,1.30X1.05*%
%ADD11R,0.80X0.90*%
%ADD12O,0.55X1.75*%
%ADD13O,1.75X0.55*%
%ADD14R,0.90X0.80*%
%ADD15R,2.20X2.50*%
%ADD16R,2.00X0.50*%
%ADD17R,0.90X1.00*%
%ADD18C,0.51*%
%ADD19C,0.25*%
%ADD20C,0.60*%
%ADD21C,0.40*%
%ADD22C,1.00*%
%ADD23C,0.70*%
%ADD24C,0.50*%
%ADD25C,0.80*%
%ADD26C,5.89*%
%ADD27R,1.50X1.50*%
%ADD28C,1.50*%
%ADD29R,1.50X1.50*%
%ADD30C,1.50*%
%ADD31R,1.50X1.50*%
%ADD32C,1.75*%
%ADD33R,1.50X1.50*%
%ADD34C,1.02*%
%ADD35C,0.20*%
%ADD36C,0.60*%
%ADD37C,0.25*%
%ADD38C,0.20*%
%ADD39C,0.18*%
%ADD40R,2.03X2.03*%
D19*
X005711Y011898D02*
G03*
X005558Y011712I000253J-000364D01*
G01*
X006167Y011712D02*
G03*
X005712Y011896I-002019J-004331D01*
G01*
X011405Y007849D02*
G03*
X011405Y007798I-000025J-000025D01*
G01*
X011460Y007823D02*
G03*
X011460Y007823I-000080J000000D01*
G01*
X005578Y010899D02*
G03*
X006146Y010899I000284J000000D01*
G01*
X005654Y011128D02*
G03*
X005578Y010975I000140J-000165D01*
G01*
X006146Y010966D02*
G03*
X006062Y011129I-000225J-000013D01*
G01*
X005986Y011267D02*
G03*
X006062Y011129I000213J000027D01*
G01*
X005654Y011128D02*
G03*
X005729Y011268I-000140J000165D01*
G01*
X005603Y010772D02*
G03*
X005442Y010705I000000J-000229D01*
G01*
D02*
G03*
X005451Y010569I000073J-000063D01*
G01*
D02*
G03*
X005618Y010472I000267J000267D01*
G01*
Y010472D02*
G03*
X005781Y010441I000211J000663D01*
G01*
X005934D02*
G03*
X006096Y010472I-000048J000694D01*
G01*
Y010472D02*
G03*
X006264Y010569I-000099J000364D01*
G01*
D02*
G03*
X006273Y010705I-000063J000073D01*
G01*
D02*
G03*
X006121Y010772I-000162J-000162D01*
G01*
X005781Y010441D02*
G03*
X005934Y010441I000076J000712D01*
G01*
X005425Y011483D02*
G03*
X005536Y011317I000180J000000D01*
G01*
D02*
G03*
X005679Y011278I000179J000370D01*
G01*
D02*
G03*
X005806Y011271I000139J001385D01*
G01*
X005451Y011560D02*
G03*
X005425Y011483I000102J-000076D01*
G01*
X006264Y011560D02*
G03*
X006169Y011626I-000205J-000194D01*
G01*
X006289Y011483D02*
G03*
X006264Y011560I-000127J000000D01*
G01*
X005908Y011271D02*
G03*
X006035Y011278I-000012J001392D01*
G01*
D02*
G03*
X006178Y011317I-000036J000410D01*
G01*
D02*
G03*
X006289Y011483I-000069J000166D01*
G01*
X005546Y011626D02*
G03*
X005451Y011560I000110J-000260D01*
G01*
X005558Y011712D02*
X006167D01*
Y011458D02*
Y011712D01*
X005558Y011458D02*
Y011712D01*
Y011458D02*
X006167D01*
X005821Y013568D02*
X009646D01*
X005821Y012368D02*
X009646D01*
X005821D02*
Y013568D01*
X009646Y012368D02*
Y013568D01*
X013842Y008972D02*
X015042D01*
X013842Y012797D02*
X015042D01*
X013842Y008972D02*
Y012797D01*
X015042Y008972D02*
Y012797D01*
X005578Y010899D02*
Y010975D01*
X006146Y010899D02*
Y010966D01*
X005806Y011271D02*
X005908D01*
X005903Y010627D02*
X005906Y010625D01*
X005814Y010627D02*
X005903D01*
X005951Y011212D02*
X005989Y011242D01*
X005895Y011206D02*
X005972Y011270D01*
X005850Y011212D02*
X005921Y011270D01*
X005585Y011013D02*
X005863Y011267D01*
X005618Y011090D02*
X005809Y011267D01*
X005725Y011234D02*
X005763Y011270D01*
X005578Y010958D02*
X005692Y011062D01*
X005580Y010914D02*
X005669Y010993D01*
X005583Y010866D02*
X005667Y010942D01*
X005588Y010825D02*
X005679Y010907D01*
X005601Y010790D02*
X005679Y010864D01*
X005624Y010762D02*
X005692Y010825D01*
X005641Y010729D02*
X005707Y010798D01*
X005667Y010701D02*
X005733Y010775D01*
X005692Y010676D02*
X005753Y010749D01*
X005723Y010658D02*
X005776Y010724D01*
X005756Y010643D02*
X005799Y010698D01*
X005789Y010627D02*
X005832Y010686D01*
X005824Y010620D02*
X005872Y010686D01*
X005870Y010620D02*
X005911Y010678D01*
X005916Y010622D02*
X005949Y010676D01*
X005966Y010635D02*
X006002Y010688D01*
X005491Y010742D02*
X005626D01*
X005443Y010706D02*
X005651Y010709D01*
X005423Y010673D02*
X005682Y010681D01*
X005418Y010640D02*
X005720Y010648D01*
X005519Y011327D02*
X005801Y011273D01*
X005761Y011311D02*
X005951Y011273D01*
X005923Y011308D02*
X006063Y011280D01*
X006060Y011311D02*
X006126Y011295D01*
X005466Y011369D02*
X005580Y011346D01*
X005443Y011405D02*
X005499Y011394D01*
X005431Y011440D02*
X005491Y011427D01*
X005425Y011473D02*
X005461Y011463D01*
X005428Y011506D02*
X005453Y011496D01*
X005438Y011534D02*
X005451Y011529D01*
X005453Y011562D02*
X005459Y011561D01*
X005423Y010612D02*
X005461Y010610D01*
X005441Y010584D02*
X005481Y010582D01*
X005469Y010556D02*
X005509Y010554D01*
X005502Y010528D02*
X005525Y010527D01*
X005537Y010505D02*
X005547Y010505D01*
X008563Y008204D02*
Y008357D01*
X008640D01*
X008665Y008331D01*
Y008280D01*
X008640Y008255D01*
X008563D01*
X008614D02*
X008665Y008204D01*
X008792D02*
X008741D01*
X008716Y008230D01*
Y008280D01*
X008741Y008306D01*
X008792D01*
X008817Y008280D01*
Y008255D01*
X008716D01*
X008868Y008204D02*
X008944D01*
X008970Y008230D01*
X008944Y008255D01*
X008894D01*
X008868Y008280D01*
X008894Y008306D01*
X008970D01*
X009097Y008204D02*
X009046D01*
X009020Y008230D01*
Y008280D01*
X009046Y008306D01*
X009097D01*
X009122Y008280D01*
Y008255D01*
X009020D01*
X009198Y008331D02*
Y008306D01*
X009173D01*
X009224D01*
X009198D01*
Y008230D01*
X009224Y008204D01*
X011557Y007899D02*
Y007747D01*
X011633D01*
X011659Y007772D01*
Y007798D01*
X011633Y007823D01*
X011557D01*
X011633D01*
X011659Y007849D01*
Y007874D01*
X011633Y007899D01*
X011557D01*
X011709Y007849D02*
Y007747D01*
Y007798D01*
X011735Y007823D01*
X011760Y007849D01*
X011786D01*
X011887D02*
X011938D01*
X011963Y007823D01*
Y007747D01*
X011887D01*
X011862Y007772D01*
X011887Y007798D01*
X011963D01*
X012014Y007747D02*
Y007849D01*
X012090D01*
X012116Y007823D01*
Y007747D01*
X012268Y007899D02*
Y007747D01*
X012192D01*
X012166Y007772D01*
Y007823D01*
X012192Y007849D01*
X012268D01*
X012344Y007747D02*
X012395D01*
X012420Y007772D01*
Y007823D01*
X012395Y007849D01*
X012344D01*
X012319Y007823D01*
Y007772D01*
X012344Y007747D01*
X012471D02*
Y007849D01*
X012547D01*
X012573Y007823D01*
Y007747D01*
X012776Y007899D02*
Y007747D01*
X012852D01*
X012877Y007772D01*
Y007798D01*
X012852Y007823D01*
X012776D01*
X012852D01*
X012877Y007849D01*
Y007874D01*
X012852Y007899D01*
X012776D01*
X012954Y007747D02*
X013004D01*
X013030Y007772D01*
Y007823D01*
X013004Y007849D01*
X012954D01*
X012928Y007823D01*
Y007772D01*
X012954Y007747D01*
X013106D02*
X013157D01*
X013182Y007772D01*
Y007823D01*
X013157Y007849D01*
X013106D01*
X013081Y007823D01*
Y007772D01*
X013106Y007747D01*
X013258Y007874D02*
Y007849D01*
X013233D01*
X013284D01*
X013258D01*
Y007772D01*
X013284Y007747D01*
X013360Y007899D02*
Y007747D01*
Y007823D01*
X013385Y007849D01*
X013436D01*
X013461Y007823D01*
Y007747D01*
X011328Y008204D02*
Y008306D01*
X011379Y008357D01*
X011430Y008306D01*
Y008204D01*
Y008280D01*
X011328D01*
X011735Y008331D02*
X011709Y008357D01*
X011658D01*
X011633Y008331D01*
Y008230D01*
X011658Y008204D01*
X011709D01*
X011735Y008230D01*
X011785Y008357D02*
Y008204D01*
Y008280D01*
X011811Y008306D01*
X011862D01*
X011887Y008280D01*
Y008204D01*
X012014D02*
X011963D01*
X011938Y008230D01*
Y008280D01*
X011963Y008306D01*
X012014D01*
X012039Y008280D01*
Y008255D01*
X011938D01*
X012166Y008204D02*
X012116D01*
X012090Y008230D01*
Y008280D01*
X012116Y008306D01*
X012166D01*
X012192Y008280D01*
Y008255D01*
X012090D01*
X012243Y008204D02*
X012319D01*
X012344Y008230D01*
X012319Y008255D01*
X012268D01*
X012243Y008280D01*
X012268Y008306D01*
X012344D01*
X012471Y008204D02*
X012420D01*
X012395Y008230D01*
Y008280D01*
X012420Y008306D01*
X012471D01*
X012496Y008280D01*
Y008255D01*
X012395D01*
X012547Y008306D02*
Y008230D01*
X012573Y008204D01*
X012649D01*
Y008179D01*
X012623Y008153D01*
X012598D01*
X012649Y008204D02*
Y008306D01*
X012852Y008204D02*
Y008357D01*
X012928D01*
X012953Y008331D01*
Y008280D01*
X012928Y008255D01*
X012852D01*
X013004Y008306D02*
Y008204D01*
Y008255D01*
X013030Y008280D01*
X013055Y008306D01*
X013080D01*
X013182Y008204D02*
X013233D01*
X013258Y008230D01*
Y008280D01*
X013233Y008306D01*
X013182D01*
X013157Y008280D01*
Y008230D01*
X013182Y008204D01*
X013411Y008357D02*
Y008204D01*
X013334D01*
X013309Y008230D01*
Y008280D01*
X013334Y008306D01*
X013411D01*
X013461D02*
Y008230D01*
X013487Y008204D01*
X013563D01*
Y008306D01*
X013715D02*
X013639D01*
X013614Y008280D01*
Y008230D01*
X013639Y008204D01*
X013715D01*
X013791Y008331D02*
Y008306D01*
X013766D01*
X013817D01*
X013791D01*
Y008230D01*
X013817Y008204D01*
X013893D02*
X013944D01*
X013918D01*
Y008306D01*
X013893D01*
X014045Y008204D02*
X014096D01*
X014121Y008230D01*
Y008280D01*
X014096Y008306D01*
X014045D01*
X014020Y008280D01*
Y008230D01*
X014045Y008204D01*
X014172D02*
Y008306D01*
X014248D01*
X014274Y008280D01*
Y008204D01*
X011328Y007976D02*
X011379D01*
X011354D01*
Y008128D01*
X011328Y008103D01*
X011455Y008052D02*
X011557D01*
X011709Y007976D02*
X011608D01*
X011709Y008077D01*
Y008103D01*
X011684Y008128D01*
X011633D01*
X011608Y008103D01*
X011862Y007976D02*
X011760D01*
X011862Y008077D01*
Y008103D01*
X011836Y008128D01*
X011785D01*
X011760Y008103D01*
X011912Y008052D02*
X012014D01*
X012166Y007976D02*
X012065D01*
X012166Y008077D01*
Y008103D01*
X012141Y008128D01*
X012090D01*
X012065Y008103D01*
X012217D02*
X012243Y008128D01*
X012293D01*
X012319Y008103D01*
Y008001D01*
X012293Y007976D01*
X012243D01*
X012217Y008001D01*
Y008103D01*
X012369Y007976D02*
X012420D01*
X012395D01*
Y008128D01*
X012369Y008103D01*
X012573Y007976D02*
Y008128D01*
X012496Y008052D01*
X012598D01*
X012801Y007976D02*
Y008128D01*
X012877D01*
X012903Y008103D01*
Y008052D01*
X012877Y008026D01*
X012801D01*
X012852D02*
X012903Y007976D01*
X013030D02*
X012979D01*
X012953Y008001D01*
Y008052D01*
X012979Y008077D01*
X013030D01*
X013055Y008052D01*
Y008026D01*
X012953D01*
X013106Y008077D02*
X013157Y007976D01*
X013207Y008077D01*
X013258Y007976D02*
Y008001D01*
X013284D01*
Y007976D01*
X013258D01*
X013537D02*
X013588D01*
X013563D01*
Y008128D01*
X013537Y008103D01*
D35*
X013525Y009314D02*
Y009233D01*
X013566D01*
X013580Y009246D01*
Y009260D01*
X013566Y009274D01*
X013525D01*
X013566D01*
X013580Y009287D01*
Y009301D01*
X013566Y009314D01*
X013525D01*
X013607D02*
X013661D01*
X013634D01*
Y009233D01*
X013688D02*
Y009314D01*
X013742Y009233D01*
Y009314D01*
X013769Y009233D02*
X013796D01*
X013783D01*
Y009314D01*
X013769Y009301D01*
X013630Y009551D02*
X013617Y009564D01*
X013590D01*
X013576Y009551D01*
Y009497D01*
X013590Y009483D01*
X013617D01*
X013630Y009497D01*
Y009524D01*
X013603D01*
X013658Y009483D02*
Y009564D01*
X013712Y009483D01*
Y009564D01*
X013739D02*
Y009483D01*
X013779D01*
X013793Y009497D01*
Y009551D01*
X013779Y009564D01*
X013739D01*
X013500Y009814D02*
Y009733D01*
X013541D01*
X013554Y009747D01*
Y009760D01*
X013541Y009774D01*
X013500D01*
X013541D01*
X013554Y009787D01*
Y009801D01*
X013541Y009814D01*
X013500D01*
X013581D02*
X013636D01*
X013608D01*
Y009733D01*
X013663D02*
Y009814D01*
X013717Y009733D01*
Y009814D01*
X013798Y009733D02*
X013744D01*
X013798Y009787D01*
Y009801D01*
X013784Y009814D01*
X013757D01*
X013744Y009801D01*
X013630Y010051D02*
X013617Y010064D01*
X013590D01*
X013576Y010051D01*
Y009997D01*
X013590Y009983D01*
X013617D01*
X013630Y009997D01*
Y010024D01*
X013603D01*
X013658Y009983D02*
Y010064D01*
X013712Y009983D01*
Y010064D01*
X013739D02*
Y009983D01*
X013779D01*
X013793Y009997D01*
Y010051D01*
X013779Y010064D01*
X013739D01*
X013500Y010315D02*
Y010233D01*
X013541D01*
X013554Y010247D01*
Y010260D01*
X013541Y010274D01*
X013500D01*
X013541D01*
X013554Y010287D01*
Y010301D01*
X013541Y010315D01*
X013500D01*
X013581D02*
X013636D01*
X013608D01*
Y010233D01*
X013663D02*
Y010315D01*
X013717Y010233D01*
Y010315D01*
X013744Y010301D02*
X013757Y010315D01*
X013784D01*
X013798Y010301D01*
Y010287D01*
X013784Y010274D01*
X013771D01*
X013784D01*
X013798Y010260D01*
Y010247D01*
X013784Y010233D01*
X013757D01*
X013744Y010247D01*
X013630Y010551D02*
X013617Y010565D01*
X013590D01*
X013576Y010551D01*
Y010497D01*
X013590Y010483D01*
X013617D01*
X013630Y010497D01*
Y010524D01*
X013603D01*
X013658Y010483D02*
Y010565D01*
X013712Y010483D01*
Y010565D01*
X013739D02*
Y010483D01*
X013779D01*
X013793Y010497D01*
Y010551D01*
X013779Y010565D01*
X013739D01*
X013500Y010815D02*
Y010733D01*
X013541D01*
X013554Y010747D01*
Y010761D01*
X013541Y010774D01*
X013500D01*
X013541D01*
X013554Y010788D01*
Y010801D01*
X013541Y010815D01*
X013500D01*
X013581D02*
X013636D01*
X013608D01*
Y010733D01*
X013663D02*
Y010815D01*
X013717Y010733D01*
Y010815D01*
X013784Y010733D02*
Y010815D01*
X013744Y010774D01*
X013798D01*
X013630Y011051D02*
X013617Y011065D01*
X013590D01*
X013576Y011051D01*
Y010997D01*
X013590Y010984D01*
X013617D01*
X013630Y010997D01*
Y011024D01*
X013603D01*
X013658Y010984D02*
Y011065D01*
X013712Y010984D01*
Y011065D01*
X013739D02*
Y010984D01*
X013779D01*
X013793Y010997D01*
Y011051D01*
X013779Y011065D01*
X013739D01*
X013500Y011315D02*
Y011234D01*
X013541D01*
X013554Y011247D01*
Y011261D01*
X013541Y011274D01*
X013500D01*
X013541D01*
X013554Y011288D01*
Y011301D01*
X013541Y011315D01*
X013500D01*
X013581D02*
X013636D01*
X013608D01*
Y011234D01*
X013663D02*
Y011315D01*
X013717Y011234D01*
Y011315D01*
X013798D02*
X013744D01*
Y011274D01*
X013771Y011288D01*
X013784D01*
X013798Y011274D01*
Y011247D01*
X013784Y011234D01*
X013757D01*
X013744Y011247D01*
X013630Y011551D02*
X013617Y011565D01*
X013590D01*
X013576Y011551D01*
Y011497D01*
X013590Y011484D01*
X013617D01*
X013630Y011497D01*
Y011524D01*
X013603D01*
X013658Y011484D02*
Y011565D01*
X013712Y011484D01*
Y011565D01*
X013739D02*
Y011484D01*
X013779D01*
X013793Y011497D01*
Y011551D01*
X013779Y011565D01*
X013739D01*
X013500Y011815D02*
Y011734D01*
X013541D01*
X013554Y011747D01*
Y011761D01*
X013541Y011774D01*
X013500D01*
X013541D01*
X013554Y011788D01*
Y011802D01*
X013541Y011815D01*
X013500D01*
X013581D02*
X013636D01*
X013608D01*
Y011734D01*
X013663D02*
Y011815D01*
X013717Y011734D01*
Y011815D01*
X013798D02*
X013771Y011802D01*
X013744Y011774D01*
Y011747D01*
X013757Y011734D01*
X013784D01*
X013798Y011747D01*
Y011761D01*
X013784Y011774D01*
X013744D01*
X013630Y012052D02*
X013617Y012065D01*
X013590D01*
X013576Y012052D01*
Y011997D01*
X013590Y011984D01*
X013617D01*
X013630Y011997D01*
Y012025D01*
X013603D01*
X013658Y011984D02*
Y012065D01*
X013712Y011984D01*
Y012065D01*
X013739D02*
Y011984D01*
X013779D01*
X013793Y011997D01*
Y012052D01*
X013779Y012065D01*
X013739D01*
X013500Y012315D02*
Y012234D01*
X013541D01*
X013554Y012248D01*
Y012261D01*
X013541Y012275D01*
X013500D01*
X013541D01*
X013554Y012288D01*
Y012302D01*
X013541Y012315D01*
X013500D01*
X013581D02*
X013636D01*
X013608D01*
Y012234D01*
X013663D02*
Y012315D01*
X013717Y012234D01*
Y012315D01*
X013744D02*
X013798D01*
Y012302D01*
X013744Y012248D01*
Y012234D01*
X013630Y012552D02*
X013617Y012565D01*
X013590D01*
X013576Y012552D01*
Y012498D01*
X013590Y012484D01*
X013617D01*
X013630Y012498D01*
Y012525D01*
X013603D01*
X013658Y012484D02*
Y012565D01*
X013712Y012484D01*
Y012565D01*
X013739D02*
Y012484D01*
X013779D01*
X013793Y012498D01*
Y012552D01*
X013779Y012565D01*
X013739D01*
X009304Y012027D02*
X009385D01*
Y012068D01*
X009372Y012081D01*
X009358D01*
X009345Y012068D01*
Y012027D01*
Y012068D01*
X009331Y012081D01*
X009318D01*
X009304Y012068D01*
Y012027D01*
Y012108D02*
Y012162D01*
Y012135D01*
X009385D01*
Y012189D02*
X009304D01*
X009385Y012244D01*
X009304D01*
X009318Y012271D02*
X009304Y012284D01*
Y012311D01*
X009318Y012325D01*
X009331D01*
X009345Y012311D01*
X009358Y012325D01*
X009372D01*
X009385Y012311D01*
Y012284D01*
X009372Y012271D01*
X009358D01*
X009345Y012284D01*
X009331Y012271D01*
X009318D01*
X009345Y012284D02*
Y012311D01*
X009067Y012157D02*
X009054Y012144D01*
Y012117D01*
X009067Y012103D01*
X009122D01*
X009135Y012117D01*
Y012144D01*
X009122Y012157D01*
X009095D01*
Y012130D01*
X009135Y012184D02*
X009054D01*
X009135Y012238D01*
X009054D01*
Y012266D02*
X009135D01*
Y012306D01*
X009122Y012320D01*
X009067D01*
X009054Y012306D01*
Y012266D01*
X008804Y012027D02*
X008885D01*
Y012068D01*
X008872Y012081D01*
X008858D01*
X008844Y012068D01*
Y012027D01*
Y012068D01*
X008831Y012081D01*
X008817D01*
X008804Y012068D01*
Y012027D01*
Y012108D02*
Y012162D01*
Y012135D01*
X008885D01*
Y012189D02*
X008804D01*
X008885Y012244D01*
X008804D01*
X008872Y012271D02*
X008885Y012284D01*
Y012311D01*
X008872Y012325D01*
X008817D01*
X008804Y012311D01*
Y012284D01*
X008817Y012271D01*
X008831D01*
X008844Y012284D01*
Y012325D01*
X008567Y012157D02*
X008554Y012144D01*
Y012117D01*
X008567Y012103D01*
X008621D01*
X008635Y012117D01*
Y012144D01*
X008621Y012157D01*
X008594D01*
Y012130D01*
X008635Y012184D02*
X008554D01*
X008635Y012238D01*
X008554D01*
Y012266D02*
X008635D01*
Y012306D01*
X008621Y012320D01*
X008567D01*
X008554Y012306D01*
Y012266D01*
X008304Y011963D02*
X008385D01*
Y012004D01*
X008371Y012018D01*
X008358D01*
X008344Y012004D01*
Y011963D01*
Y012004D01*
X008331Y012018D01*
X008317D01*
X008304Y012004D01*
Y011963D01*
Y012045D02*
Y012099D01*
Y012072D01*
X008385D01*
Y012126D02*
X008304D01*
X008385Y012180D01*
X008304D01*
X008385Y012207D02*
Y012234D01*
Y012221D01*
X008304D01*
X008317Y012207D01*
Y012275D02*
X008304Y012288D01*
Y012315D01*
X008317Y012329D01*
X008371D01*
X008385Y012315D01*
Y012288D01*
X008371Y012275D01*
X008317D01*
X008067Y012157D02*
X008054Y012144D01*
Y012117D01*
X008067Y012103D01*
X008121D01*
X008135Y012117D01*
Y012144D01*
X008121Y012157D01*
X008094D01*
Y012130D01*
X008135Y012184D02*
X008054D01*
X008135Y012238D01*
X008054D01*
Y012266D02*
X008135D01*
Y012306D01*
X008121Y012320D01*
X008067D01*
X008054Y012306D01*
Y012266D01*
X007803Y011989D02*
X007885D01*
Y012029D01*
X007871Y012043D01*
X007858D01*
X007844Y012029D01*
Y011989D01*
Y012029D01*
X007831Y012043D01*
X007817D01*
X007803Y012029D01*
Y011989D01*
Y012070D02*
Y012124D01*
Y012097D01*
X007885D01*
Y012151D02*
X007803D01*
X007885Y012205D01*
X007803D01*
X007885Y012233D02*
Y012260D01*
Y012246D01*
X007803D01*
X007817Y012233D01*
X007885Y012300D02*
Y012327D01*
Y012314D01*
X007803D01*
X007817Y012300D01*
X007567Y012157D02*
X007553Y012144D01*
Y012117D01*
X007567Y012103D01*
X007621D01*
X007635Y012117D01*
Y012144D01*
X007621Y012157D01*
X007594D01*
Y012130D01*
X007635Y012184D02*
X007553D01*
X007635Y012238D01*
X007553D01*
Y012266D02*
X007635D01*
Y012306D01*
X007621Y012320D01*
X007567D01*
X007553Y012306D01*
Y012266D01*
X007385Y011963D02*
X007303D01*
Y012004D01*
X007317Y012018D01*
X007344D01*
X007357Y012004D01*
Y011963D01*
Y011990D02*
X007385Y012018D01*
X007303Y012045D02*
Y012072D01*
Y012058D01*
X007385D01*
Y012045D01*
Y012072D01*
X007317Y012167D02*
X007303Y012153D01*
Y012126D01*
X007317Y012112D01*
X007371D01*
X007385Y012126D01*
Y012153D01*
X007371Y012167D01*
X007344D01*
Y012139D01*
X007303Y012194D02*
X007385D01*
X007344D01*
Y012248D01*
X007303D01*
X007385D01*
X007303Y012275D02*
Y012329D01*
Y012302D01*
X007385D01*
X007053Y012027D02*
X007134D01*
Y012081D01*
X007053Y012162D02*
Y012108D01*
X007134D01*
Y012162D01*
X007094Y012108D02*
Y012135D01*
X007053Y012244D02*
Y012189D01*
X007094D01*
Y012216D01*
Y012189D01*
X007134D01*
X007053Y012271D02*
Y012325D01*
Y012298D01*
X007134D01*
X006803Y012027D02*
X006884D01*
Y012068D01*
X006871Y012081D01*
X006817D01*
X006803Y012068D01*
Y012027D01*
Y012149D02*
Y012122D01*
X006817Y012108D01*
X006871D01*
X006884Y012122D01*
Y012149D01*
X006871Y012162D01*
X006817D01*
X006803Y012149D01*
Y012189D02*
X006884D01*
X006857Y012216D01*
X006884Y012244D01*
X006803D01*
X006884Y012271D02*
X006803D01*
X006884Y012325D01*
X006803D01*
X006553Y012179D02*
X006621D01*
X006634Y012193D01*
Y012220D01*
X006621Y012233D01*
X006553D01*
X006634Y012260D02*
X006553D01*
Y012301D01*
X006567Y012315D01*
X006594D01*
X006607Y012301D01*
Y012260D01*
X006066Y012157D02*
X006053Y012144D01*
Y012117D01*
X006066Y012103D01*
X006121D01*
X006134Y012117D01*
Y012144D01*
X006121Y012157D01*
X006093D01*
Y012130D01*
X006134Y012184D02*
X006053D01*
X006134Y012238D01*
X006053D01*
Y012266D02*
X006134D01*
Y012306D01*
X006121Y012320D01*
X006066D01*
X006053Y012306D01*
Y012266D01*
X013034Y013386D02*
X012980D01*
X013034Y013440D01*
Y013454D01*
X013021Y013467D01*
X012994D01*
X012980Y013454D01*
X013102Y013386D02*
Y013467D01*
X013061Y013426D01*
X013116D01*
X012979Y013132D02*
X013006D01*
X012993D01*
Y013213D01*
X012979Y013200D01*
X013101Y013132D02*
X013047D01*
X013101Y013186D01*
Y013200D01*
X013088Y013213D01*
X013061D01*
X013047Y013200D01*
X009703Y013386D02*
X009730D01*
X009716D01*
Y013467D01*
X009703Y013454D01*
X009771D02*
X009784Y013467D01*
X009811D01*
X009825Y013454D01*
Y013440D01*
X009811Y013426D01*
X009798D01*
X009811D01*
X009825Y013413D01*
Y013399D01*
X009811Y013386D01*
X009784D01*
X009771Y013399D01*
X009786Y013132D02*
X009813D01*
X009799D01*
Y013213D01*
X009786Y013200D01*
D36*
X007290Y009784D02*
G03*
X007290Y009784I-000030J000000D01*
G01*
D37*
X007042Y009931D02*
G03*
X007042Y009931I-000012J000000D01*
G01*
D38*
X013094Y009785D02*
G03*
X012967Y009785I-000063J000000D01*
G01*
X012491Y011341D02*
G03*
X012491Y011214I000000J-000063D01*
G01*
X010434Y011341D02*
G03*
X010434Y011214I000000J-000063D01*
G01*
X007160Y009014D02*
X008030D01*
X007160Y009884D02*
X008030D01*
Y009014D02*
Y009884D01*
X007160Y009014D02*
Y009884D01*
X008420Y009236D02*
Y009306D01*
X006392Y007727D02*
X006900D01*
X006392Y008489D02*
X006900D01*
Y007727D02*
Y008489D01*
X006392Y007727D02*
Y008489D01*
Y007727D02*
Y008214D01*
X013094Y009785D02*
X013295D01*
X012765D02*
X012967D01*
X012765Y011755D02*
X013295D01*
Y009785D02*
Y011755D01*
X012765Y009785D02*
Y011755D01*
X012491Y011341D02*
Y011543D01*
Y011013D02*
Y011214D01*
X010521Y011013D02*
Y011543D01*
X012491D01*
X010521Y011013D02*
X012491D01*
X009881Y013056D02*
Y013564D01*
X012929D01*
Y013056D02*
Y013564D01*
X009881Y013056D02*
X012929D01*
X010434Y011341D02*
Y011543D01*
Y011013D02*
Y011214D01*
X008464Y011013D02*
Y011543D01*
X010434D01*
X008464Y011013D02*
X010434D01*
D39*
X007874Y008382D02*
Y008365D01*
X007908Y008331D01*
X007942Y008365D01*
Y008382D01*
X007908Y008331D02*
Y008280D01*
X007976D02*
X008009D01*
X007992D01*
Y008382D01*
X007976Y008365D01*
X006979Y010342D02*
X006962Y010325D01*
Y010291D01*
X006979Y010274D01*
X007047D01*
X007064Y010291D01*
Y010325D01*
X007047Y010342D01*
Y010376D02*
X007064Y010393D01*
Y010427D01*
X007047Y010444D01*
X006979D01*
X006962Y010427D01*
Y010393D01*
X006979Y010376D01*
X006996D01*
X007013Y010393D01*
Y010444D01*
X006909Y010084D02*
Y009999D01*
X006926Y009982D01*
X006960D01*
X006977Y009999D01*
Y010084D01*
X007061Y009982D02*
Y010084D01*
X007010Y010033D01*
X007078D01*
X012583Y011867D02*
Y011969D01*
X012617Y011935D01*
X012651Y011969D01*
Y011867D01*
X012752Y011952D02*
X012736Y011969D01*
X012702D01*
X012685Y011952D01*
Y011935D01*
X012702Y011918D01*
X012736D01*
X012752Y011901D01*
Y011884D01*
X012736Y011867D01*
X012702D01*
X012685Y011884D01*
X012786Y011867D02*
X012820D01*
X012803D01*
Y011935D01*
X012786D01*
X012905Y011834D02*
X012922D01*
X012939Y011850D01*
Y011935D01*
X012888D01*
X012871Y011918D01*
Y011884D01*
X012888Y011867D01*
X012939D01*
X010528Y011844D02*
Y011946D01*
X010562Y011912D01*
X010596Y011946D01*
Y011844D01*
X010630D02*
X010664D01*
X010647D01*
Y011912D01*
X010630D01*
X010782Y011946D02*
Y011844D01*
X010731D01*
X010715Y011861D01*
Y011895D01*
X010731Y011912D01*
X010782D01*
X010884Y011929D02*
X010867Y011946D01*
X010833D01*
X010816Y011929D01*
Y011912D01*
X010833Y011895D01*
X010867D01*
X010884Y011878D01*
Y011861D01*
X010867Y011844D01*
X010833D01*
X010816Y011861D01*
X010918Y011844D02*
X010951D01*
X010935D01*
Y011912D01*
X010918D01*
X011036Y011810D02*
X011053D01*
X011070Y011827D01*
Y011912D01*
X011019D01*
X011002Y011895D01*
Y011861D01*
X011019Y011844D01*
X011070D01*
X006927Y008506D02*
Y008608D01*
X006977D01*
X006994Y008591D01*
Y008557D01*
X006977Y008540D01*
X006927D01*
X006960D02*
X006994Y008506D01*
X007096D02*
X007028D01*
X007096Y008574D01*
Y008591D01*
X007079Y008608D01*
X007045D01*
X007028Y008591D01*
X007130Y008608D02*
X007197D01*
Y008591D01*
X007130Y008523D01*
Y008506D01*
X008679Y008499D02*
X008578D01*
Y008550D01*
X008595Y008567D01*
X008628D01*
X008645Y008550D01*
Y008499D01*
Y008533D02*
X008679Y008567D01*
Y008668D02*
Y008600D01*
X008611Y008668D01*
X008595D01*
X008578Y008651D01*
Y008617D01*
X008595Y008600D01*
X008578Y008770D02*
X008595Y008736D01*
X008628Y008702D01*
X008662D01*
X008679Y008719D01*
Y008753D01*
X008662Y008770D01*
X008645D01*
X008628Y008753D01*
Y008702D01*
X006114Y009500D02*
Y009601D01*
X006165D01*
X006181Y009584D01*
Y009550D01*
X006165Y009533D01*
X006114D01*
X006148D02*
X006181Y009500D01*
X006283D02*
X006215D01*
X006283Y009567D01*
Y009584D01*
X006266Y009601D01*
X006232D01*
X006215Y009584D01*
X006385Y009601D02*
X006317D01*
Y009550D01*
X006351Y009567D01*
X006368D01*
X006385Y009550D01*
Y009517D01*
X006368Y009500D01*
X006334D01*
X006317Y009517D01*
X006114Y009652D02*
Y009754D01*
X006165D01*
X006181Y009737D01*
Y009703D01*
X006165Y009686D01*
X006114D01*
X006148D02*
X006181Y009652D01*
X006283D02*
X006215D01*
X006283Y009720D01*
Y009737D01*
X006266Y009754D01*
X006232D01*
X006215Y009737D01*
X006368Y009652D02*
Y009754D01*
X006317Y009703D01*
X006385D01*
X008415Y009980D02*
Y010081D01*
X008466D01*
X008483Y010064D01*
Y010030D01*
X008466Y010014D01*
X008415D01*
X008449D02*
X008483Y009980D01*
X008584D02*
X008517D01*
X008584Y010047D01*
Y010064D01*
X008567Y010081D01*
X008534D01*
X008517Y010064D01*
X008618D02*
X008635Y010081D01*
X008669D01*
X008686Y010064D01*
Y010047D01*
X008669Y010030D01*
X008652D01*
X008669D01*
X008686Y010014D01*
Y009997D01*
X008669Y009980D01*
X008635D01*
X008618Y009997D01*
X012596Y012540D02*
X012494D01*
Y012591D01*
X012511Y012608D01*
X012545D01*
X012562Y012591D01*
Y012540D01*
Y012574D02*
X012596Y012608D01*
Y012709D02*
Y012642D01*
X012528Y012709D01*
X012511D01*
X012494Y012692D01*
Y012658D01*
X012511Y012642D01*
X012596Y012811D02*
Y012743D01*
X012528Y012811D01*
X012511D01*
X012494Y012794D01*
Y012760D01*
X012511Y012743D01*
X012469Y012174D02*
X012367D01*
Y012225D01*
X012384Y012242D01*
X012418D01*
X012435Y012225D01*
Y012174D01*
Y012208D02*
X012469Y012242D01*
Y012343D02*
Y012276D01*
X012401Y012343D01*
X012384D01*
X012367Y012327D01*
Y012293D01*
X012384Y012276D01*
X012469Y012377D02*
Y012411D01*
Y012394D01*
X012367D01*
X012384Y012377D01*
X012215Y012159D02*
X012113D01*
Y012210D01*
X012130Y012227D01*
X012164D01*
X012181Y012210D01*
Y012159D01*
Y012193D02*
X012215Y012227D01*
Y012328D02*
Y012261D01*
X012147Y012328D01*
X012130D01*
X012113Y012311D01*
Y012277D01*
X012130Y012261D01*
Y012362D02*
X012113Y012379D01*
Y012413D01*
X012130Y012430D01*
X012198D01*
X012215Y012413D01*
Y012379D01*
X012198Y012362D01*
X012130D01*
X012088Y012548D02*
X011986D01*
Y012598D01*
X012003Y012615D01*
X012037D01*
X012054Y012598D01*
Y012548D01*
Y012581D02*
X012088Y012615D01*
Y012649D02*
Y012683D01*
Y012666D01*
X011986D01*
X012003Y012649D01*
X012071Y012734D02*
X012088Y012751D01*
Y012785D01*
X012071Y012802D01*
X012003D01*
X011986Y012785D01*
Y012751D01*
X012003Y012734D01*
X012020D01*
X012037Y012751D01*
Y012802D01*
X011961Y012167D02*
X011859D01*
Y012217D01*
X011876Y012234D01*
X011910D01*
X011927Y012217D01*
Y012167D01*
Y012200D02*
X011961Y012234D01*
Y012268D02*
Y012302D01*
Y012285D01*
X011859D01*
X011876Y012268D01*
Y012353D02*
X011859Y012370D01*
Y012404D01*
X011876Y012421D01*
X011893D01*
X011910Y012404D01*
X011927Y012421D01*
X011944D01*
X011961Y012404D01*
Y012370D01*
X011944Y012353D01*
X011927D01*
X011910Y012370D01*
X011893Y012353D01*
X011876D01*
X011910Y012370D02*
Y012404D01*
X011834Y012548D02*
X011732D01*
Y012598D01*
X011749Y012615D01*
X011783D01*
X011800Y012598D01*
Y012548D01*
Y012581D02*
X011834Y012615D01*
Y012649D02*
Y012683D01*
Y012666D01*
X011732D01*
X011749Y012649D01*
X011732Y012734D02*
Y012802D01*
X011749D01*
X011817Y012734D01*
X011834D01*
X011707Y012167D02*
X011605D01*
Y012217D01*
X011622Y012234D01*
X011656D01*
X011673Y012217D01*
Y012167D01*
Y012200D02*
X011707Y012234D01*
Y012268D02*
Y012302D01*
Y012285D01*
X011605D01*
X011622Y012268D01*
X011605Y012421D02*
X011622Y012387D01*
X011656Y012353D01*
X011690D01*
X011707Y012370D01*
Y012404D01*
X011690Y012421D01*
X011673D01*
X011656Y012404D01*
Y012353D01*
X011580Y012548D02*
X011478D01*
Y012598D01*
X011495Y012615D01*
X011529D01*
X011546Y012598D01*
Y012548D01*
Y012581D02*
X011580Y012615D01*
Y012649D02*
Y012683D01*
Y012666D01*
X011478D01*
X011495Y012649D01*
X011478Y012802D02*
Y012734D01*
X011529D01*
X011512Y012768D01*
Y012785D01*
X011529Y012802D01*
X011563D01*
X011580Y012785D01*
Y012751D01*
X011563Y012734D01*
X011453Y012167D02*
X011351D01*
Y012217D01*
X011368Y012234D01*
X011402D01*
X011419Y012217D01*
Y012167D01*
Y012200D02*
X011453Y012234D01*
Y012268D02*
Y012302D01*
Y012285D01*
X011351D01*
X011368Y012268D01*
X011453Y012404D02*
X011351D01*
X011402Y012353D01*
Y012421D01*
X011326Y012548D02*
X011224D01*
Y012598D01*
X011241Y012615D01*
X011275D01*
X011292Y012598D01*
Y012548D01*
Y012581D02*
X011326Y012615D01*
Y012649D02*
Y012683D01*
Y012666D01*
X011224D01*
X011241Y012649D01*
Y012734D02*
X011224Y012751D01*
Y012785D01*
X011241Y012802D01*
X011258D01*
X011275Y012785D01*
Y012768D01*
Y012785D01*
X011292Y012802D01*
X011309D01*
X011326Y012785D01*
Y012751D01*
X011309Y012734D01*
X011199Y012167D02*
X011097D01*
Y012217D01*
X011114Y012234D01*
X011148D01*
X011165Y012217D01*
Y012167D01*
Y012200D02*
X011199Y012234D01*
Y012268D02*
Y012302D01*
Y012285D01*
X011097D01*
X011114Y012268D01*
X011199Y012421D02*
Y012353D01*
X011131Y012421D01*
X011114D01*
X011097Y012404D01*
Y012370D01*
X011114Y012353D01*
X011072Y012565D02*
X010970D01*
Y012616D01*
X010987Y012633D01*
X011021D01*
X011038Y012616D01*
Y012565D01*
Y012599D02*
X011072Y012633D01*
Y012667D02*
Y012701D01*
Y012684D01*
X010970D01*
X010987Y012667D01*
X011072Y012752D02*
Y012785D01*
Y012769D01*
X010970D01*
X010987Y012752D01*
X010945Y012167D02*
X010843D01*
Y012217D01*
X010860Y012234D01*
X010894D01*
X010911Y012217D01*
Y012167D01*
Y012200D02*
X010945Y012234D01*
Y012268D02*
Y012302D01*
Y012285D01*
X010843D01*
X010860Y012268D01*
Y012353D02*
X010843Y012370D01*
Y012404D01*
X010860Y012421D01*
X010928D01*
X010945Y012404D01*
Y012370D01*
X010928Y012353D01*
X010860D01*
X010818Y012591D02*
X010716D01*
Y012642D01*
X010733Y012658D01*
X010767D01*
X010784Y012642D01*
Y012591D01*
Y012625D02*
X010818Y012658D01*
X010801Y012692D02*
X010818Y012709D01*
Y012743D01*
X010801Y012760D01*
X010733D01*
X010716Y012743D01*
Y012709D01*
X010733Y012692D01*
X010750D01*
X010767Y012709D01*
Y012760D01*
X010691Y012210D02*
X010589D01*
Y012261D01*
X010606Y012277D01*
X010640D01*
X010657Y012261D01*
Y012210D01*
Y012244D02*
X010691Y012277D01*
X010606Y012311D02*
X010589Y012328D01*
Y012362D01*
X010606Y012379D01*
X010623D01*
X010640Y012362D01*
X010657Y012379D01*
X010674D01*
X010691Y012362D01*
Y012328D01*
X010674Y012311D01*
X010657D01*
X010640Y012328D01*
X010623Y012311D01*
X010606D01*
X010640Y012328D02*
Y012362D01*
X010564Y012591D02*
X010462D01*
Y012642D01*
X010479Y012658D01*
X010513D01*
X010530Y012642D01*
Y012591D01*
Y012625D02*
X010564Y012658D01*
X010462Y012692D02*
Y012760D01*
X010479D01*
X010547Y012692D01*
X010564D01*
X010437Y012210D02*
X010335D01*
Y012261D01*
X010352Y012277D01*
X010386D01*
X010403Y012261D01*
Y012210D01*
Y012244D02*
X010437Y012277D01*
X010335Y012379D02*
X010352Y012345D01*
X010386Y012311D01*
X010420D01*
X010437Y012328D01*
Y012362D01*
X010420Y012379D01*
X010403D01*
X010386Y012362D01*
Y012311D01*
X010310Y012591D02*
X010208D01*
Y012642D01*
X010225Y012658D01*
X010259D01*
X010276Y012642D01*
Y012591D01*
Y012625D02*
X010310Y012658D01*
X010208Y012760D02*
Y012692D01*
X010259D01*
X010242Y012726D01*
Y012743D01*
X010259Y012760D01*
X010293D01*
X010310Y012743D01*
Y012709D01*
X010293Y012692D01*
X010183Y012210D02*
X010081D01*
Y012261D01*
X010098Y012277D01*
X010132D01*
X010149Y012261D01*
Y012210D01*
Y012244D02*
X010183Y012277D01*
Y012362D02*
X010081D01*
X010132Y012311D01*
Y012379D01*
X010056Y012591D02*
X009954D01*
Y012642D01*
X009971Y012658D01*
X010005D01*
X010022Y012642D01*
Y012591D01*
Y012625D02*
X010056Y012658D01*
X009971Y012692D02*
X009954Y012709D01*
Y012743D01*
X009971Y012760D01*
X009988D01*
X010005Y012743D01*
Y012726D01*
Y012743D01*
X010022Y012760D01*
X010039D01*
X010056Y012743D01*
Y012709D01*
X010039Y012692D01*
X012342Y012591D02*
X012240D01*
Y012642D01*
X012257Y012658D01*
X012291D01*
X012308Y012642D01*
Y012591D01*
Y012625D02*
X012342Y012658D01*
Y012760D02*
Y012692D01*
X012274Y012760D01*
X012257D01*
X012240Y012743D01*
Y012709D01*
X012257Y012692D01*
X008463Y009502D02*
Y009401D01*
X008514D01*
X008531Y009417D01*
Y009485D01*
X008514Y009502D01*
X008463D01*
X008633Y009401D02*
X008565D01*
X008633Y009468D01*
Y009485D01*
X008616Y009502D01*
X008582D01*
X008565Y009485D01*
X007502Y010342D02*
X007485Y010325D01*
Y010291D01*
X007502Y010274D01*
X007570D01*
X007587Y010291D01*
Y010325D01*
X007570Y010342D01*
X007502Y010376D02*
X007485Y010393D01*
Y010427D01*
X007502Y010444D01*
X007519D01*
X007536Y010427D01*
X007553Y010444D01*
X007570D01*
X007587Y010427D01*
Y010393D01*
X007570Y010376D01*
X007553D01*
X007536Y010393D01*
X007519Y010376D01*
X007502D01*
X007536Y010393D02*
Y010427D01*
X008056Y010501D02*
X008039Y010518D01*
X008005D01*
X007988Y010501D01*
Y010433D01*
X008005Y010417D01*
X008039D01*
X008056Y010433D01*
X008090Y010518D02*
X008158D01*
Y010501D01*
X008090Y010433D01*
Y010417D01*
X008442Y008666D02*
X008425Y008649D01*
Y008615D01*
X008442Y008598D01*
X008510D01*
X008527Y008615D01*
Y008649D01*
X008510Y008666D01*
X008425Y008767D02*
X008442Y008733D01*
X008476Y008699D01*
X008510D01*
X008527Y008716D01*
Y008750D01*
X008510Y008767D01*
X008493D01*
X008476Y008750D01*
Y008699D01*
X007594Y008743D02*
X007577Y008760D01*
X007543D01*
X007526Y008743D01*
Y008676D01*
X007543Y008659D01*
X007577D01*
X007594Y008676D01*
X007695Y008760D02*
X007628D01*
Y008710D01*
X007661Y008727D01*
X007678D01*
X007695Y008710D01*
Y008676D01*
X007678Y008659D01*
X007645D01*
X007628Y008676D01*
X007594Y007865D02*
X007577Y007882D01*
X007543D01*
X007526Y007865D01*
Y007797D01*
X007543Y007780D01*
X007577D01*
X007594Y007797D01*
X007678Y007780D02*
Y007882D01*
X007628Y007831D01*
X007695D01*
X006263Y009229D02*
X006246Y009213D01*
Y009179D01*
X006263Y009162D01*
X006331D01*
X006347Y009179D01*
Y009213D01*
X006331Y009229D01*
X006263Y009263D02*
X006246Y009280D01*
Y009314D01*
X006263Y009331D01*
X006280D01*
X006297Y009314D01*
Y009297D01*
Y009314D01*
X006314Y009331D01*
X006331D01*
X006347Y009314D01*
Y009280D01*
X006331Y009263D01*
X007270Y008699D02*
X007257Y008687D01*
Y008661D01*
X007270Y008649D01*
X007320D01*
X007333Y008661D01*
Y008687D01*
X007320Y008699D01*
X007333Y008776D02*
Y008725D01*
X007282Y008776D01*
X007270D01*
X007257Y008763D01*
Y008738D01*
X007270Y008725D01*
X006433Y009956D02*
X006416Y009939D01*
Y009905D01*
X006433Y009888D01*
X006501D01*
X006518Y009905D01*
Y009939D01*
X006501Y009956D01*
X006518Y009990D02*
Y010024D01*
Y010007D01*
X006416D01*
X006433Y009990D01*
X008471Y011946D02*
Y011844D01*
X008539D01*
X008640Y011929D02*
X008623Y011946D01*
X008589D01*
X008572Y011929D01*
Y011912D01*
X008589Y011895D01*
X008623D01*
X008640Y011878D01*
Y011861D01*
X008623Y011844D01*
X008589D01*
X008572Y011861D01*
X008674Y011844D02*
X008708D01*
X008691D01*
Y011912D01*
X008674D01*
X008793Y011810D02*
X008809D01*
X008826Y011827D01*
Y011912D01*
X008776D01*
X008759Y011895D01*
Y011861D01*
X008776Y011844D01*
X008826D01*
X006596Y008866D02*
X006579Y008849D01*
Y008815D01*
X006596Y008799D01*
X006663D01*
X006680Y008815D01*
Y008849D01*
X006663Y008866D01*
X006680Y008900D02*
Y008934D01*
Y008917D01*
X006579D01*
X006596Y008900D01*
Y008985D02*
X006579Y009002D01*
Y009036D01*
X006596Y009052D01*
X006663D01*
X006680Y009036D01*
Y009002D01*
X006663Y008985D01*
X006596D01*
X006299Y008306D02*
X006325D01*
X006312D01*
Y008382D01*
X006299Y008369D01*
D40*
X013716Y008052D02*
D03*
M02*
